<svg width="36" height="36" viewBox="0 0 36 36" fill="none" xmlns="http://www.w3.org/2000/svg">
<path d="M19.2861 4.5C24.796 4.50014 28.1943 7.25516 28.1943 11.4795C28.2223 12.6874 27.9037 13.878 27.2773 14.9111C26.6509 15.9444 25.7422 16.7777 24.6582 17.3115C26.1341 17.6607 27.4435 18.5097 28.3643 19.7148C29.285 20.9202 29.7603 22.4079 29.709 23.9238V24.1074C29.7088 29.0204 25.7143 31.4999 19.6074 31.5H6.75V4.5H19.2861ZM12.7432 26.1035H19.5488C22.1004 26.1034 23.6667 25.2078 23.667 23.2383C23.667 21.4027 22.324 20.2832 19.3691 20.2832H12.7432V26.1035ZM12.7432 15.4922H18.1152C20.5776 15.4922 22.1895 14.6419 22.1895 12.7168C22.1894 10.9708 20.8461 9.98633 18.3838 9.98633H12.7432V15.4922Z" fill="#3597FF"/>
</svg>
