<svg width="24" height="22" viewBox="0 0 24 22" fill="none" xmlns="http://www.w3.org/2000/svg">
<g id="Group 1000004029">
<g id="Group 1000004028">
<g id="Group 1000004027">
<g id="Group 1000004026">
<g id="Group 1000004025">
<path id="Vector" d="M23.9377 14.6105C23.7171 13.8827 23.0172 13.429 22.4515 13.0604C21.9386 12.7248 21.3585 12.4791 20.7497 12.3326C21.3106 10.9101 22.0824 8.35334 20.8408 7.3987C20.3087 6.98754 19.6519 7.04425 18.5637 7.13877C17.6049 7.22384 16.6557 7.3987 15.74 7.66808C15.438 6.98754 15.0545 6.34953 14.5943 5.75879C13.9087 4.87503 13.3622 4.18032 12.5281 4.02909C11.2145 3.78806 9.70445 5.05935 8.61143 7.30418C7.98822 7.13877 7.35062 7.00172 6.70823 6.90247C4.84339 6.60946 3.90378 6.46296 3.18469 6.98754C1.94785 7.8902 2.28342 10.1823 3.06963 12.1955C2.48956 12.5027 1.95264 12.8714 1.45887 13.2967C0.682248 13.963 0.17409 14.4026 0.0350653 15.0736C-0.34845 16.8979 2.51353 18.6654 3.75996 19.3365C6.79932 20.9811 9.69007 20.9905 12.0151 21C12.2021 21 12.3843 21 12.5712 21C14.8483 21 17.1974 20.9102 19.6615 19.6342C21.6701 18.5898 24.4698 16.3922 23.9329 14.6058L23.9377 14.6105Z" fill="#525463"/>
<path id="Vector_2" d="M6.46982 17C6.43154 17 6.39325 17 6.35497 16.9828L4.41959 16.4165C4.1346 16.3307 3.95169 15.9532 4.01124 15.5643C4.07505 15.181 4.35579 14.935 4.64503 15.0151L6.58041 15.5814C6.8654 15.6672 7.04831 16.0447 6.98876 16.4337C6.93346 16.7655 6.71653 17 6.46982 17Z" fill="#F0F0F5"/>
<path id="Vector_3" d="M8.34588 12.995C8.1678 12.995 7.99496 12.9254 7.86402 12.7912L6.17225 11.0364C5.92608 10.7829 5.94703 10.3902 6.21416 10.1615C6.48128 9.93285 6.89505 9.94776 7.13598 10.2013L8.82775 11.9561C9.07392 12.2096 9.05297 12.6023 8.78584 12.836C8.66014 12.9453 8.50301 13 8.34588 13V12.995Z" fill="#F0F0F5"/>
<path id="Vector_4" d="M11.5 12C11.224 12 11 11.7057 11 11.343V8.65703C11 8.29435 11.224 8 11.5 8C11.776 8 12 8.29435 12 8.65703V11.343C12 11.7057 11.776 12 11.5 12Z" fill="#F0F0F5"/>
<path id="Vector_5" d="M15.6338 13C15.4707 13 15.3128 12.9396 15.1905 12.8189C14.9408 12.5775 14.9357 12.1801 15.1803 11.9285L16.9076 10.1881C17.1522 9.94157 17.5547 9.93654 17.8095 10.178C18.0592 10.4194 18.0643 10.8168 17.8197 11.0684L16.0924 12.8088C15.9701 12.9346 15.8019 13 15.6389 13H15.6338Z" fill="#F0F0F5"/>
<path id="Vector_6" d="M17.5239 16C17.2522 16 17.0223 15.8228 17.0014 15.589C16.9805 15.3445 17.1979 15.1319 17.4863 15.1177L19.4426 15.0008C19.7269 14.9866 19.9819 15.1673 19.9986 15.4118C20.0195 15.6563 19.8021 15.8689 19.5137 15.8831L17.5574 16C17.5574 16 17.5323 16 17.5197 16H17.5239Z" fill="#F0F0F5"/>
</g>
</g>
</g>
</g>
</g>
</svg>
