<svg width="41" height="40" viewBox="0 0 41 40" fill="none" xmlns="http://www.w3.org/2000/svg">
<g id="ExamIcon">
<path id="Icon shape" fill-rule="evenodd" clip-rule="evenodd" d="M33.957 17.8273H35.2495V7.44231H24.8645V6.13981C24.8645 3.98981 23.122 2.24731 20.972 2.24731C18.8195 2.24731 17.077 3.98981 17.077 6.13981V7.44231H6.69201V17.8273H5.39451C3.24201 17.8273 1.49951 19.5698 1.49951 21.7223C1.49951 23.8723 3.24201 25.6148 5.39451 25.6148H6.69201V36.0023H17.077V34.7148C17.077 32.5648 18.8195 30.8198 20.972 30.8198C23.122 30.8198 24.8645 32.5648 24.8645 34.7148V36.0023H35.2495V25.6148H33.957C31.807 25.6148 30.062 23.8723 30.062 21.7223C30.062 19.5698 31.807 17.8273 33.957 17.8273" fill="#F7737C"/>
</g>
</svg>
