<svg width="828" height="586" viewBox="0 0 828 586" fill="none" xmlns="http://www.w3.org/2000/svg">
<rect width="828" height="586" rx="70" fill="#F9F9FB"/>
<rect x="49" y="447" width="77" height="65" rx="25" fill="#DCEAFE"/>
<path d="M752.892 444H736.108C717.575 444 703 460.353 703 479.946V482.054C703 501.647 717.575 518 736.108 518H752.892C771.426 518 786 501.647 786 482.054V479.946C786 460.353 771.426 444 752.892 444Z" fill="#A9ABB8" fill-opacity="0.55" stroke="#525463" stroke-width="6"/>
<rect x="699" y="503" width="90" height="37" rx="18.5" fill="#525463"/>
<path d="M727.645 512.965V526.031H724.852V519.762H722.156V517.496H724.852V512.965H727.645ZM728.055 528.336V530.582H715.633V524.898H718.445V528.336H728.055ZM719.402 516.402C719.402 518.414 720.516 520.621 723.426 521.559L722.059 523.785C720.096 523.16 718.777 521.92 717.996 520.387C717.215 522.086 715.838 523.453 713.758 524.117L712.312 521.852C715.379 520.934 716.531 518.59 716.531 516.383V516.344H713.094V514.098H722.82V516.344H719.402V516.402ZM735.457 518.375C735.457 521.051 736.277 523.707 738.855 525.094L737.332 527.145C735.779 526.354 734.773 525.035 734.168 523.434C733.543 525.191 732.518 526.676 730.945 527.574L729.344 525.465C731.98 523.941 732.801 521.09 732.801 518.375V518.141H730.086V515.895H732.801V513.551H735.438V515.895H738.094V518.141H735.457V518.375ZM745.301 512.945V530.875H742.645V512.945H745.301ZM741.609 513.199V530.074H738.992V521.93H737.117V519.664H738.992V513.199H741.609ZM760.906 521.93C760.906 526.598 757.977 529.195 754.188 529.195C750.379 529.195 747.469 526.578 747.469 521.93C747.469 517.262 750.379 514.664 754.188 514.664C757.977 514.664 760.906 517.262 760.906 521.93ZM757.508 521.93C757.508 519.117 756.258 517.594 754.188 517.594C752.117 517.594 750.867 519.117 750.867 521.93C750.867 524.742 752.117 526.266 754.188 526.266C756.258 526.266 757.508 524.742 757.508 521.93ZM761.746 517.574V514.859H773.641V517.574H769.344V529H766.043V517.574H761.746Z" fill="white"/>
<path d="M94.8918 444H78.1083C59.5745 444 45 460.353 45 479.946V482.054C45 501.647 59.5745 518 78.1083 518H94.8918C113.426 518 128 501.647 128 482.054V479.946C128 460.353 113.426 444 94.8918 444Z" fill="#DCEDFF" stroke="#4FA4FF" stroke-width="6"/>
<rect x="39" y="503" width="95" height="37" rx="18.5" fill="#4FA4FF"/>
<path d="M67.8555 526.559V528.844H51.4688V526.559H58.2461V523.102H53.1484V514.215H66.0977V523.102H61.0195V526.559H67.8555ZM55.9219 516.461V520.914H63.3047V516.461H55.9219ZM79.3398 513.883V516.109H75.9414C76.1465 517.838 77.3672 519.566 80.1016 520.27L78.6953 522.477C76.6836 521.91 75.3066 520.748 74.5156 519.273C73.6953 520.875 72.2793 522.145 70.1797 522.77L68.7539 520.582C71.5762 519.801 72.8164 517.955 73.0312 516.109H69.5156V513.883H79.3398ZM83.8125 512.945V522.672H81V512.945H83.8125ZM74.4766 523.375V524.898H81V523.375H83.8125V530.68H71.7227V523.375H74.4766ZM74.4766 528.434H81V527.066H74.4766V528.434ZM95.2773 514.625V526.559H86.5469V514.625H95.2773ZM89.3203 516.812V524.332H92.4844V516.812H89.3203ZM100.258 512.945V519.586H102.797V521.91H100.258V530.875H97.4453V512.945H100.258ZM117.602 512.945V516.715H119.926V519.02H117.602V522.906H114.789V512.945H117.602ZM112.543 513.961C112.543 518.785 109.594 521.988 104.184 523.395L103.07 521.168C106.957 520.23 109.037 518.375 109.457 516.188H103.969V513.961H112.543ZM117.602 523.551V530.66H105.766V523.551H117.602ZM108.559 525.797V528.473H114.828V525.797H108.559Z" fill="white"/>
<path d="M70.7435 104.326C68.5585 104.326 67.191 105.442 67.191 106.951C67.191 108.632 69.0144 109.293 70.4134 109.638L72.1425 110.094C74.4218 110.644 77.2512 111.902 77.2512 115.092C77.2512 118.11 74.8462 120.31 70.6649 120.31C66.4836 120.31 64.1729 118.33 64 115.092H66.7037C66.8609 117.025 68.5742 117.937 70.6492 117.937C72.9284 117.937 74.5632 116.789 74.5789 115.061C74.5789 113.505 73.1171 112.876 71.215 112.373L69.1244 111.807C66.2635 111.021 64.4873 109.591 64.4873 107.108C64.4873 104.027 67.2224 102 70.8064 102C74.3903 102 76.9525 104.059 77.0154 106.919H74.406C74.2331 105.285 72.7869 104.326 70.7435 104.326Z" fill="#787C8E" fill-opacity="0.7"/>
<path d="M94.3063 102.221V113.898C94.3063 117.639 91.4926 120.295 87.2328 120.295C82.9729 120.295 80.1592 117.655 80.1592 113.898V102.221H82.8629V113.694C82.8629 116.114 84.5448 117.827 87.2328 117.827C89.9207 117.827 91.5869 116.099 91.5869 113.694V102.221H94.3063Z" fill="#787C8E" fill-opacity="0.7"/>
<path d="M112.289 120.012H109.805L100.798 107.03H100.626V120.012H97.9219V102.221H100.437L109.444 115.234H109.617V102.221H112.289V119.996V120.012Z" fill="#787C8E" fill-opacity="0.7"/>
<path d="M177.606 102.283L183.249 116.067H183.453L189.081 102.283H192.366V120.059H189.788V107.234H189.631L184.396 120.043H182.259L177.024 107.219H176.883V120.075H174.289V102.283H177.574H177.606Z" fill="#787C8E" fill-opacity="0.7"/>
<path d="M203.432 120.31C198.811 120.31 195.416 116.852 195.416 111.179C195.416 105.505 198.795 102.047 203.432 102.047C208.069 102.047 211.449 105.489 211.449 111.179C211.449 116.868 208.038 120.31 203.432 120.31ZM203.432 117.842C206.482 117.842 208.761 115.501 208.761 111.179C208.761 106.856 206.482 104.515 203.432 104.515C200.383 104.515 198.103 106.856 198.103 111.179C198.103 115.501 200.383 117.842 203.432 117.842Z" fill="#787C8E" fill-opacity="0.7"/>
<path d="M228.85 120.075H226.367L217.359 107.093H217.187V120.075H214.483V102.283H216.998L226.005 115.297H226.178V102.283H228.85V120.059V120.075Z" fill="#787C8E" fill-opacity="0.7"/>
<path d="M290.85 102.236H304.635V104.562H299.102V120.011H296.398V104.562H290.85V102.236Z" fill="#787C8E" fill-opacity="0.7"/>
<path d="M321.517 102.236V113.913C321.517 117.654 318.704 120.31 314.444 120.31C310.184 120.31 307.37 117.67 307.37 113.913V102.236H310.074V113.709C310.074 116.129 311.756 117.842 314.444 117.842C317.132 117.842 318.798 116.114 318.798 113.709V102.236H321.517Z" fill="#787C8E" fill-opacity="0.7"/>
<path d="M325.133 102.236H336.293V104.562H327.821V109.953H335.712V112.279H327.821V117.701H336.388V120.027H325.133V102.236Z" fill="#787C8E" fill-opacity="0.7"/>
<path d="M398.404 102.519H401.249L404.707 116.255H404.864L408.464 102.519H411.278L414.877 116.271H415.035L418.493 102.519H421.338L416.402 120.294H413.683L409.942 107.014H409.8L406.059 120.294H403.324L398.388 102.519H398.404Z" fill="#787C8E" fill-opacity="0.7"/>
<path d="M423.539 102.519H434.699V104.845H426.227V110.236H434.118V112.562H426.227V117.984H434.793V120.31H423.539V102.519Z" fill="#787C8E" fill-opacity="0.7"/>
<path d="M437.984 120.31V102.519H443.926C449.176 102.519 452.304 105.851 452.304 111.383C452.304 116.915 449.176 120.294 443.753 120.294H437.984V120.31ZM443.612 117.937C447.652 117.937 449.632 115.595 449.632 111.383C449.632 107.171 447.652 104.876 443.769 104.876H440.688V117.937H443.612Z" fill="#787C8E" fill-opacity="0.7"/>
<path d="M514.304 102.236H528.09V104.562H522.557V120.011H519.853V104.562H514.304V102.236Z" fill="#787C8E" fill-opacity="0.7"/>
<path d="M530.825 102.236H533.528V109.953H542.378V102.236H545.082V120.011H542.378V112.263H533.528V120.011H530.825V102.236Z" fill="#787C8E" fill-opacity="0.7"/>
<path d="M562.845 102.236V113.913C562.845 117.654 560.031 120.31 555.771 120.31C551.511 120.31 548.698 117.67 548.698 113.913V102.236H551.401V113.709C551.401 116.129 553.083 117.842 555.771 117.842C558.459 117.842 560.125 116.114 560.125 113.709V102.236H562.845Z" fill="#787C8E" fill-opacity="0.7"/>
<path d="M624.845 102.519H635.895V104.845H627.548V110.236H635.093V112.562H627.548V120.31H624.845V102.519Z" fill="#787C8E" fill-opacity="0.7"/>
<path d="M638.898 102.519H645.248C649.366 102.519 651.41 104.813 651.41 108.098C651.41 110.487 650.341 112.31 648.156 113.128L652.086 120.31H649.005L645.39 113.599H641.585V120.31H638.882V102.519H638.898ZM644.965 111.273C647.59 111.273 648.675 110.11 648.675 108.098C648.675 106.086 647.574 104.845 644.949 104.845H641.585V111.273H644.965Z" fill="#787C8E" fill-opacity="0.7"/>
<path d="M657.084 120.31H654.381V102.519H657.084V120.294V120.31Z" fill="#787C8E" fill-opacity="0.7"/>
<path d="M725.828 104.326C723.643 104.326 722.275 105.442 722.275 106.951C722.275 108.632 724.099 109.293 725.498 109.638L727.227 110.094C729.506 110.644 732.336 111.902 732.336 115.092C732.336 118.11 729.946 120.31 725.749 120.31C721.552 120.31 719.257 118.33 719.084 115.092H721.788C721.945 117.025 723.659 117.937 725.734 117.937C728.013 117.937 729.648 116.789 729.663 115.061C729.663 113.505 728.202 112.876 726.3 112.373L724.209 111.807C721.348 111.021 719.572 109.591 719.572 107.108C719.572 104.027 722.307 102 725.891 102C729.475 102 732.037 104.059 732.1 106.919H729.491C729.318 105.285 727.871 104.326 725.828 104.326Z" fill="#787C8E" fill-opacity="0.7"/>
<path d="M733.75 120.012L740.148 102.236H743.276L749.674 120.012H746.797L745.178 115.313H738.246L736.627 120.012H733.766H733.75ZM744.392 113.049L741.783 105.474H741.641L739.032 113.049H744.392Z" fill="#787C8E" fill-opacity="0.7"/>
<path d="M748.935 102.221H762.721V104.547H757.188V119.996H754.484V104.547H748.935V102.221Z" fill="#787C8E" fill-opacity="0.7"/>
<rect x="709.87" y="148.31" width="83" height="62" rx="25" fill="#DCEAFE"/>
<path d="M755.089 167.685V190.31H750.995V171.654H750.87L745.589 175.029V171.31L751.183 167.685H755.089Z" fill="#3E404C"/>
<rect x="39" y="223.31" width="754.03" height="62" rx="25" fill="#DCEAFE"/>
<path d="M80.3794 263.373L88.3794 255.654C89.244 254.789 89.9106 254.081 90.3794 253.529C90.8585 252.966 91.2231 252.414 91.4731 251.873C91.7231 251.32 91.8481 250.737 91.8481 250.123C91.8481 249.435 91.6763 248.831 91.3325 248.31C90.9992 247.789 90.5356 247.388 89.9419 247.107C89.3585 246.826 88.7023 246.685 87.9731 246.685C87.2023 246.685 86.5252 246.841 85.9419 247.154C85.369 247.456 84.9263 247.888 84.6138 248.451C84.3117 249.013 84.1606 249.675 84.1606 250.435H80.2856C80.2856 249.029 80.6085 247.794 81.2544 246.732C81.9106 245.659 82.8221 244.831 83.9888 244.248C85.1658 243.664 86.5044 243.373 88.0044 243.373C89.5252 243.373 90.869 243.654 92.0356 244.216C93.2127 244.779 94.1242 245.56 94.77 246.56C95.4263 247.55 95.7544 248.675 95.7544 249.935C95.744 250.81 95.5721 251.654 95.2388 252.466C94.9054 253.268 94.3325 254.164 93.52 255.154C92.7075 256.143 91.5565 257.341 90.0669 258.748L86.0356 262.748V262.904H96.0981V266.31H80.3794V263.373Z" fill="#3E404C"/>
<path d="M197.419 266.623C195.826 266.623 194.399 266.352 193.138 265.81C191.878 265.268 190.888 264.508 190.169 263.529C189.451 262.55 189.076 261.435 189.044 260.185H193.138C193.169 260.779 193.378 261.305 193.763 261.763C194.149 262.222 194.659 262.576 195.294 262.826C195.93 263.065 196.638 263.185 197.419 263.185C198.242 263.185 198.977 263.044 199.623 262.763C200.279 262.482 200.789 262.086 201.154 261.576C201.518 261.065 201.701 260.477 201.701 259.81C201.701 259.133 201.513 258.534 201.138 258.013C200.763 257.482 200.221 257.065 199.513 256.763C198.805 256.461 197.971 256.31 197.013 256.31H194.982V253.185H197.013C197.805 253.185 198.508 253.05 199.123 252.779C199.748 252.498 200.227 252.107 200.56 251.607C200.904 251.097 201.076 250.518 201.076 249.873C201.076 249.248 200.925 248.695 200.623 248.216C200.331 247.727 199.909 247.352 199.357 247.091C198.815 246.82 198.18 246.685 197.451 246.685C196.742 246.685 196.081 246.815 195.466 247.076C194.862 247.326 194.373 247.685 193.998 248.154C193.633 248.623 193.44 249.164 193.419 249.779H189.513C189.544 248.539 189.914 247.435 190.623 246.466C191.331 245.487 192.284 244.727 193.482 244.185C194.68 243.643 196.013 243.373 197.482 243.373C198.971 243.373 200.289 243.654 201.435 244.216C202.581 244.768 203.466 245.524 204.091 246.482C204.716 247.44 205.024 248.498 205.013 249.654C205.024 250.487 204.857 251.242 204.513 251.919C204.169 252.586 203.685 253.143 203.06 253.591C202.435 254.039 201.711 254.352 200.888 254.529V254.716C201.94 254.852 202.841 255.159 203.591 255.638C204.341 256.117 204.909 256.732 205.294 257.482C205.68 258.232 205.867 259.081 205.857 260.029C205.867 261.289 205.508 262.419 204.779 263.419C204.06 264.419 203.055 265.206 201.763 265.779C200.482 266.341 199.034 266.623 197.419 266.623Z" fill="#3E404C"/>
<path d="M297.866 258.841L307.647 243.685H312.709V258.748H315.678V262.091H312.709V266.31H308.834V262.091H297.866V258.841ZM308.897 258.748V248.31H308.647L302.022 258.591V258.748H308.897Z" fill="#3E404C"/>
<path d="M416.046 266.623C414.557 266.623 413.213 266.347 412.015 265.794C410.828 265.242 409.885 264.477 409.187 263.498C408.489 262.518 408.119 261.414 408.078 260.185H412.046C412.088 260.779 412.291 261.315 412.656 261.794C413.02 262.274 413.499 262.654 414.093 262.935C414.687 263.206 415.338 263.341 416.046 263.341C416.88 263.341 417.624 263.154 418.281 262.779C418.947 262.393 419.463 261.873 419.828 261.216C420.203 260.56 420.39 259.82 420.39 258.998C420.39 258.143 420.197 257.378 419.812 256.701C419.427 256.024 418.89 255.498 418.203 255.123C417.515 254.748 416.734 254.56 415.859 254.56C414.078 254.56 412.848 255.206 412.171 256.498H408.39L409.765 243.685H423.14V247.091H413.109L412.421 253.091H412.64C413.088 252.581 413.703 252.169 414.484 251.857C415.265 251.544 416.109 251.383 417.015 251.373C418.401 251.373 419.651 251.695 420.765 252.341C421.88 252.987 422.749 253.883 423.374 255.029C424.01 256.164 424.328 257.445 424.328 258.873C424.328 260.362 423.979 261.695 423.281 262.873C422.583 264.05 421.604 264.972 420.343 265.638C419.083 266.294 417.651 266.623 416.046 266.623Z" fill="#3E404C"/>
<path d="M525.586 266.623C523.982 266.623 522.513 266.274 521.18 265.576C519.847 264.867 518.769 263.695 517.946 262.06C517.123 260.425 516.711 258.279 516.711 255.623C516.711 253.07 517.076 250.878 517.805 249.044C518.545 247.201 519.597 245.794 520.961 244.826C522.326 243.857 523.93 243.373 525.774 243.373C527.191 243.373 528.467 243.649 529.602 244.201C530.737 244.753 531.649 245.513 532.336 246.482C533.034 247.451 533.472 248.55 533.649 249.779H529.618C529.409 248.893 528.967 248.19 528.29 247.669C527.623 247.149 526.784 246.893 525.774 246.904C524.691 246.904 523.763 247.211 522.993 247.826C522.232 248.43 521.654 249.305 521.258 250.451C520.862 251.597 520.659 252.966 520.649 254.56H520.868C521.451 253.581 522.253 252.82 523.274 252.279C524.305 251.727 525.441 251.456 526.68 251.466C528.024 251.466 529.243 251.779 530.336 252.404C531.43 253.029 532.29 253.904 532.915 255.029C533.55 256.143 533.868 257.404 533.868 258.81C533.868 260.3 533.524 261.638 532.836 262.826C532.149 264.003 531.175 264.93 529.915 265.607C528.654 266.284 527.211 266.623 525.586 266.623ZM521.086 258.935C521.097 259.716 521.295 260.445 521.68 261.123C522.066 261.789 522.592 262.326 523.258 262.732C523.935 263.138 524.691 263.341 525.524 263.341C526.347 263.341 527.092 263.143 527.758 262.748C528.435 262.352 528.967 261.82 529.352 261.154C529.737 260.477 529.93 259.727 529.93 258.904C529.93 258.112 529.737 257.383 529.352 256.716C528.977 256.05 528.461 255.524 527.805 255.138C527.149 254.753 526.409 254.56 525.586 254.56C524.753 254.56 523.993 254.758 523.305 255.154C522.628 255.55 522.092 256.086 521.696 256.763C521.3 257.43 521.097 258.154 521.086 258.935Z" fill="#3E404C"/>
<path d="M638.048 247.248V247.091H626.673V243.685H642.267V247.154L632.455 266.31H628.236L638.048 247.248Z" fill="#3E404C"/>
<path d="M743.885 266.623C742.229 266.623 740.745 266.352 739.432 265.81C738.13 265.258 737.114 264.498 736.385 263.529C735.656 262.56 735.291 261.466 735.291 260.248C735.291 259.31 735.5 258.435 735.916 257.623C736.344 256.81 736.927 256.138 737.666 255.607C738.416 255.076 739.239 254.737 740.135 254.591V254.466C739.354 254.3 738.661 253.977 738.057 253.498C737.453 253.018 736.979 252.425 736.635 251.716C736.302 251.008 736.135 250.248 736.135 249.435C736.135 248.279 736.469 247.242 737.135 246.326C737.812 245.399 738.739 244.675 739.916 244.154C741.094 243.633 742.416 243.373 743.885 243.373C745.344 243.373 746.661 243.633 747.838 244.154C749.015 244.675 749.937 245.399 750.604 246.326C751.271 247.253 751.604 248.289 751.604 249.435C751.604 250.248 751.432 251.008 751.088 251.716C750.755 252.425 750.281 253.018 749.666 253.498C749.062 253.977 748.375 254.3 747.604 254.466V254.591C748.5 254.737 749.318 255.076 750.057 255.607C750.797 256.138 751.385 256.81 751.823 257.623C752.26 258.435 752.479 259.31 752.479 260.248C752.479 261.466 752.109 262.56 751.37 263.529C750.63 264.498 749.609 265.258 748.307 265.81C747.005 266.352 745.531 266.623 743.885 266.623ZM739.479 259.873C739.479 260.57 739.656 261.185 740.01 261.716C740.375 262.248 740.89 262.664 741.557 262.966C742.224 263.258 743 263.404 743.885 263.404C744.76 263.404 745.526 263.258 746.182 262.966C746.849 262.664 747.364 262.248 747.729 261.716C748.104 261.185 748.291 260.57 748.291 259.873C748.291 259.175 748.099 258.544 747.713 257.982C747.338 257.419 746.812 256.982 746.135 256.669C745.469 256.347 744.719 256.185 743.885 256.185C743.052 256.185 742.297 256.341 741.62 256.654C740.943 256.966 740.416 257.404 740.041 257.966C739.666 258.529 739.479 259.164 739.479 259.873ZM740.104 249.81C740.104 250.466 740.265 251.05 740.588 251.56C740.911 252.06 741.359 252.451 741.932 252.732C742.505 253.013 743.156 253.154 743.885 253.154C744.604 253.154 745.245 253.013 745.807 252.732C746.38 252.451 746.828 252.06 747.151 251.56C747.474 251.05 747.635 250.466 747.635 249.81C747.635 249.175 747.474 248.612 747.151 248.123C746.838 247.633 746.396 247.253 745.823 246.982C745.26 246.701 744.614 246.56 743.885 246.56C743.135 246.56 742.474 246.701 741.901 246.982C741.338 247.253 740.896 247.633 740.573 248.123C740.26 248.612 740.104 249.175 740.104 249.81Z" fill="#3E404C"/>
<rect x="39" y="298.31" width="754.03" height="62" rx="25" fill="#DCEAFE"/>
<path d="M87.8638 318.373C89.4679 318.373 90.9367 318.727 92.27 319.435C93.6033 320.133 94.6867 321.3 95.52 322.935C96.3533 324.56 96.77 326.685 96.77 329.31C96.77 331.883 96.4002 334.091 95.6606 335.935C94.921 337.779 93.869 339.19 92.5044 340.169C91.1398 341.138 89.5304 341.623 87.6763 341.623C86.2492 341.623 84.9679 341.347 83.8325 340.794C82.7075 340.242 81.796 339.477 81.0981 338.498C80.4002 337.518 79.9679 336.404 79.8013 335.154H83.8325C84.0408 336.06 84.4783 336.779 85.145 337.31C85.8221 337.831 86.6658 338.091 87.6763 338.091C88.7596 338.091 89.6867 337.784 90.4575 337.169C91.2283 336.555 91.8117 335.669 92.2075 334.513C92.6138 333.347 92.8221 331.956 92.8325 330.341H92.5825C92.0096 331.32 91.2075 332.091 90.1763 332.654C89.145 333.206 88.0096 333.477 86.77 333.466C85.4367 333.466 84.2231 333.154 83.1294 332.529C82.0356 331.904 81.171 331.034 80.5356 329.919C79.9002 328.794 79.5825 327.529 79.5825 326.123C79.5825 324.664 79.9263 323.347 80.6138 322.169C81.3117 320.982 82.2856 320.055 83.5356 319.388C84.796 318.711 86.2388 318.373 87.8638 318.373ZM83.5513 325.966C83.5513 326.779 83.7335 327.524 84.0981 328.201C84.4731 328.867 84.9888 329.399 85.645 329.794C86.3117 330.18 87.0617 330.373 87.895 330.373C88.7075 330.373 89.4523 330.175 90.1294 329.779C90.8169 329.383 91.3533 328.852 91.7388 328.185C92.1346 327.518 92.3325 326.8 92.3325 326.029C92.3325 325.268 92.1398 324.555 91.7544 323.888C91.3794 323.211 90.8585 322.669 90.1919 322.263C89.5252 321.857 88.7804 321.654 87.9575 321.654C87.1242 321.654 86.3742 321.847 85.7075 322.232C85.0408 322.617 84.5148 323.138 84.1294 323.794C83.744 324.451 83.5513 325.175 83.5513 325.966Z" fill="#3E404C"/>
<path d="M191.735 317.685V340.31H187.641V321.654H187.516L182.235 325.029V321.31L187.829 317.685H191.735ZM203.979 340.623C198.541 340.623 195.291 336.404 195.291 328.998C195.291 321.623 198.541 317.373 203.979 317.373C209.385 317.373 212.666 321.623 212.666 328.998C212.666 336.404 209.416 340.623 203.979 340.623ZM203.979 337.216C206.823 337.216 208.573 334.435 208.573 328.998C208.573 323.591 206.791 320.748 203.979 320.748C201.166 320.748 199.385 323.591 199.385 328.998C199.385 334.435 201.135 337.216 203.979 337.216Z" fill="#3E404C"/>
<path d="M303.9 317.685V340.31H299.806V321.654H299.681L294.4 325.029V321.31L299.994 317.685H303.9ZM316.988 317.685V340.31H312.894V321.654H312.769L307.488 325.029V321.31L313.081 317.685H316.988Z" fill="#3E404C"/>
<path d="M410.893 317.685V340.31H406.799V321.654H406.674L401.393 325.029V321.31L406.987 317.685H410.893ZM414.793 340.31V337.373L422.793 329.654C425.074 327.373 426.262 326.029 426.262 324.123C426.262 322.029 424.606 320.685 422.387 320.685C420.043 320.685 418.543 322.154 418.574 324.435H414.699C414.668 320.154 417.887 317.373 422.418 317.373C427.043 317.373 430.168 320.123 430.168 323.935C430.168 326.498 428.918 328.56 424.481 332.748L420.449 336.748V336.904H430.512V340.31H414.793Z" fill="#3E404C"/>
<path d="M519.715 317.685V340.31H515.621V321.654H515.496L510.215 325.029V321.31L515.808 317.685H519.715ZM531.833 340.623C526.99 340.623 523.552 337.998 523.458 334.185H527.552C527.677 335.998 529.49 337.185 531.833 337.185C534.333 337.185 536.115 335.81 536.115 333.81C536.115 331.779 534.365 330.31 531.427 330.31H529.396V327.185H531.427C533.833 327.185 535.521 325.841 535.49 323.873C535.521 321.966 534.083 320.685 531.865 320.685C529.74 320.685 527.896 321.873 527.833 323.779H523.927C524.021 319.966 527.458 317.373 531.896 317.373C536.49 317.373 539.458 320.185 539.427 323.654C539.458 326.185 537.771 328.029 535.302 328.529V328.716C538.49 329.154 540.302 331.185 540.271 334.029C540.302 337.841 536.74 340.623 531.833 340.623Z" fill="#3E404C"/>
<path d="M628.786 317.685V340.31H624.692V321.654H624.567L619.286 325.029V321.31L624.88 317.685H628.786ZM632.28 336.091V332.841L642.061 317.685H647.123V332.748H650.092V336.091H647.123V340.31H643.248V336.091H632.28ZM636.436 332.748H643.311V322.31H643.061L636.436 332.591V332.748Z" fill="#3E404C"/>
<path d="M738.529 341.31H734.435V322.654H734.31L729.029 326.029V322.31L734.623 318.685H738.529V341.31ZM750.46 341.623C748.971 341.623 747.627 341.347 746.429 340.794C745.241 340.242 744.299 339.477 743.601 338.498C742.903 337.518 742.533 336.414 742.491 335.185H746.46C746.502 335.779 746.705 336.315 747.07 336.794C747.434 337.274 747.913 337.654 748.507 337.935C749.101 338.206 749.752 338.341 750.46 338.341C751.294 338.341 752.038 338.154 752.695 337.779C753.361 337.393 753.877 336.873 754.241 336.216C754.616 335.56 754.804 334.82 754.804 333.998C754.804 333.143 754.611 332.378 754.226 331.701C753.84 331.024 753.304 330.498 752.616 330.123C751.929 329.748 751.148 329.56 750.273 329.56C748.491 329.56 747.262 330.206 746.585 331.498H742.804L744.179 318.685H757.554V322.091H747.523L746.835 328.091H747.054C747.502 327.581 748.116 327.169 748.898 326.857C749.679 326.544 750.523 326.383 751.429 326.373C752.814 326.373 754.064 326.695 755.179 327.341C756.294 327.987 757.163 328.883 757.788 330.029C758.424 331.164 758.741 332.445 758.741 333.873C758.741 335.362 758.393 336.695 757.695 337.873C756.997 339.05 756.018 339.972 754.757 340.638C753.497 341.294 752.064 341.623 750.46 341.623Z" fill="#3E404C"/>
<rect x="39" y="373.31" width="754.03" height="62" rx="25" fill="#DCEAFE"/>
<path d="M82.5387 392.685V415.31H78.445V396.654H78.32L73.0387 400.029V396.31L78.6325 392.685H82.5387ZM94.9075 415.623C90.5012 415.591 86.0637 412.966 86.095 404.623C86.095 396.873 89.6262 392.373 95.1575 392.373C99.5325 392.373 102.532 395.123 103.032 398.779H99.0012C98.595 397.06 97.22 395.904 95.1575 395.904C91.8762 395.904 90.0325 398.81 90.0325 403.56H90.2512C91.4075 401.623 93.595 400.466 96.0637 400.466C100.126 400.466 103.251 403.529 103.251 407.81C103.251 412.31 99.9075 415.654 94.9075 415.623ZM94.9075 412.341C97.4387 412.341 99.3137 410.373 99.3137 407.904C99.3137 405.498 97.47 403.56 94.97 403.56C92.4387 403.56 90.5012 405.56 90.47 407.935C90.5012 410.31 92.345 412.341 94.9075 412.341Z" fill="#3E404C"/>
<path d="M192.876 392.685V415.31H188.782V396.654H188.657L183.376 400.029V396.31L188.969 392.685H192.876ZM197.619 415.31L207.432 396.248V396.091H196.057V392.685H211.651V396.154L201.838 415.31H197.619Z" fill="#3E404C"/>
<path d="M301.15 392.685V415.31H297.056V396.654H296.931L291.65 400.029V396.31L297.244 392.685H301.15ZM313.269 415.623C308.238 415.623 304.675 412.935 304.675 409.248C304.675 406.373 306.8 404.029 309.519 403.591V403.466C307.144 402.966 305.519 400.904 305.519 398.435C305.519 394.935 308.8 392.373 313.269 392.373C317.706 392.373 320.988 394.935 320.988 398.435C320.988 400.904 319.331 402.966 316.988 403.466V403.591C319.706 404.029 321.863 406.373 321.863 409.248C321.863 412.935 318.269 415.623 313.269 415.623ZM313.269 412.404C315.925 412.404 317.675 410.966 317.675 408.873C317.675 406.748 315.8 405.185 313.269 405.185C310.706 405.185 308.831 406.748 308.863 408.873C308.831 410.966 310.581 412.404 313.269 412.404ZM313.269 402.154C315.456 402.154 317.019 400.779 317.019 398.81C317.019 396.904 315.488 395.56 313.269 395.56C311.019 395.56 309.488 396.873 309.488 398.81C309.488 400.779 311.05 402.154 313.269 402.154Z" fill="#3E404C"/>
<path d="M410.409 392.685V415.31H406.315V396.654H406.19L400.909 400.029V396.31L406.503 392.685H410.409ZM422.34 392.373C426.778 392.404 431.153 395.029 431.184 403.31C431.184 411.123 427.653 415.623 422.09 415.623C417.715 415.623 414.715 412.904 414.215 409.154H418.246C418.653 410.935 420.028 412.091 422.09 412.091C425.371 412.091 427.215 409.185 427.246 404.341H426.996C425.84 406.31 423.684 407.466 421.184 407.466C417.153 407.466 414.028 404.404 413.996 400.123C413.996 395.685 417.309 392.341 422.34 392.373ZM422.371 395.654C419.84 395.654 417.934 397.623 417.965 400.029C417.965 402.466 419.778 404.373 422.309 404.373C424.809 404.373 426.778 402.341 426.746 399.998C426.746 397.685 424.903 395.654 422.371 395.654Z" fill="#3E404C"/>
<path d="M508.121 415.31V412.373L516.121 404.654C518.402 402.373 519.59 401.029 519.59 399.123C519.59 397.029 517.933 395.685 515.715 395.685C513.371 395.685 511.871 397.154 511.902 399.435H508.027C507.996 395.154 511.215 392.373 515.746 392.373C520.371 392.373 523.496 395.123 523.496 398.935C523.496 401.498 522.246 403.56 517.808 407.748L513.777 411.748V411.904H523.84V415.31H508.121ZM534.146 415.623C528.708 415.623 525.458 411.404 525.458 403.998C525.458 396.623 528.708 392.373 534.146 392.373C539.552 392.373 542.833 396.623 542.833 403.998C542.833 411.404 539.583 415.623 534.146 415.623ZM534.146 412.216C536.99 412.216 538.74 409.435 538.74 403.998C538.74 398.591 536.958 395.748 534.146 395.748C531.333 395.748 529.552 398.591 529.552 403.998C529.552 409.435 531.302 412.216 534.146 412.216Z" fill="#3E404C"/>
<path d="M620.286 415.31V412.373L628.286 404.654C630.567 402.373 631.755 401.029 631.755 399.123C631.755 397.029 630.098 395.685 627.88 395.685C625.536 395.685 624.036 397.154 624.067 399.435H620.192C620.161 395.154 623.38 392.373 627.911 392.373C632.536 392.373 635.661 395.123 635.661 398.935C635.661 401.498 634.411 403.56 629.973 407.748L625.942 411.748V411.904H636.005V415.31H620.286ZM647.155 392.685V415.31H643.061V396.654H642.936L637.655 400.029V396.31L643.248 392.685H647.155Z" fill="#3E404C"/>
<path d="M727.279 415.31V412.373L735.279 404.654C737.56 402.373 738.748 401.029 738.748 399.123C738.748 397.029 737.091 395.685 734.873 395.685C732.529 395.685 731.029 397.154 731.06 399.435H727.185C727.154 395.154 730.373 392.373 734.904 392.373C739.529 392.373 742.654 395.123 742.654 398.935C742.654 401.498 741.404 403.56 736.966 407.748L732.935 411.748V411.904H742.998V415.31H727.279ZM744.96 415.31V412.373L752.96 404.654C755.241 402.373 756.429 401.029 756.429 399.123C756.429 397.029 754.773 395.685 752.554 395.685C750.21 395.685 748.71 397.154 748.741 399.435H744.866C744.835 395.154 748.054 392.373 752.585 392.373C757.21 392.373 760.335 395.123 760.335 398.935C760.335 401.498 759.085 403.56 754.648 407.748L750.616 411.748V411.904H760.679V415.31H744.96Z" fill="#3E404C"/>
<path d="M70.43 490.31V487.373L78.43 479.654C80.7113 477.373 81.8988 476.029 81.8988 474.123C81.8988 472.029 80.2425 470.685 78.0238 470.685C75.68 470.685 74.18 472.154 74.2113 474.435H70.3363C70.305 470.154 73.5238 467.373 78.055 467.373C82.68 467.373 85.805 470.123 85.805 473.935C85.805 476.498 84.555 478.56 80.1175 482.748L76.0863 486.748V486.904H86.1488V490.31H70.43ZM97.61 490.623C92.7663 490.623 89.3288 487.998 89.235 484.185H93.3288C93.4538 485.998 95.2663 487.185 97.61 487.185C100.11 487.185 101.891 485.81 101.891 483.81C101.891 481.779 100.141 480.31 97.2038 480.31H95.1725V477.185H97.2038C99.61 477.185 101.298 475.841 101.266 473.873C101.298 471.966 99.86 470.685 97.6413 470.685C95.5163 470.685 93.6725 471.873 93.61 473.779H89.7038C89.7975 469.966 93.235 467.373 97.6725 467.373C102.266 467.373 105.235 470.185 105.204 473.654C105.235 476.185 103.548 478.029 101.079 478.529V478.716C104.266 479.154 106.079 481.185 106.048 484.029C106.079 487.841 102.516 490.623 97.61 490.623Z" fill="#4FA4FF"/>
<path d="M180.391 490.31V487.373L188.391 479.654C190.673 477.373 191.86 476.029 191.86 474.123C191.86 472.029 190.204 470.685 187.985 470.685C185.641 470.685 184.141 472.154 184.173 474.435H180.298C180.266 470.154 183.485 467.373 188.016 467.373C192.641 467.373 195.766 470.123 195.766 473.935C195.766 476.498 194.516 478.56 190.079 482.748L186.048 486.748V486.904H196.11V490.31H180.391ZM197.166 486.091V482.841L206.948 467.685H212.01V482.748H214.979V486.091H212.01V490.31H208.135V486.091H197.166ZM201.323 482.748H208.198V472.31H207.948L201.323 482.591V482.748Z" fill="#3E404C"/>
<path d="M289.884 490.31V487.373L297.884 479.654C300.166 477.373 301.353 476.029 301.353 474.123C301.353 472.029 299.697 470.685 297.478 470.685C295.134 470.685 293.634 472.154 293.666 474.435H289.791C289.759 470.154 292.978 467.373 297.509 467.373C302.134 467.373 305.259 470.123 305.259 473.935C305.259 476.498 304.009 478.56 299.572 482.748L295.541 486.748V486.904H305.603V490.31H289.884ZM315.597 490.623C311.066 490.623 307.753 487.935 307.628 484.185H311.597C311.722 486.029 313.441 487.341 315.597 487.341C318.128 487.341 319.941 485.498 319.941 482.998C319.941 480.404 318.066 478.56 315.472 478.56C313.722 478.529 312.441 479.154 311.722 480.498H307.941L309.316 467.685H322.691V471.091H312.659L311.972 477.091H312.191C313.066 476.091 314.722 475.373 316.566 475.373C320.784 475.373 323.878 478.529 323.878 482.873C323.878 487.404 320.472 490.623 315.597 490.623Z" fill="#3E404C"/>
<path d="M398.924 490.31V487.373L406.924 479.654C409.206 477.373 410.393 476.029 410.393 474.123C410.393 472.029 408.737 470.685 406.518 470.685C404.174 470.685 402.674 472.154 402.706 474.435H398.831C398.799 470.154 402.018 467.373 406.549 467.373C411.174 467.373 414.299 470.123 414.299 473.935C414.299 476.498 413.049 478.56 408.612 482.748L404.581 486.748V486.904H414.643V490.31H398.924ZM425.074 490.623C420.668 490.591 416.231 487.966 416.262 479.623C416.262 471.873 419.793 467.373 425.324 467.373C429.699 467.373 432.699 470.123 433.199 473.779H429.168C428.762 472.06 427.387 470.904 425.324 470.904C422.043 470.904 420.199 473.81 420.199 478.56H420.418C421.574 476.623 423.762 475.466 426.231 475.466C430.293 475.466 433.418 478.529 433.418 482.81C433.418 487.31 430.074 490.654 425.074 490.623ZM425.074 487.341C427.606 487.341 429.481 485.373 429.481 482.904C429.481 480.498 427.637 478.56 425.137 478.56C422.606 478.56 420.668 480.56 420.637 482.935C420.668 485.31 422.512 487.341 425.074 487.341Z" fill="#3E404C"/>
<path d="M509.261 490.31V487.373L517.261 479.654C519.543 477.373 520.73 476.029 520.73 474.123C520.73 472.029 519.074 470.685 516.855 470.685C514.511 470.685 513.011 472.154 513.043 474.435H509.168C509.136 470.154 512.355 467.373 516.886 467.373C521.511 467.373 524.636 470.123 524.636 473.935C524.636 476.498 523.386 478.56 518.949 482.748L514.918 486.748V486.904H524.98V490.31H509.261ZM527.786 490.31L537.599 471.248V471.091H526.224V467.685H541.818V471.154L532.005 490.31H527.786Z" fill="#3E404C"/>
<path d="M617.536 490.31V487.373L625.536 479.654C627.817 477.373 629.005 476.029 629.005 474.123C629.005 472.029 627.348 470.685 625.13 470.685C622.786 470.685 621.286 472.154 621.317 474.435H617.442C617.411 470.154 620.63 467.373 625.161 467.373C629.786 467.373 632.911 470.123 632.911 473.935C632.911 476.498 631.661 478.56 627.223 482.748L623.192 486.748V486.904H633.255V490.31H617.536ZM643.436 490.623C638.405 490.623 634.842 487.935 634.842 484.248C634.842 481.373 636.967 479.029 639.686 478.591V478.466C637.311 477.966 635.686 475.904 635.686 473.435C635.686 469.935 638.967 467.373 643.436 467.373C647.873 467.373 651.155 469.935 651.155 473.435C651.155 475.904 649.498 477.966 647.155 478.466V478.591C649.873 479.029 652.03 481.373 652.03 484.248C652.03 487.935 648.436 490.623 643.436 490.623ZM643.436 487.404C646.092 487.404 647.842 485.966 647.842 483.873C647.842 481.748 645.967 480.185 643.436 480.185C640.873 480.185 638.998 481.748 639.03 483.873C638.998 485.966 640.748 487.404 643.436 487.404ZM643.436 477.154C645.623 477.154 647.186 475.779 647.186 473.81C647.186 471.904 645.655 470.56 643.436 470.56C641.186 470.56 639.655 471.873 639.655 473.81C639.655 475.779 641.217 477.154 643.436 477.154Z" fill="#3E404C"/>
<path d="M726.795 490.31V487.373L734.795 479.654C737.076 477.373 738.263 476.029 738.263 474.123C738.263 472.029 736.607 470.685 734.388 470.685C732.045 470.685 730.545 472.154 730.576 474.435H726.701C726.67 470.154 729.888 467.373 734.42 467.373C739.045 467.373 742.17 470.123 742.17 473.935C742.17 476.498 740.92 478.56 736.482 482.748L732.451 486.748V486.904H742.513V490.31H726.795ZM752.507 467.373C756.945 467.404 761.32 470.029 761.351 478.31C761.351 486.123 757.82 490.623 752.257 490.623C747.882 490.623 744.882 487.904 744.382 484.154H748.413C748.82 485.935 750.195 487.091 752.257 487.091C755.538 487.091 757.382 484.185 757.413 479.341H757.163C756.007 481.31 753.851 482.466 751.351 482.466C747.32 482.466 744.195 479.404 744.163 475.123C744.163 470.685 747.476 467.341 752.507 467.373ZM752.538 470.654C750.007 470.654 748.101 472.623 748.132 475.029C748.132 477.466 749.945 479.373 752.476 479.373C754.976 479.373 756.945 477.341 756.913 474.998C756.913 472.685 755.07 470.654 752.538 470.654Z" fill="#3E404C"/>
<path d="M73.3062 65.3125C68.4625 65.3125 65.025 62.6875 64.9312 58.875H69.025C69.15 60.6875 70.9625 61.875 73.3062 61.875C75.8062 61.875 77.5875 60.5 77.5875 58.5C77.5875 56.4688 75.8375 55 72.9 55H70.8687V51.875H72.9C75.3062 51.875 76.9937 50.5312 76.9625 48.5625C76.9937 46.6562 75.5562 45.375 73.3375 45.375C71.2125 45.375 69.3687 46.5625 69.3062 48.4688H65.4C65.4937 44.6562 68.9312 42.0625 73.3687 42.0625C77.9625 42.0625 80.9312 44.875 80.9 48.3438C80.9312 50.875 79.2437 52.7188 76.775 53.2188V53.4062C79.9625 53.8438 81.775 55.875 81.7437 58.7188C81.775 62.5312 78.2125 65.3125 73.3062 65.3125ZM107.756 39.5625V56.0312H104.256V54.875H98.975V52.75H104.256V39.5625H107.756ZM84.0375 49.75C89.5063 49.75 96.3188 49.6875 102.381 49.0938L102.569 51.2812C99.9906 51.6406 97.3344 51.8594 94.725 51.9688V56.0625H91.2875V52.125C88.8656 52.1875 86.5375 52.2031 84.4125 52.1875L84.0375 49.75ZM107.756 56.9062V63.25H91.6938V65.0625H108.506V67.5312H88.2875V60.9688H104.319V59.2812H88.1625V56.9062H107.756ZM93.1625 40C97.35 40 100.225 41.6875 100.225 44.25C100.225 46.875 97.35 48.4688 93.1625 48.4688C88.8813 48.4688 86.0375 46.875 86.0375 44.25C86.0375 41.6875 88.8813 40 93.1625 40ZM93.1625 42.3125C90.7875 42.3125 89.3188 43.0625 89.35 44.25C89.3188 45.4375 90.7875 46.1562 93.1625 46.1562C95.475 46.1562 96.975 45.4375 96.975 44.25C96.975 43.0625 95.475 42.3125 93.1625 42.3125Z" fill="#525463"/>
</svg>
