<svg width="36" height="36" viewBox="0 0 36 36" fill="none" xmlns="http://www.w3.org/2000/svg">
<path fill-rule="evenodd" clip-rule="evenodd" d="M18 2.25C9.30338 2.25 2.25 9.30206 2.25 18C2.25 24.9589 6.76237 30.8625 13.0217 32.9454C13.8079 33.0911 14.0625 32.6029 14.0625 32.1881V29.256C9.68138 30.2089 8.76919 27.3975 8.76919 27.3975C8.05256 25.5771 7.01962 25.0928 7.01962 25.0928C5.59031 24.1149 7.12856 24.1359 7.12856 24.1359C8.71013 24.2462 9.54225 25.7595 9.54225 25.7595C10.9466 28.1666 13.2264 27.471 14.1255 27.0681C14.2659 26.0509 14.6741 25.3553 15.1256 24.9628C11.6278 24.5625 7.95019 23.2119 7.95019 17.1784C7.95019 15.4577 8.56575 14.0533 9.57244 12.9508C9.40969 12.5531 8.87025 10.9506 9.726 8.78231C9.726 8.78231 11.049 8.35969 14.0586 10.3967C15.3146 10.0476 16.6613 9.873 18 9.86644C19.3388 9.873 20.6867 10.0476 21.9454 10.3967C24.9523 8.35969 26.2727 8.78231 26.2727 8.78231C27.1298 10.9519 26.5903 12.5544 26.4276 12.9508C27.4382 14.0533 28.0485 15.459 28.0485 17.1784C28.0485 23.2277 24.3643 24.5599 20.8573 24.9497C21.4217 25.4379 21.9375 26.3961 21.9375 27.8661V32.1881C21.9375 32.6068 22.1895 33.099 22.9888 32.9441C29.2429 30.8586 33.75 24.9562 33.75 18C33.75 9.30206 26.6979 2.25 18 2.25Z" fill="#858899"/>
</svg>
