<svg width="150" height="16" viewBox="0 0 150 16" fill="none" xmlns="http://www.w3.org/2000/svg">
<g id="BI">
<g id="Group">
<path id="Vector" d="M17.6534 5.15112C14.6503 5.15112 12.2168 7.57877 12.2168 10.5747C12.2168 13.5707 14.6503 15.9983 17.6534 15.9983C20.6565 15.9983 23.09 13.5707 23.09 10.5747C23.09 7.57877 20.6565 5.15112 17.6534 5.15112ZM17.6534 13.8301C15.8515 13.8301 14.3902 12.3723 14.3902 10.5747C14.3902 8.77715 15.8515 7.31933 17.6534 7.31933C19.4553 7.31933 20.9166 8.77715 20.9166 10.5747C20.9166 12.3723 19.4553 13.8301 17.6534 13.8301Z" fill="white"/>
<path id="Vector_2" d="M29.8892 5.15112C26.8861 5.15112 24.4526 7.57877 24.4526 10.5747C24.4526 13.5707 26.8861 15.9983 29.8892 15.9983C32.8924 15.9983 35.3258 13.5707 35.3258 10.5747C35.3258 7.57877 32.8924 5.15112 29.8892 5.15112ZM29.8892 13.8301C28.0874 13.8301 26.626 12.3723 26.626 10.5747C26.626 8.77715 28.0874 7.31933 29.8892 7.31933C31.6911 7.31933 33.1524 8.77715 33.1524 10.5747C33.1524 12.3723 31.6911 13.8301 29.8892 13.8301Z" fill="white"/>
<path id="Vector_3" d="M84.5909 5.15112C81.5878 5.15112 79.1543 7.57877 79.1543 10.5747C79.1543 13.5707 81.5878 15.9983 84.5909 15.9983C87.594 15.9983 90.0275 13.5707 90.0275 10.5747C90.0275 7.57877 87.594 5.15112 84.5909 5.15112ZM84.5909 13.8301C82.789 13.8301 81.3277 12.3723 81.3277 10.5747C81.3277 8.77715 82.789 7.31933 84.5909 7.31933C86.3928 7.31933 87.8541 8.77715 87.8541 10.5747C87.8541 12.3723 86.3928 13.8301 84.5909 13.8301Z" fill="white"/>
<path id="Vector_4" d="M36.9561 10.3059V15.7295H39.1315V10.3059C39.1315 8.80895 40.3493 7.59409 41.8498 7.59409H42.9375V5.42383H41.8498C39.148 5.42383 36.9561 7.60851 36.9561 10.3059Z" fill="white"/>
<path id="Vector_5" d="M54.9011 5.42383C53.6008 5.42383 52.4367 5.99213 51.6379 6.89401C50.8412 5.99213 49.6751 5.42383 48.3747 5.42383C45.9722 5.42383 44.0259 7.36759 44.0259 9.7623V15.7295H46.2013V9.7623C46.2013 8.56392 47.1756 7.59203 48.3768 7.59203C49.5781 7.59203 50.5523 8.56392 50.5523 9.7623V15.7295H52.7277V9.7623C52.7277 8.56392 53.7019 7.59203 54.9032 7.59203C56.1044 7.59203 57.0787 8.56392 57.0787 9.7623V15.7295H59.2541V9.7623C59.2541 7.36554 57.3057 5.42383 54.9053 5.42383H54.9011Z" fill="white"/>
<path id="Vector_6" d="M98.7859 6.82606C98.7198 6.75605 98.6538 6.68604 98.5836 6.62015C98.5464 6.58515 98.5072 6.55014 98.468 6.51514C98.3978 6.45337 98.3256 6.39365 98.2513 6.336C98.2079 6.30305 98.1646 6.27011 98.1213 6.23922C98.047 6.18569 97.9706 6.13627 97.8921 6.08685C97.8447 6.05802 97.7972 6.02714 97.7477 6.00037C97.6692 5.95507 97.5887 5.91389 97.5082 5.87477C97.4566 5.85006 97.405 5.82329 97.3534 5.80064C97.2709 5.76358 97.1863 5.73063 97.0996 5.69974C97.0459 5.67915 96.9922 5.65856 96.9365 5.64003C96.8478 5.6112 96.7569 5.58855 96.6661 5.56385C96.6104 5.54943 96.5567 5.53296 96.501 5.5206C96.4019 5.50001 96.2987 5.4856 96.1976 5.47119C96.1481 5.46501 96.1006 5.45471 96.0511 5.44854C95.8983 5.43206 95.7456 5.42383 95.5887 5.42383C95.4319 5.42383 95.2791 5.43206 95.1264 5.44854C95.0768 5.45471 95.0294 5.46295 94.9798 5.47119C94.8787 5.4856 94.7755 5.50001 94.6764 5.5206C94.6207 5.53296 94.567 5.54943 94.5113 5.56385C94.4205 5.5865 94.3297 5.6112 94.2409 5.64003C94.1852 5.65856 94.1315 5.67915 94.0779 5.69974C93.9932 5.73063 93.9066 5.76358 93.824 5.80064C93.7724 5.82329 93.7208 5.85006 93.6692 5.87477C93.5887 5.91389 93.5082 5.95713 93.4298 6.00037C93.3802 6.0292 93.3328 6.05802 93.2853 6.08685C93.2069 6.13627 93.1305 6.18569 93.0562 6.23922C93.0128 6.27011 92.9695 6.30305 92.9261 6.336C92.8518 6.39365 92.7796 6.45337 92.7094 6.51514C92.6702 6.55014 92.631 6.58515 92.5938 6.62015C92.5237 6.68604 92.4576 6.75605 92.3916 6.82606C91.6774 7.60027 91.2378 8.62981 91.2378 9.76436V15.7316H93.4133V9.76436C93.4133 8.56598 94.3875 7.59409 95.5887 7.59409C96.79 7.59409 97.7642 8.56598 97.7642 9.76436V15.7316H99.9396V9.76436C99.9396 8.62981 99.5 7.60027 98.7859 6.82606Z" fill="white"/>
<path id="Vector_7" d="M73.7284 4.34877C73.0122 4.34877 72.3104 4.53202 71.6891 4.87589V0H69.5137V15.7313H71.6891V8.5534C71.6891 7.4312 72.6035 6.51903 73.7284 6.51903C74.8533 6.51903 75.7676 7.4312 75.7676 8.5534V15.7313H77.9431V8.5534C77.9431 6.23488 76.0524 4.34877 73.7284 4.34877Z" fill="white"/>
<path id="Vector_8" d="M65.3567 0H63.1833V4.61027H60.5991V6.78053H63.1833V15.7293H65.3567V6.78053H67.9408V4.61027H65.3567V0Z" fill="white"/>
<path id="Vector_9" d="M10.8711 6.23903C10.8711 3.24308 8.43766 0.81543 5.43453 0.81543C2.4314 0.81543 0.148608 3.09894 0.00619202 5.96724C0.00206401 6.05783 0 6.14843 0 6.23903C0 6.32963 0.00206401 6.42023 0.00619202 6.51083C0.148608 9.30499 2.46442 11.5267 5.29831 11.5267C6.59037 11.5267 7.77511 11.0655 8.69566 10.2975V11.119C8.67502 11.4588 8.57388 12.3339 7.89895 13.036C6.93713 14.0367 5.44279 14.0203 4.46651 13.6846C3.44276 13.3325 2.86897 12.5913 2.64812 12.2701L0.625394 13.106C1.29207 14.3641 2.43966 15.3298 3.82667 15.7581C3.96289 15.7993 4.58209 15.9908 5.43453 15.999C6.03516 16.0052 7.97326 16.0258 9.43664 14.57C10.7638 13.2502 10.8587 11.5576 10.8691 11.119V6.23903H10.8711ZM5.43247 9.49237C3.63059 9.49237 2.17133 8.0366 2.17133 6.23903C2.17133 4.44146 3.63059 2.98569 5.43247 2.98569C7.23434 2.98569 8.6936 4.44146 8.6936 6.23903C8.6936 8.0366 7.23434 9.49237 5.43247 9.49237Z" fill="white"/>
</g>
<path id="Vector_10" d="M141.913 0H110.087C105.621 0 102 3.5816 102 8C102 12.4184 105.621 16 110.087 16H141.913C146.379 16 150 12.4184 150 8C150 3.5816 146.379 0 141.913 0ZM117.598 9.06297C117.598 11.3554 115.915 12.9859 113.454 12.9859C110.993 12.9859 109.31 11.4623 109.31 9.06297V3.17862H111.078V8.93755C111.078 10.2925 111.92 11.3781 113.454 11.3781C114.988 11.3781 115.821 10.3048 115.821 8.94372V3.17862H117.598V9.06297ZM128.065 12.7741H126.546L121.26 6.06322V12.7741H119.483V3.17862H121.009L126.294 9.89566V3.17862H128.063V12.7761L128.065 12.7741ZM131.904 12.7741H130.127V3.17862H131.904V12.7761V12.7741ZM138.887 12.7741H137.268L133.203 3.17039H135.079L138.068 10.4816L138.097 10.4672L141.08 3.17039H142.963L138.889 12.7741H138.887Z" fill="white"/>
</g>
</svg>
