<svg width="159" height="115" viewBox="0 0 159 115" fill="none" xmlns="http://www.w3.org/2000/svg">
<g id="Group 1000004242">
<path id="Vector" d="M50.3652 95.0228C50.3652 105.597 58.9191 114.168 69.4717 114.168H139.062C149.615 114.168 158.169 105.597 158.169 95.0228V38.2549H50.3652V95.0145V95.0228Z" fill="#E8E8EE"/>
<path id="Vector_2" d="M139.062 12.041H69.4717C58.9191 12.041 50.3652 20.6122 50.3652 31.1862V39.2547H158.169V31.1862C158.169 20.6122 149.615 12.041 139.062 12.041Z" fill="#CDCED6"/>
<path id="Vector_3" d="M118.029 58.9376C118.029 59.688 117.856 60.3784 117.504 61.0163C117.151 61.6541 116.731 62.1494 116.251 62.5021C115.156 62.0218 113.978 61.6091 112.725 61.2789C111.472 60.9487 110.227 60.7836 109.004 60.7836C105.973 60.7836 103.519 61.7366 101.651 63.6502C99.7832 65.5637 98.6953 68.4527 98.3877 72.3248C99.2655 71.5744 100.511 70.8315 102.109 70.0811C103.714 69.3307 105.568 68.963 107.683 68.963C109.664 68.963 111.464 69.2482 113.092 69.8185C114.72 70.3888 116.123 71.2367 117.309 72.3548C118.494 73.4729 119.409 74.8687 120.047 76.5421C120.685 78.2155 121 80.129 121 82.2827C121 84.2637 120.67 86.0872 120.01 87.7531C119.349 89.4265 118.382 90.8672 117.106 92.0754C115.831 93.2835 114.27 94.2441 112.425 94.9419C110.579 95.6473 108.471 96 106.093 96C103.714 96 101.479 95.5948 99.4981 94.7768C97.5174 93.9589 95.8294 92.7357 94.4189 91.0849C93.0085 89.434 91.9206 87.3629 91.1554 84.8565C90.3826 82.3502 90 79.4311 90 76.0843C90 72.2198 90.4727 68.888 91.418 66.0965C92.3633 63.305 93.6612 61.0088 95.3042 59.2078C96.9547 57.4068 98.8754 56.0861 101.074 55.2532C103.272 54.4202 105.62 54 108.126 54C111.067 54 113.453 54.4202 115.276 55.2532C117.099 56.0861 118.014 57.3168 118.014 58.9452L118.029 58.9376ZM106.16 89.2764C108.141 89.2764 109.709 88.6536 110.872 87.4004C112.035 86.1472 112.62 84.4213 112.62 82.2226C112.62 80.0239 112.027 78.3656 110.842 77.2475C109.656 76.1294 108.073 75.5666 106.093 75.5666C104.51 75.5666 103.047 75.9042 101.711 76.5871C100.368 77.27 99.303 78.1179 98.5152 79.1235L98.6503 79.7838C98.6503 82.8154 99.318 85.1567 100.661 86.8076C102.004 88.4585 103.834 89.2839 106.168 89.2839L106.16 89.2764Z" fill="#A9ABB8"/>
<path id="Vector_4" d="M83.5196 6.90655C83.5196 3.55196 80.8075 0.83252 77.4619 0.83252C74.1164 0.83252 71.4043 3.55196 71.4043 6.90655V18.9145C71.4043 22.2691 74.1164 24.9885 77.4619 24.9885C80.8075 24.9885 83.5196 22.2691 83.5196 18.9145V6.90655Z" fill="#A9ABB8"/>
<path id="Vector_5" d="M111.074 6.90655C111.074 3.55196 108.362 0.83252 105.017 0.83252C101.671 0.83252 98.959 3.55196 98.959 6.90655V18.9145C98.959 22.2691 101.671 24.9885 105.017 24.9885C108.362 24.9885 111.074 22.2691 111.074 18.9145V6.90655Z" fill="#A9ABB8"/>
<path id="Vector_6" d="M138.635 6.90655C138.635 3.55196 135.923 0.83252 132.577 0.83252C129.232 0.83252 126.52 3.55196 126.52 6.90655V18.9145C126.52 22.2691 129.232 24.9885 132.577 24.9885C135.923 24.9885 138.635 22.2691 138.635 18.9145V6.90655Z" fill="#A9ABB8"/>
<path id="Vector_7" d="M38.6106 101.007C37.5826 104.861 39.1661 109.246 42.8321 111.111C43.789 111.612 44.8503 111.92 45.9607 111.978C46.0887 111.993 46.2186 112.001 46.3498 112C49.2136 111.978 51.7068 110.319 53.0782 107.885L53.0943 107.857L67.444 81.7265C68.4744 79.9884 69 77.9815 69 75.9569C69 70.4441 64.9838 65.3335 59.2639 65.3335H57.6749L60.1489 57.8672L60.1504 57.8624C60.4978 56.8081 60.6691 55.7082 60.6691 54.6139C60.6691 49.6769 57.0614 45.0002 51.8364 45.0002H43.5505C38.9872 44.9684 35.3194 48.322 34.1819 52.6463L27.3917 78.0472L27.3917 78.0472L27.389 78.0575C27.1357 79.0185 27 80.02 27 81.0433L27 81.0513C27.0146 86.5476 31.0299 91.6541 36.7472 91.6541H41.1059L38.6107 101.007L38.6106 101.007Z" fill="#FFD54F" stroke="#F7F7FA" stroke-width="6" stroke-linejoin="round"/>
<path id="Vector_8" d="M38.7028 34.2113C38.3433 34.4061 37.9405 34.508 37.5225 34.5171C36.1294 34.5733 34.8275 33.5237 34.4863 32.0621L32.8126 24.892L28.7763 27.0799C26.957 28.0661 24.6078 27.2425 23.5188 25.2465C23.3236 24.8864 23.1806 24.5056 23.0877 24.1133L19.8548 10.2314C19.4358 8.47029 20.1519 6.72298 21.6127 5.94663L25.6653 3.74989C27.2395 2.89658 29.2787 3.61634 30.2191 5.35116C30.4209 5.72334 30.5627 6.12799 30.6348 6.54712L31.7298 12.9746L34.535 11.454C36.3543 10.4679 38.7036 11.2914 39.7904 13.2964C40.1841 14.0227 40.372 14.8373 40.327 15.6384L40.0544 31.8942C40.0265 32.8957 39.5144 33.7713 38.7006 34.2202L38.7028 34.2113Z" fill="#FFD54F"/>
<path id="Vector_9" d="M25.8141 48.7039C25.644 48.977 25.408 49.2034 25.1256 49.3722C24.1944 49.9524 22.8956 49.7408 22.0937 48.8736L18.1601 44.6195L16.2498 47.686C15.3888 49.0683 13.4613 49.4186 11.94 48.4767C11.6664 48.3062 11.4205 48.1013 11.2044 47.869L3.59362 39.6298C2.622 38.588 2.43228 37.1141 3.12971 36.0148L5.04771 32.9359C5.79274 31.7399 7.46774 31.4391 8.78579 32.2602C9.06855 32.4363 9.32296 32.658 9.53533 32.9166L12.7843 36.8878L14.1119 34.7566C14.973 33.3743 16.9004 33.024 18.4237 33.9729C18.9755 34.3167 19.4209 34.8009 19.7017 35.3664L25.8376 46.5931C26.208 47.2891 26.1983 48.0873 25.8161 48.7109L25.8141 48.7039Z" fill="#FFE082"/>
</g>
</svg>
