<svg width="360" height="155" viewBox="0 0 360 155" fill="none" xmlns="http://www.w3.org/2000/svg">
<path d="M279.325 146.494H226.568C224.917 146.494 223.578 147.971 223.578 149.794V149.809C223.578 151.632 224.917 153.11 226.568 153.11H279.325C280.976 153.11 282.315 151.632 282.315 149.809V149.794C282.315 147.971 280.976 146.494 279.325 146.494Z" fill="#A9ABB8"/>
<g clip-path="url(#clip0_1547_47451)">
<path d="M217.681 107.338C230.389 113.37 243.081 119.401 255.789 125.448C240.511 126.599 225.247 127.75 209.969 128.915L196.604 142.246C191.594 147.244 184.817 150.056 177.733 150.07L55.8722 150.303C45.8523 150.318 37.3514 142.975 35.9492 133.068C34.7807 124.661 33.5976 116.269 32.4145 107.877C30.6909 95.7258 40.2434 84.9006 52.542 85.0608L190.338 86.8383C202.505 86.9986 213.723 94.7787 217.681 107.323V107.338Z" fill="#97BFFC"/>
</g>
<path d="M320.583 153.096H264.951C261.922 153.096 259.787 150.106 260.765 147.24L272.456 113.169C273.957 108.788 278.074 105.854 282.701 105.854H339.09C342.381 105.854 344.694 109.091 343.634 112.219L332.535 144.581C330.786 149.693 325.98 153.11 320.583 153.11V153.096Z" fill="#CDCED6"/>
<path d="M265.263 103.018C267.856 91.2116 270.45 79.4188 273.043 67.6124C270.955 52.4658 268.866 37.3192 266.778 22.1726C265.358 11.9203 273.821 2.99053 284.155 3.83579C303.62 5.43089 323.085 7.02599 342.564 8.62108C350.904 9.30275 357.279 16.3239 357.156 24.6811C357.006 34.4426 356.855 44.204 356.719 53.9791C356.61 61.6546 351.013 68.1441 343.424 69.3983C325.788 72.3159 308.152 75.2334 290.502 78.1646C282.093 86.4536 273.671 94.729 265.263 103.018Z" fill="#DCEAFE"/>
<path d="M258.617 116.25C243.419 102.916 228.234 89.5821 213.036 76.2483C199.669 73.587 186.288 70.9257 172.92 68.2643C165.941 66.8723 160.943 60.7444 161.054 53.6749C161.233 42.552 161.398 31.4427 161.577 20.3198C161.701 12.527 167.964 6.19444 175.825 5.90783L235.654 3.79243C245.58 3.43759 254.019 10.8893 254.831 20.702C255.905 33.7356 256.979 46.7692 258.053 59.7891C258.314 62.9008 257.598 66.0125 256.029 68.7147L247.617 83.154C251.293 94.1814 254.955 105.209 258.631 116.236L258.617 116.25Z" fill="#DCEAFE"/>
<path d="M77.7933 110.255C73.4553 110.255 69.9243 113.786 69.9243 118.124C69.9243 122.462 73.4553 125.993 77.7933 125.993C82.1313 125.993 85.6623 122.462 85.6623 118.124C85.6623 113.786 82.1313 110.255 77.7933 110.255ZM77.7933 122.865C75.1703 122.865 73.0517 120.747 73.0517 118.124C73.0517 115.501 75.1703 113.382 77.7933 113.382C80.4163 113.382 82.5349 115.501 82.5349 118.124C82.5349 120.747 80.4163 122.865 77.7933 122.865Z" fill="white"/>
<path d="M95.4481 110.255C91.1101 110.255 87.5791 113.786 87.5791 118.124C87.5791 122.462 91.1101 125.993 95.4481 125.993C99.7861 125.993 103.317 122.462 103.317 118.124C103.317 113.786 99.7861 110.255 95.4481 110.255ZM95.4481 122.865C92.8251 122.865 90.7065 120.747 90.7065 118.124C90.7065 115.501 92.8251 113.382 95.4481 113.382C98.0711 113.382 100.19 115.501 100.19 118.124C100.19 120.747 98.0711 122.865 95.4481 122.865Z" fill="white"/>
<path d="M112.7 110.658C108.765 110.658 105.638 113.786 105.638 117.72V125.589H108.765V117.72C108.765 115.602 110.48 113.786 112.7 113.786H114.314V110.658H112.7Z" fill="white"/>
<path d="M137.819 116.913C137.819 113.483 134.995 110.658 131.565 110.658C129.648 110.658 128.034 111.466 126.823 112.777C125.713 111.466 123.998 110.658 122.082 110.658C118.651 110.658 115.827 113.483 115.827 116.913V125.589H118.954V116.913C118.954 115.198 120.366 113.786 122.082 113.786C123.797 113.786 125.209 115.198 125.209 116.913V125.589H128.336V116.913C128.336 115.198 129.749 113.786 131.464 113.786C133.179 113.786 134.591 115.198 134.591 116.913V125.589H137.719L137.819 116.913Z" fill="white"/>
<path d="M157.391 117.216C157.391 116.913 157.29 116.611 157.19 116.207C157.089 115.904 156.988 115.602 156.887 115.299C155.475 111.667 151.54 109.549 147.706 110.557C143.873 111.566 141.351 115.198 141.855 119.133C141.855 119.435 141.956 119.738 142.057 120.141C142.158 120.444 142.259 120.747 142.36 121.049C143.772 124.681 147.706 126.8 151.54 125.791C154.768 124.984 156.988 122.26 157.391 119.133H155.374C154.97 121.352 153.356 123.269 151.036 123.874C148.211 124.58 145.386 123.067 144.175 120.545L155.475 117.72L157.391 117.216ZM143.671 118.527C143.469 115.803 145.285 113.08 148.11 112.373C150.935 111.667 153.759 113.18 154.97 115.703L143.671 118.527Z" fill="white"/>
<path d="M173.028 104V112.979C171.616 111.365 169.497 110.356 167.177 110.356C162.839 110.356 159.308 113.887 159.308 118.225C159.308 122.563 162.839 126.094 167.177 126.094C171.515 126.094 175.046 122.563 175.046 118.225V104H173.028ZM167.177 123.975C163.948 123.975 161.325 121.352 161.325 118.124C161.325 114.896 163.948 112.273 167.177 112.273C170.405 112.273 173.028 114.896 173.028 118.124C173.028 121.352 170.405 123.975 167.177 123.975Z" fill="white"/>
<path d="M189.472 110.255V118.931C189.472 121.756 187.152 124.076 184.327 124.076C181.502 124.076 179.182 121.756 179.182 118.931V110.255H177.366V118.931C177.366 120.848 178.072 122.563 179.283 123.773C180.595 125.085 182.41 125.993 184.428 125.993C186.446 125.993 188.262 125.186 189.573 123.773C190.784 122.462 191.49 120.747 191.49 118.931V110.255H189.472Z" fill="white"/>
<path d="M68.0075 118.124C68.0075 113.786 64.4766 110.255 60.1385 110.255C55.9014 110.255 52.4713 113.584 52.2695 117.72C52.2695 117.821 52.2695 118.023 52.2695 118.124C52.2695 118.225 52.2695 118.427 52.2695 118.527C52.4713 122.563 55.8005 125.791 59.9368 125.791C61.7527 125.791 63.4677 125.085 64.8801 123.975V125.186C64.8801 125.69 64.6783 126.901 63.7704 127.91C62.358 129.322 60.2394 129.322 58.827 128.818C57.3138 128.313 56.5067 127.203 56.204 126.8L53.2784 128.011C54.2872 129.826 55.9014 131.239 57.9191 131.844C58.02 131.945 58.9279 132.248 60.1385 132.248C61.0465 132.248 63.7704 132.248 65.8889 130.129C67.8058 128.212 67.9066 125.791 68.0075 125.186V118.124ZM60.1385 122.865C57.5155 122.865 55.397 120.747 55.397 118.124C55.397 115.501 57.5155 113.382 60.1385 113.382C62.7615 113.382 64.8801 115.501 64.8801 118.124C64.7792 120.747 62.7615 122.865 60.1385 122.865Z" fill="white"/>
<path d="M322.26 34.1648V30.9351H337.742V34.1648H331.946V49.7927H328.056V34.1648H322.26Z" fill="#97BFFC"/>
<path d="M312.573 49.7927H305.915V30.9351H312.651C318.343 30.9351 321.815 34.4774 321.815 40.3378C321.815 46.2504 318.343 49.7927 312.573 49.7927ZM309.831 46.4327H312.416C316.019 46.4327 317.899 44.5574 317.899 40.3378C317.899 36.1444 316.019 34.2951 312.442 34.2951H309.831V46.4327Z" fill="#97BFFC"/>
<path d="M289.023 49.7927V30.9351H292.94V39.296H293.201L300.067 30.9351H304.793L297.744 39.3741L304.871 49.7927H300.172L294.924 42.0048L292.94 44.4011V49.7927H289.023Z" fill="#97BFFC"/>
<path d="M231.307 37.4987C230.993 35.415 229.375 34.1387 227.182 34.1387C224.231 34.1387 222.299 36.4048 222.299 40.3639C222.299 44.4271 224.257 46.589 227.155 46.589C229.322 46.589 230.915 45.3908 231.307 43.3592L235.275 43.3853C234.831 46.8755 231.907 50.0532 227.103 50.0532C222.038 50.0532 218.305 46.5108 218.305 40.3639C218.305 34.2169 222.117 30.6746 227.103 30.6746C231.463 30.6746 234.753 33.175 235.275 37.4987H231.307Z" fill="#97BFFC"/>
<path d="M207.416 49.7927H200.759V30.9351H207.495C213.186 30.9351 216.659 34.4774 216.659 40.3378C216.659 46.2504 213.186 49.7927 207.416 49.7927ZM204.675 46.4327H207.26C210.863 46.4327 212.743 44.5574 212.743 40.3378C212.743 36.1444 210.863 34.2951 207.286 34.2951H204.675V46.4327Z" fill="#97BFFC"/>
<path d="M183.867 49.7927V30.9351H187.783V39.296H188.045L194.911 30.9351H199.637L192.587 39.3741L199.715 49.7927H195.015L189.768 42.0048L187.783 44.4011V49.7927H183.867Z" fill="#97BFFC"/>
<g clip-path="url(#clip1_1547_47451)">
<path d="M70.2848 72.7574H11.2851C6.62227 72.7574 2.8418 69.0112 2.8418 64.3906V46.0797C2.8418 41.4591 6.62227 37.7129 11.2851 37.7129H63.1477C66.6341 37.7129 69.7657 39.8389 71.0201 43.0622C73.3991 49.1658 75.7781 55.2694 78.1658 61.3731C80.3026 66.8509 76.2193 72.7574 70.2934 72.7574H70.2848Z" fill="#E8E8EE"/>
<path d="M72.7332 60.2585C86.7131 65.6935 100.693 71.1199 114.673 76.5549C97.7691 74.9262 80.8651 73.2974 63.9697 71.6686C66.8938 67.8624 69.8178 64.0647 72.7418 60.2585H72.7332Z" fill="#E8E8EE"/>
<path d="M137.788 51.7288C128.558 53.2204 119.327 54.7206 110.096 56.2122C104.231 57.1638 98.3571 54.5406 95.1995 49.5514C91.3758 43.5163 87.5607 37.4898 83.737 31.4548C80.7178 26.6884 84.1263 20.4819 89.81 20.4133L136.214 19.8475C140.219 19.7961 143.507 22.9679 143.576 26.9285C143.68 32.7835 143.783 38.63 143.887 44.485C143.948 48.0683 141.352 51.1459 137.788 51.7288Z" fill="#E8E8EE"/>
<path d="M118.237 49.3628L144 72.7573L136.05 45.5652L118.237 49.3628Z" fill="#E8E8EE"/>
</g>
<defs>
<clipPath id="clip0_1547_47451">
<rect width="223.579" height="65.2134" fill="white" transform="translate(32.21 85.061)"/>
</clipPath>
<clipPath id="clip1_1547_47451">
<rect width="141.158" height="56.7073" fill="white" transform="translate(2.8418 19.8477)"/>
</clipPath>
</defs>
</svg>
