<svg width="321" height="240" viewBox="0 0 321 240" fill="none" xmlns="http://www.w3.org/2000/svg">
<path d="M248.709 173.937C246.744 172.123 244.577 170.141 241.302 168.125C237.624 165.858 234.231 164.565 231.762 163.809C232.518 162.549 233.492 160.786 234.45 158.619C234.702 158.048 235.256 156.889 235.877 155.243C237.641 150.574 238.313 145.703 238.514 144.125C238.968 140.614 239.27 135.626 238.565 129.58C234.551 128.488 231.175 127.934 228.874 127.648C224.305 127.06 215.42 126.069 205.108 129.21C201.984 130.168 199.532 131.242 198.02 131.965C197.584 129.664 196.693 126.305 194.728 122.66C192.293 118.175 189.387 115.455 186.986 113.238C184.416 110.869 180.284 107.594 174.423 104.84C174.389 104.84 174.339 104.873 174.305 104.873C174.271 104.873 174.221 104.84 174.187 104.84C168.326 107.594 164.194 110.869 161.624 113.238C159.223 115.455 156.317 118.175 153.882 122.66C151.9 126.305 151.01 129.664 150.573 131.965C149.061 131.242 146.626 130.151 143.485 129.21C133.173 126.086 124.288 127.06 119.719 127.648C117.402 127.951 114.043 128.488 110.028 129.58C109.323 135.626 109.642 140.614 110.079 144.125C110.28 145.72 110.952 150.574 112.716 155.243C113.337 156.889 113.891 158.031 114.143 158.619C115.117 160.786 116.092 162.533 116.831 163.809C114.362 164.565 110.969 165.858 107.291 168.125C104.016 170.158 101.849 172.14 99.8839 173.937C97.4989 176.137 94.4421 179.294 91.335 183.561C92.8298 186.063 95.0804 189.405 98.2883 192.966C101.345 196.359 106.972 202.439 116.293 206.47C119.635 207.914 124.926 209.728 131.812 210.181H216.73C223.617 209.711 228.907 207.914 232.25 206.47C241.571 202.439 247.198 196.359 250.254 192.966C253.462 189.422 255.713 186.063 257.208 183.561C254.101 179.294 251.044 176.137 248.659 173.937H248.709Z" fill="#F6624C" stroke="#070001" stroke-width="3.4095" stroke-miterlimit="10" stroke-linecap="square"/>
<path d="M155.372 171.124C157.459 171.124 159.151 168.755 159.151 165.834C159.151 162.912 157.459 160.543 155.372 160.543C153.285 160.543 151.593 162.912 151.593 165.834C151.593 168.755 153.285 171.124 155.372 171.124Z" fill="#070001"/>
<path d="M178.364 171.124C180.451 171.124 182.143 168.755 182.143 165.834C182.143 162.912 180.451 160.543 178.364 160.543C176.277 160.543 174.585 162.912 174.585 165.834C174.585 168.755 176.277 171.124 178.364 171.124Z" fill="#070001"/>
<path d="M167.095 174.08C169.655 174.08 171.73 172.546 171.73 170.654C171.73 168.762 169.655 167.228 167.095 167.228C164.534 167.228 162.459 168.762 162.459 170.654C162.459 172.546 164.534 174.08 167.095 174.08Z" fill="#070001"/>
<path d="M167.279 171.913V179.437" stroke="#070001" stroke-width="2.6537" stroke-linecap="round" stroke-linejoin="round"/>
<path d="M158.411 176.834C159.536 177.59 162.744 179.522 167.262 179.421C171.629 179.337 174.669 177.422 175.795 176.633" stroke="#070001" stroke-width="2.6537" stroke-linecap="round" stroke-linejoin="round"/>
<path d="M110.868 184.015H120.761" stroke="#070001" stroke-width="3.4095" stroke-linecap="round" stroke-linejoin="round"/>
<path d="M223.281 184.014H233.174" stroke="#070001" stroke-width="3.4095" stroke-linecap="round" stroke-linejoin="round"/>
<path d="M130.803 144.951L138.193 151.535" stroke="#070001" stroke-width="3.4095" stroke-linecap="round" stroke-linejoin="round"/>
<path d="M172.855 122.105L171.908 131.953" stroke="#070001" stroke-width="3.4095" stroke-linecap="round" stroke-linejoin="round"/>
<path d="M217.865 144.951L209.803 150.695" stroke="#070001" stroke-width="3.4095" stroke-linecap="round" stroke-linejoin="round"/>
<path d="M109.743 186.534C98.4559 173.501 87.2869 160.384 75.8827 147.451C69.534 140.246 70.9784 139.053 75.8323 133.931C80.6862 128.808 88.9328 121.603 100.925 119.453C110.7 117.689 119.047 119.755 124.271 121.704C126.756 122.627 128.285 125.197 127.899 127.817C126.253 138.667 121.835 167.572 119.35 183.897C118.627 188.583 112.883 190.162 109.743 186.534Z" fill="#FFCA28"/>
<path d="M122.187 173.904C120.743 172.779 116.763 170.041 110.279 169.873C104.653 169.722 100.034 171.586 97.9851 172.543" stroke="white" stroke-width="5.19736" stroke-miterlimit="10"/>
<path d="M124.556 154.321C121.466 152.809 113.555 149.518 102.117 151.079C94.0386 152.171 87.6395 155.228 84.146 157.176" stroke="white" stroke-width="5.19736" stroke-miterlimit="10"/>
<path d="M126.42 136.332C123.044 134.451 113.387 129.698 99.2788 131.092C85.1537 132.486 74.9756 139.221 71.3982 141.791" stroke="white" stroke-width="5.19736" stroke-miterlimit="10"/>
<path d="M72.7591 143.168C71.1299 141.338 71.0795 138.583 72.6919 136.736C77.042 131.747 85.5405 123.937 98.641 120.478C108.651 117.841 117.385 118.798 123.011 120.041C125.447 120.578 127.059 122.879 126.774 125.365C124.557 144.881 122.356 164.415 120.139 183.931C119.669 188.13 114.446 189.793 111.641 186.635C98.6914 172.141 85.7252 157.646 72.7759 143.168H72.7591Z" stroke="#070001" stroke-width="3.96375" stroke-miterlimit="10"/>
<path d="M192.729 86.9193C192.259 86.3819 192.242 85.9116 192.729 85.4077C193.351 84.7695 193.989 84.1649 194.661 83.5938C195.097 83.2243 195.735 83.2243 196.172 83.5938C197.717 84.9039 199.246 86.2307 200.791 87.5408C200.908 87.6416 201.093 87.5576 201.093 87.4064C201.127 85.8444 201.16 84.2656 201.211 82.7037C201.211 82.2502 201.295 81.7967 201.379 81.36C201.48 80.8394 201.715 80.621 202.219 80.705C203.176 80.8394 204.133 81.0073 205.091 81.2089C205.544 81.3096 205.712 81.612 205.678 82.1998C205.628 82.9892 205.544 83.7786 205.46 84.568C205.343 85.7605 205.242 86.9529 205.124 88.1454C205.124 88.3134 205.259 88.4477 205.426 88.4309C205.93 88.3806 206.401 88.3302 206.888 88.263C208.601 88.0278 210.314 87.7759 212.027 87.5408C212.615 87.4568 212.968 87.6751 213.085 88.2798C213.22 88.9516 213.287 89.6234 213.371 90.2953C213.404 90.5808 213.421 90.8831 213.455 91.1686C213.505 91.7565 213.287 92.0756 212.682 92.2267C212.027 92.3779 211.355 92.4955 210.683 92.613C209.76 92.7978 208.282 93.1001 207.224 93.3184C206.686 93.436 206.485 94.1078 206.871 94.4941C207.811 95.4347 209.256 96.8959 210.079 97.7189C210.851 98.4915 210.868 98.8778 210.079 99.6672C209.625 100.104 209.155 100.524 208.685 100.944C208.299 101.28 207.711 101.263 207.324 100.91C206.787 100.406 206.3 99.8687 205.779 99.348C205.124 98.693 204.486 98.0548 203.797 97.3662C203.529 97.0974 203.092 97.2486 203.042 97.6181C202.991 97.954 202.958 98.2731 202.907 98.5755C202.706 99.9527 202.521 101.33 202.319 102.707C202.252 103.161 201.832 103.48 201.362 103.429C200.438 103.345 199.531 103.11 198.675 102.741C198.305 102.59 198.171 102.237 198.204 101.851C198.255 101.263 198.356 100.658 198.44 100.07C198.524 99.4656 198.658 98.4075 198.759 97.6013C198.809 97.1478 198.339 96.8455 197.952 97.0639C196.81 97.6853 194.929 98.7434 193.888 99.3145C193.686 99.4152 193.468 99.516 193.25 99.5328C192.947 99.5664 192.712 99.3816 192.561 99.1297C192.057 98.2899 191.537 97.4334 191.066 96.5768C190.798 96.0729 190.932 95.6866 191.436 95.3843C191.839 95.1324 192.292 94.9644 192.712 94.7461C193.787 94.1582 194.829 93.4696 196.021 93.1673C196.81 92.9657 197.062 92.0588 196.592 91.4877C195.534 90.1945 193.72 88.0279 192.729 86.9193Z" fill="#F5535E"/>
<path d="M256.574 139.188C256.036 138.584 256.02 138.029 256.574 137.441C257.279 136.702 258.018 136.014 258.791 135.342C259.295 134.905 260.034 134.922 260.538 135.342C262.318 136.854 264.082 138.382 265.862 139.894C265.996 140.011 266.215 139.91 266.215 139.742C266.265 137.929 266.299 136.115 266.349 134.317C266.366 133.797 266.433 133.276 266.534 132.772C266.651 132.168 266.92 131.932 267.508 132.016C268.616 132.168 269.725 132.369 270.817 132.604C271.337 132.722 271.539 133.075 271.488 133.746C271.438 134.653 271.32 135.56 271.236 136.484C271.102 137.861 270.985 139.239 270.85 140.616C270.85 140.817 271.001 140.968 271.203 140.952C271.774 140.885 272.328 140.834 272.882 140.75C274.864 140.481 276.829 140.196 278.811 139.91C279.483 139.81 279.903 140.078 280.037 140.75C280.188 141.523 280.272 142.295 280.373 143.068C280.424 143.404 280.44 143.74 280.457 144.076C280.508 144.747 280.256 145.134 279.567 145.285C278.811 145.47 278.022 145.587 277.266 145.738C276.208 145.94 274.495 146.293 273.286 146.561C272.664 146.696 272.429 147.468 272.882 147.922C273.957 149.014 275.637 150.693 276.577 151.634C277.484 152.541 277.484 152.977 276.577 153.867C276.057 154.371 275.519 154.858 274.965 155.345C274.512 155.749 273.84 155.715 273.403 155.312C272.782 154.741 272.211 154.119 271.623 153.515C270.884 152.776 270.128 152.02 269.339 151.231C269.036 150.928 268.516 151.096 268.465 151.533C268.415 151.919 268.364 152.289 268.314 152.641C268.096 154.237 267.861 155.816 267.625 157.411C267.541 157.932 267.054 158.301 266.534 158.251C265.459 158.15 264.417 157.882 263.427 157.462C263.007 157.294 262.839 156.874 262.889 156.437C262.956 155.749 263.057 155.077 263.158 154.388C263.259 153.683 263.41 152.457 263.527 151.533C263.594 151.012 263.04 150.66 262.587 150.911C261.277 151.634 259.093 152.843 257.901 153.498C257.682 153.616 257.414 153.716 257.162 153.75C256.826 153.783 256.557 153.582 256.372 153.296C255.785 152.322 255.197 151.348 254.659 150.34C254.34 149.753 254.508 149.316 255.096 148.98C255.566 148.694 256.087 148.51 256.574 148.241C257.817 147.552 259.009 146.763 260.387 146.427C261.293 146.209 261.596 145.151 261.042 144.479C259.815 143.001 257.733 140.498 256.591 139.205L256.574 139.188Z" fill="#5094FA"/>
<path d="M87.9419 76.1531C88.3618 78.8235 89.8062 80.8558 91.7881 82.5857C93.77 84.3157 95.5671 85.7769 95.6343 88.5146C95.7015 91.0675 93.9211 93.1501 92.8966 95.3336C91.7377 97.8361 91.8385 100.473 93.4173 102.757C94.7945 104.739 101.983 102.791 100.421 100.523C98.859 98.256 99.6148 96.0558 100.774 93.9227C102.017 91.6385 103.276 89.4719 103.024 86.7678C102.806 84.2485 101.177 82.4346 99.3461 80.8558C97.3642 79.1427 95.7518 77.5135 95.3488 74.8094C94.9625 72.3573 87.522 73.6169 87.9083 76.1363L87.9419 76.1531Z" fill="#FFC107"/>
<path d="M155.78 68.5616C157.644 76.4891 155.645 85.5419 148.507 90.2447C145.35 92.3273 141.403 92.9152 138.43 95.3169C135.037 98.0546 133.693 102.472 132.619 106.52C132.098 108.485 139.354 110.601 139.857 108.72C140.983 104.471 142.326 99.8685 146.257 97.3828C149.7 95.1994 153.764 94.5276 156.922 91.8235C163.237 86.3985 164.799 77.7824 162.951 69.9725C162.481 67.957 155.309 66.647 155.763 68.5616H155.78Z" fill="#F5535E"/>
<path d="M45.6005 132.099C47.4816 130.537 49.6146 129.194 51.966 128.656C52.5202 128.522 53.0745 128.438 53.6455 128.388C53.8639 128.371 54.0654 128.354 54.2838 128.354C54.4181 128.354 54.5693 128.354 54.7037 128.354C54.4685 128.354 54.4685 128.354 54.7372 128.354C55.2915 128.404 55.829 128.472 56.3664 128.606C56.5008 128.64 56.6351 128.673 56.7527 128.707C56.4336 128.606 56.4 128.589 56.6855 128.707C56.9375 128.824 57.1726 128.908 57.4245 129.043C57.878 129.278 58.6506 129.412 59.1545 129.076C59.6583 128.74 59.7423 128.001 59.6751 127.514C59.44 125.902 58.2475 124.407 56.7359 123.651C54.4685 122.526 51.6637 122.207 49.0268 122.761C46.2051 123.366 43.6354 124.827 41.4688 126.641C40.2595 127.632 41.2504 129.563 41.9558 130.453C42.4597 131.092 43.0811 131.747 43.8873 132.066C44.3744 132.251 45.1302 132.503 45.6173 132.099H45.6005Z" fill="#5094FA"/>
<path d="M145.349 36.7853C146.122 41.1521 143.333 44.6288 142.175 48.6261C141.15 52.2036 141.352 57.0239 144.862 59.2073C145.164 59.3921 145.819 59.9295 145.685 60.3998C145.55 60.8701 144.744 60.9877 144.375 61.0212C142.628 61.1724 140.68 60.551 139.219 59.644C135.322 57.2255 133.743 52.7578 134.499 48.3406C134.885 46.1068 135.859 44.0745 136.766 42.0087C137.673 39.9428 138.53 37.793 138.144 35.576C137.909 34.2156 140.361 34.5347 141.116 34.669C142.074 34.837 143.031 35.1057 143.888 35.5592C144.341 35.7943 145.265 36.231 145.366 36.7853H145.349Z" fill="#FFC107"/>
<path d="M19.2986 109.929C24.6564 111.81 29.5775 109.997 34.8513 109.913C39.5708 109.829 45.6004 111.29 47.6327 115.287C47.8174 115.64 48.3549 116.412 48.9763 116.412C49.5977 116.412 49.9169 115.64 50.0344 115.287C50.5887 113.624 50.1856 111.542 49.329 109.879C47.0616 105.428 41.771 102.724 36.0437 102.321C33.1549 102.119 30.4004 102.539 27.6292 102.892C24.8579 103.245 21.9691 103.513 19.2482 102.556C17.5854 101.951 17.4847 104.454 17.5015 105.227C17.5183 106.201 17.6694 107.209 18.0557 108.183C18.2573 108.687 18.6268 109.711 19.2986 109.946V109.929Z" fill="#F5535E"/>
<path d="M48.2711 66.7986C53.2929 84.6858 63.9917 101.364 77.848 112.583C79.5108 113.927 78.503 115.506 77.4281 116.177C76.1181 116.984 73.5652 117.32 71.9192 116.01C57.3071 104.185 45.8861 86.7685 40.5787 67.8567C39.6214 64.4136 47.2801 63.3555 48.2543 66.8154L48.2711 66.7986Z" fill="#5094FA"/>
<path d="M109.524 35.3576C115.302 38.8679 112.295 46.8458 111.959 52.1364C111.472 59.392 116.36 64.0948 119.215 70.2252C123.901 80.3025 121.785 93.4534 113.572 101.095C112.598 102.002 111.959 103.548 113.521 104.186C115.083 104.824 117.401 103.682 118.51 102.657C127.646 94.1588 131.291 80.4201 126.74 68.6464C125.48 65.3713 123.397 62.5496 121.634 59.5432C119.635 56.1505 118.678 52.909 119.114 48.962C119.753 43.1004 121.902 35.0721 115.671 31.2763C114.21 30.3861 112.178 31.0748 110.851 31.9649C110.112 32.4688 108.046 34.4507 109.524 35.3576Z" fill="#5094FA"/>
<path d="M234.047 45.1494C230.856 46.6778 227.446 48.6597 226.304 52.2539C225.162 55.8482 225.935 59.9799 227.732 63.1206C231.41 69.6037 240.883 72.123 246.761 66.9668C251.313 62.9695 253.53 52.5394 246.123 50.2217C240.127 48.3405 231.057 54.5213 236.331 60.7525C238.145 62.8855 243.486 60.7357 241.269 58.1156C239.052 55.4955 243.654 53.0097 244.913 56.4192C245.3 57.4773 244.997 58.8546 244.746 59.9295C243.755 64.0276 240.144 66.6477 236.163 64.3299C233.325 62.6839 231.914 59.2912 231.779 56.1337C231.595 52.0524 233.98 50.3728 237.355 48.7604C240.731 47.1481 236.801 43.8393 234.064 45.1662L234.047 45.1494Z" fill="#5094FA"/>
<path d="M66.1233 172.416C67.0748 169.008 67.8288 165.137 65.8763 161.911C63.9237 158.684 60.3057 156.544 56.7587 155.828C49.4577 154.327 41.3234 159.796 41.3321 167.615C41.3426 173.673 47.7313 182.21 54.3534 178.163C59.7178 174.89 61.0397 163.994 52.8775 163.859C50.0777 163.819 48.1781 169.254 51.6098 169.311C55.0415 169.369 53.8813 174.469 50.4861 173.171C49.4354 172.765 48.5981 171.631 47.9551 170.733C45.5239 167.288 45.9304 162.846 50.296 161.377C53.404 160.325 56.8862 161.497 59.3507 163.476C62.5437 166.024 62.2369 168.925 61.2269 172.528C60.2169 176.13 65.2951 175.351 66.0996 172.417L66.1233 172.416Z" fill="#FFC107"/>
<path d="M189.421 63.0698C187.002 60.2649 184.785 57.0066 184.617 53.1436C184.483 49.6669 188.295 41.3195 193.418 43.5534C194.896 44.1916 198.474 48.3737 196.391 50.1708C192.914 53.194 191.738 46.9964 191.554 45.5688C190.899 40.3622 193.972 33.8455 200.019 34.0639C203.731 34.1982 204.016 29.7138 200.271 29.5795C190.596 29.2435 183.391 38.2124 185.843 47.8026C187.741 55.2263 199.431 60.3489 202.303 50.8594C205.343 40.8157 194.123 37.0367 186.465 40.4294C175.783 45.1657 177.681 57.5776 184.113 65.0349C185.927 67.1343 191.621 65.6395 189.404 63.0698H189.421Z" fill="#FFC107"/>
<path d="M225.649 105.227C230.133 114.38 241.672 112.214 247.987 106.386C251.027 103.564 253.832 99.6505 253.412 95.3005C253.076 91.6895 250.103 86.4157 246.509 85.1896C239.606 82.8214 234.231 93.5873 239.874 98.1389C246.929 103.799 257.392 99.3314 261.524 92.3949C263.506 89.0693 258.45 88.3471 256.872 90.9672C254.755 94.5111 250.472 96.6273 246.358 95.2333C244.947 94.763 241.672 93.537 244.107 92.2101C245.753 91.3032 245.988 92.2941 246.912 93.9904C251.799 103.026 235.373 111.811 230.486 101.834C229.226 99.2474 224.339 102.556 225.632 105.227H225.649Z" fill="#FFC107"/>
<path d="M62.7648 34.6685C53.1746 38.1284 54.0815 49.8348 59.1874 56.7546C61.6563 60.0969 65.2338 63.2881 69.6174 63.3553C73.2452 63.4056 78.8046 61.0375 80.4169 57.5944C83.5241 50.9769 73.3964 44.4771 68.2737 49.5997C61.8746 55.982 65.1834 66.8823 71.6329 71.753C74.7232 74.0876 75.9997 69.1329 73.5475 67.2854C70.2556 64.7997 68.6265 60.2985 70.4404 56.3683C71.0618 55.0247 72.6238 51.8839 73.6819 54.4536C74.4041 56.2004 73.3964 56.3179 71.6161 57.0401C62.1098 60.9199 55.1564 43.6205 65.6201 39.8583C68.3241 38.8842 65.5697 33.6607 62.7648 34.6685Z" fill="#F5535E"/>
</svg>
