<svg width="170" height="124" viewBox="0 0 170 124" fill="none" xmlns="http://www.w3.org/2000/svg">
<path d="M94.5242 9.68731C95.9879 12.2488 95.5991 14.4672 93.3578 16.3426L71.0819 31.9632L93.3578 47.5152C95.5991 49.4363 95.9879 51.6547 94.5242 54.1705C93.4264 55.5427 92.1228 56.2288 90.6134 56.2288C89.6985 56.2288 88.8066 55.9315 87.9375 55.3369L60.0583 35.8512C58.6861 34.7991 58 33.4955 58 31.9403C58 30.3851 58.6861 29.0815 60.0583 28.0295L87.9375 8.52091C90.4533 7.10294 92.6488 7.49174 94.5242 9.68731Z" fill="#E1E1E8"/>
<path d="M122.54 2.20862C125.193 3.44362 126.176 5.4791 125.49 8.31505L109.046 55.7256C108.68 56.732 108.086 57.5096 107.262 58.0813C106.439 58.6531 105.547 58.9275 104.587 58.9275C104.038 58.9275 103.512 58.836 103.008 58.6531C100.355 57.4638 99.372 55.4512 100.058 52.6153L116.433 5.22753C117.668 2.5288 119.704 1.5225 122.54 2.20862Z" fill="#E1E1E8"/>
<path d="M164.943 28.0296C166.315 29.0817 167.001 30.3853 167.001 31.9405C167.001 33.4957 166.315 34.7993 164.943 35.8514L137.063 55.3142C136.194 55.9088 135.302 56.2061 134.388 56.2061C132.878 56.2061 131.575 55.52 130.477 54.1478C129.013 51.632 129.402 49.4136 131.643 47.4925L153.919 31.9405L131.643 16.3199C129.402 14.4445 129.013 12.2261 130.477 9.6646C132.352 7.46903 134.548 7.08023 137.063 8.4982L164.943 28.0296Z" fill="#E1E1E8"/>
<rect x="11.75" y="32" width="143.055" height="38.8293" rx="18.3928" transform="rotate(7.02676 11.75 32)" fill="#FDD8DB"/>
<path d="M140.893 60.4428L139.184 74.3055L136.695 73.9987L131.692 64.4404L131.577 64.4262L130.491 73.234L127.619 72.88L129.328 59.0173L131.855 59.3289L136.82 68.8824L136.954 68.899L138.04 60.0912L140.893 60.4428Z" fill="#F9959C"/>
<path d="M127.018 65.7694C126.461 70.2882 123.325 72.5453 119.668 72.0945C115.973 71.639 113.501 68.6713 114.055 64.1716C114.612 59.6529 117.729 57.3934 121.424 57.8489C125.081 58.2997 127.575 61.2506 127.018 65.7694ZM124.088 65.4083C124.454 62.4405 123.255 60.6598 121.11 60.3955C118.966 60.1312 117.351 61.5649 116.985 64.5327C116.619 67.5006 117.838 69.2836 119.982 69.5479C122.127 69.8123 123.723 68.3762 124.088 65.4083Z" fill="#F9959C"/>
<path d="M113.455 57.0608L111.746 70.9235L108.874 70.5695L110.583 56.7068L113.455 57.0608Z" fill="#F9959C"/>
<path d="M97.7674 57.5376L98.0601 55.1633L109.414 56.5629L109.122 58.9371L104.871 58.4132L103.455 69.9016L100.602 69.55L102.018 58.0615L97.7674 57.5376Z" fill="#F9959C"/>
<path d="M87.4479 67.9286L84.346 67.5463L90.8607 54.276L94.5561 54.7315L97.6343 69.1842L94.5515 68.8042L93.9117 65.4791L88.8951 64.8608L87.4479 67.9286ZM89.8988 62.7102L93.4602 63.1492L92.3716 57.6306L92.2758 57.6188L89.8988 62.7102Z" fill="#F9959C"/>
<path d="M75.7288 54.8213L76.0215 52.447L87.3759 53.8465L87.0832 56.2208L82.8325 55.6969L81.4165 67.1853L78.5635 66.8336L79.9795 55.3452L75.7288 54.8213Z" fill="#F9959C"/>
<path d="M74.834 52.3005L73.1253 66.1632L70.6362 65.8564L65.633 56.2981L65.5181 56.2839L64.4325 65.0917L61.5603 64.7377L63.269 50.875L65.7965 51.1865L70.7614 60.7401L70.8955 60.7566L71.9811 51.9488L74.834 52.3005Z" fill="#F9959C"/>
<path d="M50.6272 63.3903L52.3359 49.5276L61.6415 50.6746L61.3489 53.0489L54.9154 52.2559L54.5 55.6258L60.4548 56.3598L60.1622 58.7341L54.2074 58.0001L53.792 61.37L60.2447 62.1654L59.952 64.5396L50.6272 63.3903Z" fill="#F9959C"/>
<path d="M50.6128 49.3152L48.9041 63.1779L46.032 62.8239L47.7407 48.9612L50.6128 49.3152Z" fill="#F9959C"/>
<path d="M34.2566 61.3722L35.9653 47.5095L41.4032 48.1798C44.5625 48.5692 46.1429 50.5717 45.8054 53.3098C45.5717 55.2054 44.5306 56.4766 42.8683 56.9521L45.1515 62.7151L41.973 62.3233L39.9372 57.0768L37.7353 56.8053L37.1287 61.7262L34.2566 61.3722ZM38.0232 54.4694L40.0528 54.7195C41.7569 54.9296 42.6676 54.3226 42.8375 52.944C43.0098 51.5463 42.2809 50.6789 40.5768 50.4688L38.5471 50.2187L38.0232 54.4694Z" fill="#F9959C"/>
<path d="M33.6556 54.2616C33.0986 58.7804 29.963 61.0375 26.3059 60.5867C22.6104 60.1312 20.1382 57.1635 20.6929 52.6638C21.2498 48.1451 24.3663 45.8856 28.0618 46.3411C31.7189 46.7919 34.2126 49.7428 33.6556 54.2616ZM30.7261 53.9005C31.0919 50.9327 29.8924 49.152 27.7479 48.8877C25.6034 48.6234 23.9882 50.0571 23.6224 53.0249C23.2566 55.9928 24.4752 57.7758 26.6197 58.0401C28.7642 58.3044 30.3603 56.8684 30.7261 53.9005Z" fill="#F9959C"/>
<rect x="10" y="80.6304" width="147.646" height="40.0753" rx="18.983" fill="#F9959C"/>
<path d="M143.736 93.4602V107.876H141.147L134.816 98.7168H134.696V107.876H131.709V93.4602H134.338L140.63 102.619H140.769V93.4602H143.736Z" fill="white"/>
<path d="M130.196 100.668C130.196 105.367 127.269 108.075 123.466 108.075C119.623 108.075 116.716 105.347 116.716 100.668C116.716 95.9689 119.623 93.261 123.466 93.261C127.269 93.261 130.196 95.9689 130.196 100.668ZM127.15 100.668C127.15 97.5817 125.696 95.9092 123.466 95.9092C121.236 95.9092 119.763 97.5817 119.763 100.668C119.763 103.754 121.236 105.427 123.466 105.427C125.696 105.427 127.15 103.754 127.15 100.668Z" fill="white"/>
<path d="M102.958 107.876V93.4602H105.944V99.4336H112.196V93.4602H115.203V107.876H112.196V101.903H105.944V107.876H102.958Z" fill="white"/>
<path d="M89.9355 95.9292V93.4602H101.743V95.9292H97.3226V107.876H94.3559V95.9292H89.9355Z" fill="white"/>
<path d="M80.6768 107.876H77.4512L82.4489 93.4602H86.2918L91.2696 107.876H88.0639L86.9887 104.551H81.7719L80.6768 107.876ZM82.5286 102.221H86.2321L84.4201 96.7057H84.3206L82.5286 102.221Z" fill="white"/>
<path d="M65.3848 107.876V93.4602H68.3715V99.8517H68.5706L73.8072 93.4602H77.4112L72.0351 99.9115L77.4709 107.876H73.8869L69.8847 101.923L68.3715 103.754V107.876H65.3848Z" fill="white"/>
<path d="M60.9051 98.4777C60.6661 96.8848 59.4316 95.9092 57.7591 95.9092C55.5091 95.9092 54.0357 97.6415 54.0357 100.668C54.0357 103.774 55.529 105.427 57.7392 105.427C59.3918 105.427 60.6064 104.511 60.9051 102.958L63.9316 102.978C63.5931 105.646 61.363 108.075 57.6994 108.075C53.8366 108.075 50.9893 105.367 50.9893 100.668C50.9893 95.9689 53.8963 93.261 57.6994 93.261C61.0246 93.261 63.5334 95.1725 63.9316 98.4777H60.9051Z" fill="white"/>
<path d="M40.3565 107.876H37.1309L42.1286 93.4602H45.9715L50.9493 107.876H47.7436L46.6684 104.551H41.4516L40.3565 107.876ZM42.2082 102.221H45.9117L44.0998 96.7057H44.0003L42.2082 102.221Z" fill="white"/>
<path d="M23.9097 107.876V93.4602H26.8964V99.4336H33.1485V93.4602H36.1551V107.876H33.1485V101.903H26.8964V107.876H23.9097Z" fill="white"/>
</svg>
