<svg width="36" height="36" viewBox="0 0 36 36" fill="none" xmlns="http://www.w3.org/2000/svg">
<path d="M17.9991 5.0884C22.2046 5.0884 22.7022 5.10465 24.3632 5.1803C25.8986 5.25032 26.7326 5.50664 27.2878 5.72232C28.0229 6.00803 28.5475 6.34937 29.0989 6.90015C29.6502 7.45155 29.9916 7.97607 30.2767 8.71128C30.4923 9.26643 30.7487 10.1004 30.8187 11.6358C30.8943 13.2963 30.9106 13.7946 30.9106 18.0001C30.9106 22.2057 30.8943 22.7033 30.8187 24.3644C30.7487 25.8998 30.4923 26.7338 30.2767 27.2889C29.991 28.0241 29.6496 28.5487 29.0989 29.1001C28.5475 29.6515 28.0229 29.9928 27.2878 30.2779C26.7326 30.4936 25.8986 30.7499 24.3632 30.8199C22.7028 30.8956 22.2046 30.9118 17.9991 30.9118C13.7936 30.9118 13.2954 30.8956 11.6349 30.8199C10.0995 30.7499 9.26557 30.4936 8.71043 30.2779C7.97524 29.9922 7.45073 29.6508 6.89933 29.1001C6.34794 28.5487 6.0066 28.0241 5.72153 27.2889C5.50585 26.7338 5.24953 25.8998 5.17951 24.3644C5.10387 22.7039 5.08761 22.2057 5.08761 18.0001C5.08761 13.7946 5.10387 13.2969 5.17951 11.6358C5.24953 10.1004 5.50585 9.26643 5.72153 8.71128C6.00723 7.97607 6.34857 7.45155 6.89933 6.90015C7.45073 6.34875 7.97524 6.0074 8.71043 5.72232C9.26557 5.50664 10.0995 5.25032 11.6349 5.1803C13.296 5.10465 13.7936 5.0884 17.9991 5.0884ZM17.9991 2.25073C13.7217 2.25073 13.1853 2.26886 11.5055 2.34576C9.82947 2.42203 8.6848 2.68835 7.68266 3.07784C6.64677 3.48045 5.76841 4.01872 4.89319 4.89459C4.01796 5.76983 3.47907 6.6482 3.07709 7.68349C2.68761 8.68565 2.42129 9.83034 2.34502 11.5064C2.26813 13.1863 2.25 13.7227 2.25 18.0001C2.25 22.2775 2.26813 22.8139 2.34502 24.4938C2.42129 26.1699 2.68761 27.3146 3.07709 28.3167C3.47969 29.3526 4.01796 30.231 4.89381 31.1062C5.76967 31.9821 6.64739 32.5204 7.68329 32.923C8.6848 33.3125 9.8301 33.5788 11.5062 33.6551C13.186 33.732 13.7224 33.7501 17.9997 33.7501C22.2771 33.7501 22.8135 33.732 24.4933 33.6551C26.1693 33.5788 27.3146 33.3125 28.3162 32.923C29.352 32.5204 30.2304 31.9821 31.1056 31.1062C31.9815 30.2304 32.5197 29.3526 32.9223 28.3167C33.3118 27.3152 33.5781 26.1699 33.6544 24.4938C33.7313 22.8139 33.7494 22.2775 33.7494 18.0001C33.7494 13.7227 33.7313 13.1863 33.6544 11.5064C33.5781 9.83034 33.3118 8.68502 32.9223 7.68349C32.5197 6.64758 31.9815 5.76921 31.1056 4.89397C30.2298 4.0181 29.352 3.47982 28.3162 3.07721C27.3134 2.68835 26.1687 2.42203 24.4927 2.34576C22.8128 2.26886 22.2765 2.25073 17.9991 2.25073Z" fill="#858899"/>
<path d="M17.9992 9.91272C13.5324 9.91272 9.91211 13.5337 9.91211 18C9.91211 22.4662 13.5331 26.0872 17.9992 26.0872C22.4654 26.0872 26.0863 22.4662 26.0863 18C26.0863 13.5337 22.466 9.91272 17.9992 9.91272ZM17.9992 23.2495C15.0997 23.2495 12.7497 20.8989 12.7497 18C12.7497 15.1004 15.1003 12.7504 17.9992 12.7504C20.8981 12.7504 23.2487 15.101 23.2487 18C23.2487 20.8995 20.8987 23.2495 17.9992 23.2495Z" fill="#858899"/>
<path d="M26.4065 11.4827C27.4502 11.4827 28.2963 10.6365 28.2963 9.59278C28.2963 8.54902 27.4502 7.70288 26.4065 7.70288C25.3627 7.70288 24.5166 8.54902 24.5166 9.59278C24.5166 10.6365 25.3627 11.4827 26.4065 11.4827Z" fill="#858899"/>
</svg>
