<svg width="36" height="36" viewBox="0 0 36 36" fill="none" xmlns="http://www.w3.org/2000/svg">
<g clip-path="url(#clip0_14513_21184)">
<path d="M28.0484 9.34303C28.0484 8.29615 27.1999 7.45081 26.1569 7.45081C25.1138 7.45081 24.2646 8.29615 24.2646 9.34303C24.2646 10.3861 25.1138 11.2314 26.1569 11.2314C27.1999 11.2314 28.0484 10.3861 28.0484 9.34303Z" fill="url(#paint0_linear_14513_21184)"/>
<path d="M30.5686 24.1136C30.4986 25.6494 30.2417 26.4837 30.0285 27.0379C29.742 27.7727 29.4003 28.2981 28.8461 28.8492C28.2981 29.4003 27.7727 29.7412 27.0379 30.0245C26.4837 30.2409 25.6462 30.4986 24.1105 30.5717C22.4502 30.6449 21.9583 30.6605 17.7481 30.6605C13.5418 30.6605 13.0459 30.6449 11.3856 30.5717C9.84994 30.4986 9.01628 30.2409 8.46203 30.0245C7.72338 29.7412 7.20189 29.4003 6.6508 28.8492C6.0958 28.2981 5.75412 27.7727 5.47157 27.0379C5.25825 26.4837 4.99754 25.6494 4.93133 24.1136C4.85042 22.4533 4.8356 21.9536 4.8356 17.7519C4.8356 13.5417 4.85042 13.0459 4.93133 11.3856C4.99754 9.8499 5.25825 9.01629 5.47157 8.45738C5.75412 7.72338 6.0958 7.20107 6.6508 6.64998C7.20189 6.09971 7.72338 5.75797 8.46203 5.47157C9.01628 5.2544 9.84994 5.00063 11.3856 4.92748C13.0459 4.85427 13.5418 4.83559 17.7481 4.83559C21.9583 4.83559 22.4502 4.85427 24.1105 4.92748C25.6462 5.00063 26.4837 5.2544 27.0379 5.47157C27.7727 5.75797 28.2981 6.09971 28.8461 6.64998C29.4003 7.20107 29.742 7.72338 30.0285 8.45738C30.2417 9.01629 30.4986 9.8499 30.5686 11.3856C30.6457 13.0459 30.6643 13.5417 30.6643 17.7519C30.6643 21.9536 30.6457 22.4533 30.5686 24.1136ZM33.4043 11.2564C33.3272 9.57821 33.0625 8.43169 32.6695 7.43306C32.2694 6.39703 31.7331 5.51902 30.8551 4.64102C29.981 3.76693 29.103 3.23061 28.067 2.82587C27.0644 2.43667 25.9217 2.16889 24.2428 2.09574C22.5638 2.01477 22.0276 2 17.7481 2C13.4724 2 12.9323 2.01477 11.2533 2.09574C9.57825 2.16889 8.43634 2.43667 7.42916 2.82587C6.39703 3.23061 5.51903 3.76693 4.64493 4.64102C3.76693 5.51902 3.23061 6.39703 2.82663 7.43306C2.43743 8.43169 2.1728 9.57821 2.09183 11.2564C2.01868 12.9354 2 13.4724 2 17.7519C2 22.0276 2.01868 22.5638 2.09183 24.2428C2.1728 25.9179 2.43743 27.0636 2.82663 28.067C3.23061 29.0991 3.76693 29.981 4.64493 30.8551C5.51903 31.7292 6.39703 32.2694 7.42916 32.6734C8.43634 33.0625 9.57825 33.3272 11.2533 33.4043C12.9323 33.4813 13.4724 33.5 17.7481 33.5C22.0276 33.5 22.5638 33.4813 24.2428 33.4043C25.9217 33.3272 27.0644 33.0625 28.067 32.6734C29.103 32.2694 29.981 31.7292 30.8551 30.8551C31.7331 29.981 32.2694 29.0991 32.6695 28.067C33.0625 27.0636 33.3272 25.9179 33.4043 24.2428C33.4813 22.5638 33.5 22.0276 33.5 17.7519C33.5 13.4724 33.4813 12.9354 33.4043 11.2564Z" fill="url(#paint1_linear_14513_21184)"/>
<path d="M17.7471 22.9977C14.8492 22.9977 12.4977 20.6501 12.4977 17.7522C12.4977 14.8497 14.8492 12.499 17.7471 12.499C20.6458 12.499 23.0003 14.8497 23.0003 17.7522C23.0003 20.6501 20.6458 22.9977 17.7471 22.9977ZM17.7471 9.65955C13.28 9.65955 9.66211 13.2852 9.66211 17.7522C9.66211 22.2155 13.28 25.8372 17.7471 25.8372C22.2141 25.8372 25.8359 22.2155 25.8359 17.7522C25.8359 13.2852 22.2141 9.65955 17.7471 9.65955Z" fill="url(#paint2_linear_14513_21184)"/>
</g>
<defs>
<linearGradient id="paint0_linear_14513_21184" x1="2.28419" y1="33.1742" x2="30.8764" y2="4.58198" gradientUnits="userSpaceOnUse">
<stop stop-color="#FFD521"/>
<stop offset="0.05" stop-color="#FFD521"/>
<stop offset="0.501119" stop-color="#F50000"/>
<stop offset="0.95" stop-color="#B900B4"/>
<stop offset="0.950079" stop-color="#B900B4"/>
<stop offset="1" stop-color="#B900B4"/>
</linearGradient>
<linearGradient id="paint1_linear_14513_21184" x1="2.28413" y1="33.2135" x2="30.8999" y2="4.59781" gradientUnits="userSpaceOnUse">
<stop stop-color="#FFD521"/>
<stop offset="0.05" stop-color="#FFD521"/>
<stop offset="0.501119" stop-color="#F50000"/>
<stop offset="0.95" stop-color="#B900B4"/>
<stop offset="0.950079" stop-color="#B900B4"/>
<stop offset="1" stop-color="#B900B4"/>
</linearGradient>
<linearGradient id="paint2_linear_14513_21184" x1="2.29055" y1="33.2146" x2="30.8994" y2="4.60577" gradientUnits="userSpaceOnUse">
<stop stop-color="#FFD521"/>
<stop offset="0.05" stop-color="#FFD521"/>
<stop offset="0.501119" stop-color="#F50000"/>
<stop offset="0.95" stop-color="#B900B4"/>
<stop offset="0.950079" stop-color="#B900B4"/>
<stop offset="1" stop-color="#B900B4"/>
</linearGradient>
<clipPath id="clip0_14513_21184">
<rect width="31.5" height="31.5" fill="white" transform="translate(2 2)"/>
</clipPath>
</defs>
</svg>
