<svg width="454" height="267" viewBox="0 0 454 267" fill="none" xmlns="http://www.w3.org/2000/svg">
<path d="M0 24C0 10.7452 10.7452 0 24 0H430C443.255 0 454 10.7452 454 24V243C454 256.255 443.255 267 430 267H24C10.7452 267 0 256.255 0 243V24Z" fill="#2B2D36"/>
<mask id="mask0_1710_53563" style="mask-type:alpha" maskUnits="userSpaceOnUse" x="1" y="0" width="453" height="267">
<path d="M1 24C1 10.7452 11.7452 0 25 0H430C443.255 0 454 10.7452 454 24V243C454 256.255 443.255 267 430 267H25C11.7452 267 1 256.255 1 243V24Z" fill="#2B2D36"/>
</mask>
<g mask="url(#mask0_1710_53563)">
<path d="M370.501 177.605C367.057 176.847 363.54 176.461 360 176.449C352.906 176.449 345.897 177.882 339.373 180.639C332.85 183.396 326.956 187.429 322.033 192.497L319.159 189.644C324.47 184.202 330.824 179.88 337.845 176.931C344.866 173.981 352.421 172.453 360.048 172.453C363.395 172.489 366.742 172.826 370.028 173.44C369.955 169.732 369.616 166.048 369.021 162.388C369.021 162.304 369.021 162.22 368.961 162.111C366.499 147.099 359.757 133.111 349.523 121.782L349.426 121.674L348.759 120.94C341.411 112.838 332.437 106.349 322.409 101.907C312.381 97.4643 301.528 95.1649 290.554 95.1409C252.915 95.1409 221.351 121.566 212.984 157.14H211.711C195.365 157.465 179.807 164.158 168.397 175.775C165.62 178.58 163.11 181.65 160.915 184.925C154.088 195.037 150.438 206.931 150.426 219.114C150.426 228.408 152.524 237.593 156.598 245.972C157.908 248.669 159.411 251.269 161.109 253.749C166.711 261.815 174.156 268.448 182.826 273.119C191.994 278.284 202.337 281.028 212.863 281.101H362.849L363.88 281.04H364.329L365.311 280.956C392.352 278.308 413.512 256.036 413.512 228.95C413.427 203.524 394.971 182.408 370.464 177.605" fill="white"/>
<path d="M375.023 173.5V173.343C375.023 171.02 374.829 168.672 374.587 166.337L373.956 161.557V161.329C371.337 145.353 364.171 130.462 353.281 118.423L353.184 118.315L353.075 118.194L352.469 117.532C344.636 108.937 335.08 102.063 324.409 97.3435C313.751 92.6244 302.207 90.1685 290.529 90.1204L290.469 90C252.32 90 219.338 115.341 208.946 152.095C192.187 153.046 176.399 160.197 164.71 172.139C161.715 175.173 158.998 178.484 156.622 182.011C149.237 192.954 145.296 205.823 145.296 218.993C145.272 229.046 147.552 238.977 151.965 248.03C153.384 250.944 155.009 253.761 156.84 256.433C162.867 265.161 170.906 272.348 180.292 277.38C190.199 282.978 201.391 285.952 212.802 286H363.091L364.183 285.928H364.571L365.759 285.831C395.807 282.882 418.483 258.384 418.483 228.829C418.483 202.838 400.403 180.097 375.011 173.475L375.023 173.5ZM365.262 280.835L364.28 280.92H363.831L362.8 280.98H212.814C202.276 280.908 191.933 278.163 182.778 272.998C174.107 268.327 166.662 261.694 161.06 253.628C159.362 251.148 157.859 248.548 156.549 245.851C152.487 237.473 150.377 228.299 150.377 218.993C150.377 206.822 154.027 194.916 160.866 184.804C163.061 181.529 165.571 178.459 168.348 175.654C179.758 164.037 195.316 157.344 211.662 157.019H212.935C221.302 121.457 252.854 95.0201 290.505 95.0201L290.541 95.1164C301.516 95.1284 312.38 97.4398 322.397 101.882C332.425 106.324 341.398 112.813 348.746 120.915L349.413 121.649L349.51 121.758C359.732 133.086 366.487 147.075 368.948 162.087C368.948 162.183 368.948 162.268 368.997 162.364C369.591 166.024 369.93 169.707 370.003 173.415C366.717 172.801 363.37 172.464 360.024 172.428C352.396 172.44 344.854 173.969 337.845 176.931C330.824 179.892 324.482 184.214 319.183 189.655L322.057 192.508C326.98 187.44 332.873 183.407 339.397 180.65C345.921 177.894 352.942 176.461 360.024 176.461C363.552 176.461 367.069 176.858 370.525 177.617C395.031 182.42 413.487 203.536 413.487 228.841C413.487 255.928 392.364 278.187 365.286 280.847L365.262 280.835Z" fill="#2B2D36"/>
<path d="M279.809 146.437C279.809 152.962 276.984 158.283 273.491 158.283C269.999 158.283 267.174 152.986 267.174 146.437C267.174 139.888 270.011 134.579 273.491 134.579C276.972 134.579 279.809 139.888 279.809 146.437Z" fill="#2B2D36"/>
<path d="M291.693 158.295C295.185 158.295 298.01 152.986 298.01 146.437C298.01 139.888 295.185 134.579 291.693 134.579C288.2 134.579 285.375 139.888 285.375 146.437C285.375 152.986 288.2 158.295 291.693 158.295Z" fill="#2B2D36"/>
<path d="M282.453 173.764C282.962 173.788 283.459 173.788 283.969 173.764C286.418 173.68 288.819 173.054 290.99 171.934C293.16 170.815 295.064 169.238 296.556 167.312L297.72 165.915L294.906 163.604L293.742 165.012C292.578 166.541 291.099 167.781 289.389 168.672C287.679 169.563 285.8 170.056 283.884 170.141C281.774 170.129 279.7 169.659 277.797 168.78C275.893 167.902 274.195 166.613 272.837 165.024L271.624 163.676L268.908 166.096L270.133 167.444C273.261 171.068 277.687 173.331 282.465 173.776" fill="#2B2D36"/>
</g>
<path d="M93.1172 49C83.3346 49 75.4033 56.8567 75.4033 66.5474C75.4033 76.238 83.3346 84.0948 93.1172 84.0948C102.9 84.0948 110.831 76.238 110.831 66.5474C110.831 56.8567 102.9 49 93.1172 49ZM93.1172 77.0821C87.2476 77.0821 82.4826 72.3722 82.4826 66.5474C82.4826 60.7226 87.2371 56.0127 93.1172 56.0127C98.9973 56.0127 103.752 60.7226 103.752 66.5474C103.752 72.3722 98.9973 77.0821 93.1172 77.0821Z" fill="#858899"/>
<path d="M132.984 49C123.191 49 115.26 56.8567 115.26 66.5474C115.26 76.238 123.191 84.0948 132.974 84.0948C142.756 84.0948 150.687 76.238 150.687 66.5474C150.687 56.8567 142.767 49 132.984 49ZM132.984 77.0821C127.115 77.0821 122.35 72.3722 122.35 66.5474C122.35 60.7226 127.104 56.0127 132.984 56.0127C138.864 56.0127 143.619 60.7226 143.619 66.5474C143.619 72.3722 138.864 77.0821 132.984 77.0821Z" fill="#858899"/>
<path d="M171.956 49.8754C163.152 49.8754 156.01 56.9506 156.01 65.6722V83.2196H163.1V65.6722C163.1 60.8269 167.065 56.8985 171.956 56.8985H175.501V49.8754H171.956Z" fill="#858899"/>
<path d="M228.654 63.9217C228.654 56.1692 222.311 49.8859 214.485 49.8859C210.246 49.8859 206.449 51.7302 203.85 54.6478C201.252 51.7302 197.455 49.8859 193.216 49.8859C185.39 49.8859 179.047 56.1692 179.047 63.9217V83.2301H186.137V63.9217C186.137 60.0454 189.313 56.8986 193.226 56.8986C197.139 56.8986 200.316 60.0454 200.316 63.9217V83.2301H207.406V63.9217C207.406 60.0454 210.583 56.8986 214.496 56.8986C218.409 56.8986 221.585 60.0454 221.585 63.9217V83.2301H228.675V63.9217H228.654Z" fill="#858899"/>
<path d="M70.9753 66.5474C70.9753 56.8567 63.0441 49 53.251 49C43.4579 49 36.021 56.3878 35.5581 65.6721C35.5476 65.9639 35.5371 66.2556 35.5371 66.5578C35.5371 66.86 35.5371 67.1518 35.5581 67.4435C36.021 76.4881 43.563 83.678 52.8092 83.678C57.0273 83.678 60.8877 82.1879 63.8856 79.6975V82.3546C63.8225 83.4487 63.4859 86.2934 61.2874 88.5546C58.1528 91.7952 53.2825 91.7431 50.0953 90.649C46.7608 89.5132 44.8884 87.1166 44.1731 86.0746L37.5778 88.7838C39.7552 92.858 43.4894 95.9841 48.0125 97.3699C48.4543 97.5054 50.474 98.1202 53.251 98.1514C55.2075 98.1723 61.5188 98.2452 66.2944 93.5249C70.6177 89.2527 70.9227 83.7717 70.9648 82.3546V66.5578L70.9753 66.5474ZM53.251 77.0821C47.3814 77.0821 42.6163 72.3722 42.6163 66.5474C42.6163 60.7226 47.3709 56.0127 53.251 56.0127C59.131 56.0127 63.8856 60.7226 63.8856 66.5474C63.8856 72.3722 59.131 77.0821 53.251 77.0821Z" fill="#858899"/>
</svg>
