<svg width="463" height="267" viewBox="0 0 463 267" fill="none" xmlns="http://www.w3.org/2000/svg">
<path d="M0 24C0 10.7452 10.7452 0 24 0H439C452.255 0 463 10.7452 463 24V243C463 256.255 452.255 267 439 267H24C10.7452 267 0 256.255 0 243V24Z" fill="#FFCD00"/>
<mask id="mask0_2686_43533" style="mask-type:alpha" maskUnits="userSpaceOnUse" x="0" y="0" width="463" height="267">
<path d="M0 24C0 10.7452 10.7452 0 24 0H439C452.255 0 463 10.7452 463 24V243C463 256.255 452.255 267 439 267H24C10.7452 267 0 256.255 0 243V24Z" fill="#FFCD00"/>
</mask>
<g mask="url(#mask0_2686_43533)">
<path d="M362.835 245.041C356.934 245.119 352.337 244.948 348.005 244.266L347.88 244.203C348.61 242.667 349.34 240.96 350.039 239.051C355.49 224.278 393.023 175.49 372.152 155.533C351.297 135.577 283.093 94.6407 283.093 94.6407C283.093 94.6407 280.065 83.8867 269.008 83.8711C257.004 83.8401 247.112 97.558 251.678 124.389C254.535 141.133 266.586 164.968 268.263 170.353C268.822 172.153 260.001 188.695 254.022 202.569C244.379 195.694 243.416 190.759 234.363 189.813C223.011 188.618 214.967 200.349 218.802 211.538C222.685 222.851 235.589 237.748 258.557 251.171C281.525 264.594 305.036 271.934 325.86 275.658C349.915 279.972 374.28 279.259 379.948 265.06C384.824 252.863 375.569 244.855 362.819 245.026L362.835 245.041Z" fill="#FAAA30"/>
<path d="M283.11 94.6563C283.11 94.6563 280.081 83.9023 269.025 83.8868C257.021 83.8557 247.129 97.5737 251.694 124.404C254.552 141.148 266.602 164.984 268.279 170.369C268.854 172.2 260.018 188.571 254.039 202.584" stroke="#DB8819" stroke-width="4.18987" stroke-linecap="round" stroke-linejoin="round"/>
<path fill-rule="evenodd" clip-rule="evenodd" d="M343.096 52.169C341.186 50.7568 339.54 49.5774 338.158 48.6153C338.205 47.5756 338.438 46.3652 338.857 44.9841C340.193 40.577 342.848 37.3647 346.792 35.3474C350.768 33.299 355.085 33.0352 359.744 34.5559C364.356 36.0457 367.741 38.5752 369.9 42.1598C371.918 45.4496 372.586 49.0033 371.919 52.8362C370.288 53.2552 367.803 53.8449 364.464 54.6208C363.735 54.807 363.051 54.9467 362.415 55.0864C359.542 55.7226 356.855 55.9863 354.34 55.8777C350.814 55.9243 347.072 54.6829 343.112 52.169H343.096Z" fill="#FAAA30"/>
<path d="M338.158 48.6615C338.189 47.6063 338.391 46.3648 338.81 44.9682C340.177 40.5456 342.848 37.3178 346.808 35.3159C350.799 33.2676 355.085 32.9883 359.682 34.478C364.309 35.9988 367.726 38.5437 369.9 42.1129C372.027 45.5889 372.664 49.3753 371.825 53.5031" stroke="#DB8819" stroke-width="4.18987" stroke-linecap="round" stroke-linejoin="round"/>
<path fill-rule="evenodd" clip-rule="evenodd" d="M434.376 95.1388C433.615 99.4994 431.317 102.975 427.481 105.551C426.953 105.939 426.441 106.265 425.959 106.498C425.664 106.405 425.353 106.296 425.027 106.172C422.962 105.551 420.959 104.527 419.018 103.084C412.169 98.0251 408.768 91.8179 408.815 84.4624C408.846 81.9019 409.358 79.1552 410.321 76.2068C413.846 74.5463 417.449 74.1739 421.145 75.105C425.198 76.1136 428.615 78.612 431.394 82.5847C434.205 86.5883 435.199 90.7782 434.376 95.1388Z" fill="#FAAA30"/>
<path d="M424.158 107.289C425.261 106.901 426.363 106.327 427.45 105.536C431.286 102.929 433.6 99.4528 434.407 95.1078C435.199 90.7006 434.205 86.5107 431.426 82.5692C428.599 78.5965 425.168 76.0827 421.13 75.0585C417.186 74.0498 413.35 74.5309 409.607 76.5172" stroke="#DB8819" stroke-width="4.18987" stroke-linecap="round" stroke-linejoin="round"/>
<path fill-rule="evenodd" clip-rule="evenodd" d="M381.112 55.1332L381.174 55.1643C401.005 65.6855 413.971 80.288 420.074 98.9717C425.944 117.004 424.236 134.772 414.934 152.245C405.166 170.618 391.423 182.319 373.72 187.331C355.458 192.499 336.046 189.644 315.501 178.734L315.424 178.703C294.879 167.794 281.632 153.331 275.685 135.315C269.924 117.842 271.911 99.9338 281.695 81.545C290.981 64.0561 304.771 52.7124 323.064 47.4984C341.916 42.0671 361.266 44.612 381.096 55.1332H381.112Z" fill="#FAAA30"/>
<path fill-rule="evenodd" clip-rule="evenodd" d="M381.112 55.132C361.281 44.5952 341.932 42.0503 323.08 47.4971C304.802 52.7112 291.012 64.0704 281.71 81.5437C271.942 99.9326 269.939 117.856 275.7 135.314C281.632 153.33 294.879 167.793 315.439 178.702L315.517 178.733C336.062 189.642 355.473 192.498 373.735 187.33C391.439 182.318 405.182 170.633 414.95 152.244C424.236 134.755 425.96 117.002 420.09 98.9704C413.987 80.2867 401.02 65.6843 381.189 55.163L381.127 55.132H381.112Z" stroke="#DB8819" stroke-width="4.18987" stroke-linecap="round" stroke-linejoin="round"/>
<path d="M331.031 55.7695L351.514 67.5943" stroke="black" stroke-width="6.20721" stroke-linecap="round" stroke-linejoin="round"/>
<path d="M407.651 98.8792L385.615 86.1699" stroke="black" stroke-width="6.20721" stroke-linecap="round" stroke-linejoin="round"/>
<path fill-rule="evenodd" clip-rule="evenodd" d="M390.243 108.857C389.56 110.052 388.535 110.844 387.2 111.232C385.88 111.588 384.606 111.402 383.364 110.688C382.168 110.006 381.407 108.997 381.05 107.678C380.677 106.281 380.833 104.993 381.532 103.798C382.246 102.572 383.286 101.781 384.653 101.455C385.973 101.098 387.231 101.269 388.426 101.952C389.653 102.666 390.461 103.69 390.818 105.009C391.175 106.328 390.989 107.6 390.274 108.842L390.243 108.857Z" fill="black"/>
<path fill-rule="evenodd" clip-rule="evenodd" d="M348.796 102.308L352.834 104.636C352.616 104.698 352.384 104.776 352.166 104.869C352.384 104.791 352.601 104.714 352.834 104.636C355.862 103.628 358.828 103.953 361.701 105.614C364.31 107.119 366.003 109.307 366.81 112.178C367.618 115.049 367.291 117.764 365.801 120.325C364.294 122.932 362.089 124.592 359.201 125.337C356.312 126.082 353.564 125.694 350.955 124.189C348.843 122.963 347.306 121.256 346.343 119.052C345.426 116.88 345.209 114.661 345.675 112.411C343.967 113.947 341.932 114.863 339.588 115.157C337.165 115.39 334.882 114.909 332.77 113.683C330.161 112.178 328.469 109.99 327.661 107.119C326.854 104.248 327.195 101.502 328.702 98.91C330.177 96.3496 332.366 94.7047 335.255 93.9753C338.159 93.2304 340.892 93.6184 343.501 95.1236C346.389 96.7841 348.144 99.1894 348.781 102.308H348.796Z" fill="white"/>
<path fill-rule="evenodd" clip-rule="evenodd" d="M357.663 104.744C356.079 106.358 354.247 107.243 352.166 107.382C350.768 107.46 349.681 107.258 348.874 106.808C348.082 106.343 347.367 105.489 346.73 104.248C345.768 102.339 345.612 100.306 346.218 98.1338C346.932 95.6664 348.594 94.6267 351.203 95.0146C352.492 95.2319 353.719 95.6974 354.883 96.4267C356.095 97.0785 357.12 97.901 357.943 98.9097C359.573 100.974 359.433 102.882 357.663 104.744Z" fill="black"/>
<path fill-rule="evenodd" clip-rule="evenodd" d="M329.495 74.8885C330.209 73.6626 331.234 72.8557 332.554 72.4987C333.874 72.1418 335.147 72.328 336.39 73.0418C337.585 73.7246 338.377 74.7489 338.781 76.0989C339.138 77.418 338.952 78.6904 338.238 79.9318C337.554 81.1112 336.529 81.9182 335.194 82.3061C333.827 82.632 332.538 82.4614 331.358 81.7631C330.116 81.0492 329.324 80.0405 328.967 78.7215C328.641 77.3559 328.827 76.0834 329.51 74.8885H329.495Z" fill="black"/>
<path d="M348.749 189.473C374.108 188.324 388.209 176.701 405.617 167.81C429.625 155.535 438.461 181.931 421.736 195.664C395.57 217.141 361.281 220.959 358.362 223.876C356.778 225.459 352.073 232.349 346.746 247.836" fill="#FAAA30"/>
<path d="M348.749 189.473C374.108 188.324 388.209 176.701 405.617 167.81C429.625 155.535 438.461 181.931 421.736 195.664C395.57 217.141 361.281 220.959 358.362 223.876C356.778 225.459 352.073 232.349 346.746 247.836" stroke="#DB8819" stroke-width="4.18987" stroke-linecap="round" stroke-linejoin="round"/>
<path d="M257.672 204.99C244.472 196.874 244.472 190.884 234.378 189.828C223.027 188.633 214.982 200.365 218.818 211.554C222.7 222.866 235.605 237.764 258.573 251.187C281.54 264.61 305.051 271.95 325.876 275.674C349.93 279.988 374.295 279.274 379.964 265.075C384.84 252.878 375.584 244.871 362.835 245.042C356.934 245.119 352.337 244.948 348.005 244.266" stroke="#DB8819" stroke-width="4.18987" stroke-linecap="round" stroke-linejoin="round"/>
<path d="M241.212 138.248C226.211 134.477 226.583 116.414 226.583 116.414C226.583 116.414 226.941 134.477 211.955 138.248C226.956 142.019 226.583 160.082 226.583 160.082C226.583 160.082 226.211 142.019 241.212 138.248Z" fill="#FFE100" stroke="#F6AC19" stroke-width="3.72433" stroke-linecap="round" stroke-linejoin="round"/>
<path d="M424.874 41.8339C409.873 38.063 410.246 20 410.246 20C410.246 20 410.603 38.063 395.617 41.8339C410.618 45.6048 410.246 63.6678 410.246 63.6678C410.246 63.6678 409.888 45.6048 424.874 41.8339Z" fill="#FFE100" stroke="#F6AC19" stroke-width="3.72433" stroke-linecap="round" stroke-linejoin="round"/>
<path d="M429.393 233.87C417.777 230.952 418.057 216.939 418.057 216.939C418.057 216.939 418.336 230.937 406.721 233.87C418.352 236.787 418.057 250.8 418.057 250.8C418.057 250.8 417.777 236.802 429.393 233.87Z" fill="#FFE100" stroke="#F6AC19" stroke-width="3.72433" stroke-linecap="round" stroke-linejoin="round"/>
<path d="M219.021 171.889C208.399 169.22 208.663 156.434 208.663 156.434C208.663 156.434 208.927 169.22 198.305 171.889C208.927 174.559 208.663 187.345 208.663 187.345C208.663 187.345 208.399 174.559 219.021 171.889Z" fill="#FFE100" stroke="#F6AC19" stroke-width="3.72433" stroke-linecap="round" stroke-linejoin="round"/>
<path d="M284.243 235.467C273.047 229.741 269.382 220.973 268.186 213.882C266.913 206.371 269.164 196.408 277.24 186.461C284.212 177.864 294.322 176.018 294.322 176.018L298.39 189.301L311.932 185.018L317.196 198.348C317.196 198.348 321.606 197.169 329.076 194.236C329.076 194.236 333.175 202.895 330.287 213.571C326.948 225.924 320.177 233.574 313.345 236.941C306.885 240.123 297.629 242.295 286.433 236.569L284.259 235.467H284.243Z" fill="white"/>
<path d="M90.2544 263.548C96.4194 263.734 97.7549 257.465 95.2392 253.865C91.8073 248.946 83.8874 250.622 81.1854 254.843C77.6292 260.398 79.912 269.585 89.4779 271.276C97.1959 272.642 102.631 270.438 106.669 266.419L100.426 255.355" fill="#A37944"/>
<path d="M90.2544 263.548C96.4194 263.734 97.7549 257.465 95.2392 253.865C91.8073 248.946 83.8874 250.622 81.1854 254.843C77.6292 260.398 79.912 269.585 89.4779 271.276C97.1959 272.642 102.631 270.438 106.669 266.419L100.426 255.355" stroke="#835D33" stroke-width="4.18987" stroke-linecap="round" stroke-linejoin="round"/>
<path d="M152.029 209.749L103.143 213.66C92.6612 205.233 80.7969 194.2 72.4734 189.545C61.2613 183.291 46.5243 194.526 54.4441 208.461C59.3513 217.089 75.4083 225.422 82.2567 236.083C89.2913 247.054 92.5059 263.1 101.156 268.438C111.312 274.707 137.773 278.261 149.28 272.69C152.371 271.2 154.482 268.174 155.337 264.776L156.734 224.693" fill="#FFD677"/>
<path d="M150.041 208.229C157.945 213.582 170.244 230.761 169.949 243.827C169.67 256.117 155.771 253.758 153.287 245.658" fill="#FFD677"/>
<path d="M150.041 208.229C157.945 213.582 170.244 230.761 169.949 243.827C169.67 256.117 155.771 253.758 153.287 245.658" stroke="#DEA83D" stroke-width="4.18987" stroke-linecap="round" stroke-linejoin="round"/>
<path d="M178.894 247.084C175.338 240.799 163.629 239.077 159.716 236.284C158.955 235.74 158.132 234.375 157.138 232.652C138.27 229.207 99.5871 237.944 87.4434 246.106C91.4965 255.169 94.8973 264.588 101.14 268.437C111.296 274.706 137.758 278.26 149.265 272.689C152.262 271.246 154.343 268.359 155.243 265.085C159.716 266.606 165.027 267.025 169.872 266.218C179.795 264.557 183.009 254.378 178.894 247.1" fill="#A37944"/>
<path d="M173.055 180.512C174.157 167.617 171.502 156.351 164.948 146.559C159.296 138.086 152.929 133.275 141.965 129.628C132.648 126.54 118.206 125.408 109.277 126.54C106.792 124.151 101.978 123.22 98.5615 124.74C94.8501 126.385 92.0083 129.753 90.4864 134.563C80.5478 140.926 73.4044 150.19 70.3296 162.558C67.7984 172.722 68.1711 181.49 71.1838 188.907C73.8082 195.332 80.0198 196.527 86.4178 200.918C91.4492 204.379 103.112 213.643 103.112 213.643C106.124 214.574 109.323 215.412 112.693 216.126C144.248 222.876 170.523 209.841 173.039 180.497" fill="#FFD677"/>
<path d="M173.055 180.512C174.157 167.617 171.502 156.351 164.948 146.559C159.296 138.086 152.929 133.275 141.965 129.628C132.648 126.54 118.206 125.408 109.277 126.54C106.792 124.151 101.978 123.22 98.5615 124.74C94.8501 126.385 92.0083 129.753 90.4864 134.563C80.5478 140.926 73.4044 150.19 70.3296 162.558C67.7984 172.722 68.1711 181.49 71.1838 188.907C73.8082 195.332 80.0198 196.527 86.4178 200.918C91.4492 204.379 103.112 213.643 103.112 213.643C106.124 214.574 109.323 215.412 112.693 216.126C144.248 222.876 170.523 209.841 173.039 180.497L173.055 180.512Z" stroke="#DEA83D" stroke-width="4.18987" stroke-linecap="round" stroke-linejoin="round"/>
<path d="M145.213 141.189C145.275 143.222 146.191 146.528 148.847 148.219C151.362 149.833 155.447 148.917 157.357 149.647" fill="#FFD677"/>
<path d="M145.213 141.189C145.275 143.222 146.191 146.528 148.847 148.219C151.362 149.833 155.447 148.917 157.357 149.647" stroke="#DEA83D" stroke-width="4.18987" stroke-linecap="round" stroke-linejoin="round"/>
<path d="M119.17 198.266C119.776 198.498 120.707 198.747 121.686 198.855C122.586 198.964 123.456 198.979 124.139 198.871" stroke="#DEA83D" stroke-width="4.18987" stroke-linecap="round" stroke-linejoin="round"/>
<path d="M119.044 178.541C119.044 178.541 118.19 188.473 123.687 188.566C128.486 188.659 129.775 179.72 129.775 179.72" fill="#B53F3C"/>
<path d="M144.839 174.537L134.621 176.415" stroke="black" stroke-width="4.18987" stroke-linecap="round" stroke-linejoin="round"/>
<path d="M142.183 183.523L135.832 178.697" stroke="black" stroke-width="4.18987" stroke-linecap="round" stroke-linejoin="round"/>
<path d="M105.736 170.658L114.759 173.886" stroke="black" stroke-width="4.18987" stroke-linecap="round" stroke-linejoin="round"/>
<path d="M106.947 180.713L114.665 177.936" stroke="black" stroke-width="4.18987" stroke-linecap="round" stroke-linejoin="round"/>
<path d="M125.116 167.68C116.638 167.167 111.715 170.581 112.15 176.121C112.553 181.196 119.914 183.275 124.682 179.659C128.284 185.417 137.307 184.765 138.627 178.185C139.745 172.599 133.999 168.207 125.116 167.664" fill="white"/>
<path d="M125.116 167.68C116.638 167.167 111.715 170.581 112.15 176.121C112.553 181.196 119.914 183.275 124.682 179.659C128.284 185.417 137.307 184.765 138.627 178.185C139.745 172.599 133.999 168.207 125.116 167.664V167.68Z" stroke="black" stroke-width="4.18987" stroke-linecap="round" stroke-linejoin="round"/>
<path d="M113.688 160.152C113.487 162.417 111.483 164.093 109.216 163.891C106.949 163.69 105.272 161.688 105.474 159.422C105.675 157.157 107.679 155.481 109.946 155.682C112.213 155.884 113.89 157.886 113.688 160.152Z" fill="black"/>
<path d="M145.444 162.978C145.242 165.243 143.239 166.919 140.972 166.718C138.705 166.516 137.027 164.514 137.229 162.248C137.431 159.983 139.434 158.307 141.702 158.509C143.969 158.71 145.646 160.712 145.444 162.978Z" fill="black"/>
<path d="M152.029 224.691C155.741 229.207 157.93 234.995 159.716 236.283C163.63 239.092 175.338 240.815 178.895 247.084C183.01 254.362 179.795 264.542 169.872 266.202C165.027 267.009 159.716 266.59 155.244 265.069" stroke="#835D33" stroke-width="4.18987" stroke-linecap="round" stroke-linejoin="round"/>
<path d="M103.143 213.644C92.6612 205.218 80.7969 194.184 72.4734 189.529C61.2613 183.275 46.5243 194.51 54.4441 208.445C59.3513 217.073 75.4239 225.407 82.2567 236.068" fill="#FFD677"/>
<path d="M103.143 213.644C92.6612 205.218 80.7969 194.184 72.4734 189.529C61.2613 183.275 46.5243 194.51 54.4441 208.445C59.3513 217.073 75.4239 225.407 82.2567 236.068" stroke="#DEA83D" stroke-width="4.18987" stroke-linecap="round" stroke-linejoin="round"/>
<path d="M82.2402 236.082C89.2749 247.053 92.4894 263.099 101.139 268.437C111.295 274.706 137.757 278.26 149.264 272.689C159.14 267.909 159.125 247.488 139.372 249.071" stroke="#835D33" stroke-width="4.18987" stroke-linecap="round" stroke-linejoin="round"/>
<path d="M69.771 198.001C71.1686 199.537 70.9822 201.803 68.451 203.836C66.0595 205.76 63.6059 205.527 62.4567 203.789C61.2455 201.943 61.7579 199.553 63.7767 197.955C65.7955 196.356 68.1404 196.217 69.771 198.001Z" fill="#E6756A"/>
<path d="M67.1626 193.035C67.7527 193.686 67.8925 194.617 67.0384 195.285C66.3396 195.828 65.501 195.843 64.8798 195.223C64.212 194.571 64.2121 193.438 64.9109 192.91C65.7029 192.305 66.5725 192.383 67.1626 193.035Z" fill="#E6756A"/>
<path d="M63.0156 196.729C62.6119 197.505 61.7733 197.862 60.8571 197.396C60.0651 196.993 59.8011 196.155 60.1583 195.348C60.531 194.495 61.587 194.107 62.3479 194.572C63.1865 195.084 63.4349 195.938 63.0156 196.729Z" fill="#E6756A"/>
<path d="M60.6875 200.778C60.2837 201.554 59.4451 201.911 58.5289 201.445C57.7369 201.042 57.473 200.204 57.8302 199.397C58.2029 198.544 59.352 198.218 60.0198 198.621C60.8739 199.133 61.1068 199.987 60.6875 200.778Z" fill="#E6756A"/>
</g>
<path d="M60.2567 90.0935H54.2031V39.3135L60.2567 38V90.0935ZM76.4179 53.2248L81.157 56.6471L69.5128 71.2244L82.9898 87.3927L78.3246 91L62.4226 71.5574L76.4364 53.2248H76.4179Z" fill="white"/>
<path d="M88.3564 80.4377C88.3564 76.7933 89.5782 74.037 92.0033 72.1316C94.4284 70.2262 97.9828 69.2642 102.611 69.2642H109.59V66.9703C109.59 61.4021 107.128 58.6273 102.222 58.6273C100.649 58.6273 98.9824 58.8492 97.2608 59.2932C95.5206 59.7372 93.9471 60.2737 92.4846 60.9396L90.7075 56.6663C92.5032 55.6673 94.4469 54.8719 96.5203 54.3354C98.5937 53.7805 100.63 53.5215 102.592 53.5215C111.089 53.5215 115.347 58.0538 115.347 67.1183V90.1127H110.886L110.164 86.1724C108.368 87.6153 106.443 88.7438 104.407 89.5207C102.37 90.3162 100.426 90.7047 98.5937 90.7047C95.3911 90.7047 92.8919 89.7982 91.0777 87.9853C89.2635 86.1724 88.3379 83.6565 88.3379 80.4562M99.7044 85.8209C100.537 85.8209 101.389 85.7099 102.296 85.4879C103.185 85.266 104.092 84.9885 104.98 84.637C105.869 84.2855 106.721 83.86 107.498 83.3606C108.294 82.8611 108.979 82.3246 109.59 81.7511V73.334H103.296C100.112 73.334 97.7792 73.889 96.3167 74.9805C94.8542 76.0719 94.1322 77.8108 94.1322 80.1787C94.1322 83.9525 95.9835 85.8209 99.7044 85.8209Z" fill="white"/>
<path d="M132.196 90.0935H126.143V39.3135L132.196 38V90.0935ZM148.357 53.2248L153.097 56.6471L141.471 71.2244L154.948 87.3927L150.283 91L134.381 71.5574L148.376 53.2248H148.357Z" fill="white"/>
<path d="M160.295 80.4377C160.295 76.7933 161.517 74.037 163.942 72.1316C166.385 70.2262 169.921 69.2642 174.568 69.2642H181.529V66.9703C181.529 61.4021 179.066 58.6273 174.161 58.6273C172.587 58.6273 170.921 58.8492 169.199 59.2932C167.459 59.7372 165.886 60.2737 164.442 60.9396L162.664 56.6663C164.46 55.6673 166.404 54.8719 168.477 54.3354C170.551 53.7805 172.587 53.5215 174.568 53.5215C183.065 53.5215 187.323 58.0538 187.323 67.1183V90.1127H182.843L182.121 86.1724C180.325 87.6153 178.418 88.7438 176.364 89.5207C174.327 90.3162 172.383 90.7047 170.551 90.7047C167.348 90.7047 164.849 89.7982 163.016 87.9853C161.202 86.1724 160.295 83.6565 160.295 80.4562M171.643 85.8209C172.476 85.8209 173.328 85.7099 174.235 85.4879C175.123 85.266 176.03 84.9885 176.919 84.637C177.808 84.2855 178.659 83.86 179.437 83.3606C180.214 82.8611 180.918 82.3246 181.529 81.7511V73.334H175.253C172.069 73.334 169.736 73.889 168.274 74.9805C166.811 76.0719 166.089 77.8108 166.089 80.1787C166.089 83.9525 167.941 85.8209 171.661 85.8209" fill="white"/>
<path d="M211.649 53.5586C216.647 53.5586 220.572 55.1865 223.423 58.4239C226.274 61.6612 227.699 66.3045 227.699 72.3537C227.699 78.4029 226.292 82.8797 223.46 86.0801C220.627 89.2804 216.703 90.8713 211.667 90.8713C206.632 90.8713 202.744 89.2804 199.894 86.0801C197.043 82.8797 195.617 78.3104 195.617 72.3537C195.617 66.397 197.043 61.6612 199.931 58.4239C202.8 55.1865 206.706 53.5586 211.667 53.5586M211.649 58.4239C208.502 58.4239 206.077 59.6078 204.392 61.9757C202.707 64.3436 201.856 67.8029 201.856 72.3537C201.856 76.9045 202.707 80.2713 204.392 82.5652C206.077 84.8591 208.502 86.0061 211.649 86.0061C214.796 86.0061 217.295 84.8591 218.98 82.5652C220.664 80.2713 221.516 76.8675 221.516 72.3537C221.516 67.8399 220.664 64.3436 218.98 61.9757C217.295 59.6078 214.851 58.4239 211.649 58.4239Z" fill="white"/>
</svg>
