<svg width="463" height="267" viewBox="0 0 463 267" fill="none" xmlns="http://www.w3.org/2000/svg">
<path d="M0 24C0 10.7452 10.7452 0 24 0H439C452.255 0 463 10.7452 463 24V243C463 256.255 452.255 267 439 267H24C10.7452 267 0 256.255 0 243V24Z" fill="#2B2D36"/>
<mask id="mask0_2686_43421" style="mask-type:alpha" maskUnits="userSpaceOnUse" x="1" y="0" width="460" height="267">
<path d="M1 24C1 10.7452 11.7452 0 25 0H437C450.255 0 461 10.7452 461 24V243C461 256.255 450.255 267 437 267H25C11.7452 267 1 256.255 1 243V24Z" fill="#2B2D36"/>
</mask>
<g mask="url(#mask0_2686_43421)">
<path d="M376.21 177.605C372.713 176.846 369.142 176.461 365.547 176.449C358.343 176.449 351.226 177.882 344.602 180.639C337.977 183.395 331.993 187.428 326.993 192.497L324.075 189.643C329.468 184.202 335.921 179.88 343.05 176.931C350.18 173.981 357.851 172.452 365.596 172.452C368.994 172.488 372.393 172.826 375.73 173.439C375.656 169.732 375.311 166.048 374.708 162.388C374.708 162.304 374.708 162.22 374.646 162.111C372.147 147.099 365.3 133.11 354.908 121.782L354.809 121.674L354.132 120.939C346.67 112.837 337.558 106.349 327.375 101.906C317.192 97.4641 306.172 95.1647 295.028 95.1406C256.807 95.1406 224.755 121.565 216.259 157.139H214.966C198.368 157.464 182.57 164.158 170.983 175.775C168.163 178.58 165.614 181.65 163.385 184.924C156.453 195.037 152.747 206.931 152.734 219.114C152.734 228.408 154.865 237.593 159.002 245.972C160.332 248.669 161.859 251.269 163.582 253.749C169.271 261.815 176.832 268.448 185.636 273.119C194.945 278.283 205.448 281.028 216.136 281.1H368.44L369.487 281.04H369.943L370.94 280.956C398.399 278.307 419.886 256.036 419.886 228.949C419.8 203.524 401.059 182.408 376.173 177.605" fill="white"/>
<path d="M380.803 173.5V173.343C380.803 171.02 380.606 168.672 380.359 166.337L379.719 161.557V161.329C377.06 145.353 369.782 130.462 358.725 118.423L358.626 118.315L358.516 118.194L357.9 117.532C349.945 108.937 340.242 102.063 329.407 97.3435C318.583 92.6244 306.861 90.1685 295.003 90.1204L294.941 90C256.204 90 222.711 115.341 212.159 152.095C195.141 153.046 179.109 160.197 167.239 172.139C164.198 175.173 161.44 178.484 159.026 182.011C151.527 192.954 147.526 205.823 147.526 218.993C147.501 229.046 149.816 238.977 154.298 248.03C155.739 250.944 157.389 253.761 159.248 256.433C165.368 265.161 173.531 272.348 183.062 277.38C193.122 282.978 204.487 285.952 216.074 286H368.686L369.795 285.928H370.189L371.395 285.831C401.908 282.882 424.934 258.384 424.934 228.829C424.934 202.838 406.575 180.097 380.79 173.475L380.803 173.5ZM370.89 280.835L369.893 280.92H369.438L368.391 280.98H216.087C205.386 280.908 194.883 278.163 185.586 272.998C176.782 268.327 169.222 261.694 163.533 253.628C161.809 251.148 160.282 248.548 158.952 245.851C154.827 237.473 152.685 228.299 152.685 218.993C152.685 206.822 156.391 194.916 163.336 184.804C165.565 181.529 168.114 178.459 170.933 175.654C182.52 164.037 198.318 157.344 214.917 157.019H216.21C224.706 121.457 256.745 95.0201 294.978 95.0201L295.015 95.1164C306.159 95.1284 317.192 97.4398 327.363 101.882C337.546 106.324 346.658 112.813 354.12 120.915L354.797 121.649L354.895 121.758C365.276 133.086 372.134 147.075 374.634 162.087C374.634 162.183 374.634 162.268 374.683 162.364C375.286 166.024 375.631 169.707 375.705 173.415C372.368 172.801 368.97 172.464 365.571 172.428C357.826 172.44 350.167 173.969 343.05 176.931C335.92 179.892 329.481 184.214 324.1 189.655L327.018 192.508C332.017 187.44 338.001 183.407 344.626 180.65C351.251 177.894 358.38 176.461 365.571 176.461C369.154 176.461 372.725 176.858 376.235 177.617C401.12 182.42 419.861 203.536 419.861 228.841C419.861 255.928 398.411 278.187 370.915 280.847L370.89 280.835Z" fill="#2B2D36"/>
<path d="M284.118 146.436C284.118 152.961 281.249 158.282 277.702 158.282C274.156 158.282 271.287 152.985 271.287 146.436C271.287 139.887 274.168 134.578 277.702 134.578C281.236 134.578 284.118 139.887 284.118 146.436Z" fill="#2B2D36"/>
<path d="M296.183 158.294C299.729 158.294 302.598 152.985 302.598 146.436C302.598 139.887 299.729 134.578 296.183 134.578C292.637 134.578 289.768 139.887 289.768 146.436C289.768 152.985 292.637 158.294 296.183 158.294Z" fill="#2B2D36"/>
<path d="M286.803 173.764C287.32 173.788 287.825 173.788 288.342 173.764C290.829 173.68 293.267 173.054 295.472 171.934C297.676 170.815 299.609 169.238 301.123 167.311L302.305 165.915L299.449 163.604L298.267 165.012C297.085 166.541 295.582 167.781 293.846 168.672C292.11 169.563 290.201 170.056 288.256 170.14C286.113 170.128 284.008 169.659 282.075 168.78C280.141 167.901 278.417 166.613 277.038 165.024L275.807 163.676L273.049 166.095L274.292 167.444C277.469 171.067 281.964 173.331 286.815 173.776" fill="#2B2D36"/>
</g>
<path d="M94.5403 49C84.6066 49 76.5527 56.8567 76.5527 66.5474C76.5527 76.238 84.6066 84.0948 94.5403 84.0948C104.474 84.0948 112.528 76.238 112.528 66.5474C112.528 56.8567 104.474 49 94.5403 49ZM94.5403 77.0821C88.5801 77.0821 83.7414 72.3722 83.7414 66.5474C83.7414 60.7226 88.5694 56.0127 94.5403 56.0127C100.511 56.0127 105.339 60.7226 105.339 66.5474C105.339 72.3722 100.511 77.0821 94.5403 77.0821Z" fill="#858899"/>
<path d="M135.024 49C125.079 49 117.025 56.8567 117.025 66.5474C117.025 76.238 125.079 84.0948 135.013 84.0948C144.947 84.0948 153.001 76.238 153.001 66.5474C153.001 56.8567 144.957 49 135.024 49ZM135.024 77.0821C129.063 77.0821 124.225 72.3722 124.225 66.5474C124.225 60.7226 129.053 56.0127 135.024 56.0127C140.995 56.0127 145.823 60.7226 145.823 66.5474C145.823 72.3722 140.995 77.0821 135.024 77.0821Z" fill="#858899"/>
<path d="M174.597 49.875C165.657 49.875 158.404 56.9502 158.404 65.6718V83.2192H165.604V65.6718C165.604 60.8265 169.631 56.8981 174.597 56.8981H178.197V49.875H174.597Z" fill="#858899"/>
<path d="M232.171 63.9225C232.171 56.17 225.73 49.8867 217.783 49.8867C213.478 49.8867 209.622 51.7311 206.984 54.6487C204.345 51.7311 200.489 49.8867 196.185 49.8867C188.238 49.8867 181.797 56.17 181.797 63.9225V83.2309H188.996V63.9225C188.996 60.0463 192.222 56.8994 196.195 56.8994C200.169 56.8994 203.395 60.0463 203.395 63.9225V83.2309H210.594V63.9225C210.594 60.0463 213.82 56.8994 217.793 56.8994C221.767 56.8994 224.993 60.0463 224.993 63.9225V83.2309H232.192V63.9225H232.171Z" fill="#858899"/>
<path d="M72.0562 66.5474C72.0562 56.8567 64.0023 49 54.0579 49C44.1135 49 36.5617 56.3878 36.0917 65.6721C36.081 65.9639 36.0703 66.2556 36.0703 66.5578C36.0703 66.86 36.0703 67.1518 36.0917 67.4435C36.5617 76.4881 44.2203 83.678 53.6093 83.678C57.8925 83.678 61.8126 82.1879 64.8569 79.6975V82.3546C64.7928 83.4487 64.451 86.2934 62.2185 88.5546C59.0355 91.7952 54.0899 91.7431 50.8535 90.649C47.4674 89.5132 45.5661 87.1166 44.8398 86.0746L38.1425 88.7838C40.3536 92.858 44.1455 95.9841 48.7385 97.3699C49.1871 97.5054 51.238 98.1202 54.0579 98.1514C56.0446 98.1723 62.4535 98.2452 67.3029 93.5249C71.693 89.2527 72.0028 83.7717 72.0455 82.3546V66.5578L72.0562 66.5474ZM54.0579 77.0821C48.0976 77.0821 43.2589 72.3722 43.2589 66.5474C43.2589 60.7226 48.087 56.0127 54.0579 56.0127C60.0288 56.0127 64.8569 60.7226 64.8569 66.5474C64.8569 72.3722 60.0288 77.0821 54.0579 77.0821Z" fill="#858899"/>
</svg>
