<svg width="472" height="267" viewBox="0 0 472 267" fill="none" xmlns="http://www.w3.org/2000/svg">
<path d="M0 24C0 10.7452 10.7452 0 24 0H448C461.255 0 472 10.7452 472 24V243C472 256.255 461.255 267 448 267H24C10.7452 267 0 256.255 0 243V24Z" fill="#FFCD00"/>
<mask id="mask0_1710_53562" style="mask-type:alpha" maskUnits="userSpaceOnUse" x="0" y="0" width="472" height="267">
<path d="M0 24C0 10.7452 10.7452 0 24 0H448C461.255 0 472 10.7452 472 24V243C472 256.255 461.255 267 448 267H24C10.7452 267 0 256.255 0 243V24Z" fill="#FFCD00"/>
</mask>
<g mask="url(#mask0_1710_53562)">
<path d="M362.837 245.042C356.936 245.12 352.339 244.949 348.007 244.266L347.882 244.204C348.612 242.668 349.342 240.961 350.041 239.052C355.492 224.279 393.025 175.491 372.154 155.534C351.299 135.578 283.095 94.6416 283.095 94.6416C283.095 94.6416 280.067 83.8876 269.01 83.8721C257.006 83.8411 247.114 97.559 251.679 124.39C254.537 141.134 266.588 164.969 268.265 170.354C268.824 172.154 260.003 188.696 254.024 202.57C244.381 195.695 243.418 190.76 234.365 189.814C223.013 188.619 214.969 200.35 218.804 211.539C222.687 222.852 235.591 237.749 258.559 251.172C281.526 264.595 305.037 271.935 325.862 275.659C349.917 279.973 374.282 279.26 379.95 265.061C384.826 252.864 375.571 244.856 362.821 245.027L362.837 245.042Z" fill="#FAAA30"/>
<path d="M283.111 94.6573C283.111 94.6573 280.082 83.9033 269.026 83.8877C257.022 83.8567 247.13 97.5746 251.695 124.405C254.553 141.149 266.603 164.985 268.28 170.37C268.855 172.201 260.019 188.572 254.04 202.585" stroke="#DB8819" stroke-width="4.18987" stroke-linecap="round" stroke-linejoin="round"/>
<path fill-rule="evenodd" clip-rule="evenodd" d="M343.099 52.169C341.189 50.7568 339.543 49.5774 338.161 48.6153C338.208 47.5756 338.441 46.3652 338.86 44.9841C340.195 40.577 342.851 37.3647 346.795 35.3474C350.771 33.299 355.088 33.0352 359.747 34.5559C364.359 36.0457 367.744 38.5752 369.903 42.1598C371.921 45.4496 372.589 49.0033 371.921 52.8362C370.291 53.2552 367.806 53.8449 364.467 54.6208C363.738 54.807 363.054 54.9467 362.418 55.0864C359.545 55.7226 356.858 55.9863 354.343 55.8777C350.817 55.9243 347.075 54.6829 343.115 52.169H343.099Z" fill="#FAAA30"/>
<path d="M338.161 48.6615C338.192 47.6063 338.394 46.3648 338.813 44.9682C340.18 40.5456 342.851 37.3178 346.811 35.3159C350.802 33.2676 355.088 32.9883 359.685 34.478C364.312 35.9988 367.729 38.5437 369.903 42.1129C372.03 45.5889 372.667 49.3753 371.828 53.5031" stroke="#DB8819" stroke-width="4.18987" stroke-linecap="round" stroke-linejoin="round"/>
<path fill-rule="evenodd" clip-rule="evenodd" d="M434.379 95.1388C433.618 99.4994 431.32 102.975 427.484 105.551C426.956 105.939 426.443 106.265 425.962 106.498C425.667 106.405 425.356 106.296 425.03 106.172C422.965 105.551 420.962 104.527 419.02 103.084C412.172 98.0251 408.771 91.8179 408.818 84.4624C408.849 81.9019 409.361 79.1552 410.324 76.2068C413.849 74.5463 417.452 74.1739 421.148 75.105C425.201 76.1136 428.618 78.612 431.397 82.5847C434.208 86.5883 435.202 90.7782 434.379 95.1388Z" fill="#FAAA30"/>
<path d="M424.161 107.289C425.264 106.901 426.366 106.327 427.453 105.536C431.289 102.929 433.603 99.4526 434.41 95.1075C435.202 90.7004 434.208 86.5105 431.429 82.5689C428.602 78.5963 425.17 76.0824 421.133 75.0582C417.189 74.0496 413.353 74.5306 409.61 76.5169" stroke="#DB8819" stroke-width="4.18987" stroke-linecap="round" stroke-linejoin="round"/>
<path fill-rule="evenodd" clip-rule="evenodd" d="M381.115 55.1331L381.177 55.1642C401.008 65.6854 413.974 80.2878 420.077 98.9716C425.947 117.004 424.239 134.772 414.937 152.245C405.169 170.618 391.426 182.319 373.723 187.331C355.461 192.499 336.049 189.643 315.504 178.734L315.427 178.703C294.882 167.794 281.635 153.331 275.688 135.315C269.926 117.841 271.914 99.9337 281.697 81.5448C290.984 64.056 304.774 52.7123 323.067 47.4983C341.919 42.067 361.269 44.6119 381.099 55.1331H381.115Z" fill="#FAAA30"/>
<path fill-rule="evenodd" clip-rule="evenodd" d="M381.116 55.1327C361.285 44.596 341.936 42.051 323.083 47.4979C304.806 52.7119 291.016 64.0711 281.714 81.5444C271.946 99.9333 269.943 117.857 275.704 135.314C281.636 153.331 294.883 167.794 315.443 178.703L315.521 178.734C336.066 189.643 355.477 192.498 373.739 187.331C391.443 182.319 405.186 170.633 414.954 152.245C424.24 134.756 425.964 117.003 420.094 98.9711C413.991 80.2874 401.024 65.685 381.193 55.1638L381.131 55.1327H381.116Z" stroke="#DB8819" stroke-width="4.18987" stroke-linecap="round" stroke-linejoin="round"/>
<path d="M331.033 55.769L351.516 67.5938" stroke="black" stroke-width="6.20721" stroke-linecap="round" stroke-linejoin="round"/>
<path d="M407.654 98.8787L385.618 86.1694" stroke="black" stroke-width="6.20721" stroke-linecap="round" stroke-linejoin="round"/>
<path fill-rule="evenodd" clip-rule="evenodd" d="M390.245 108.857C389.562 110.052 388.537 110.843 387.202 111.231C385.882 111.588 384.608 111.402 383.366 110.688C382.17 110.005 381.409 108.996 381.052 107.677C380.679 106.281 380.835 104.993 381.534 103.798C382.248 102.572 383.288 101.781 384.655 101.455C385.975 101.098 387.233 101.268 388.428 101.951C389.655 102.665 390.463 103.689 390.82 105.008C391.177 106.327 390.991 107.6 390.276 108.841L390.245 108.857Z" fill="black"/>
<path fill-rule="evenodd" clip-rule="evenodd" d="M348.798 102.308L352.836 104.636C352.618 104.698 352.385 104.775 352.168 104.868C352.385 104.791 352.603 104.713 352.836 104.636C355.864 103.627 358.83 103.953 361.703 105.613C364.312 107.119 366.004 109.307 366.812 112.177C367.62 115.048 367.293 117.764 365.803 120.324C364.296 122.931 362.091 124.592 359.203 125.337C356.314 126.082 353.566 125.694 350.957 124.188C348.845 122.962 347.307 121.255 346.345 119.052C345.428 116.879 345.211 114.66 345.677 112.41C343.969 113.947 341.934 114.862 339.59 115.157C337.167 115.39 334.884 114.909 332.772 113.683C330.163 112.177 328.471 109.989 327.663 107.119C326.856 104.248 327.197 101.501 328.704 98.9095C330.179 96.3491 332.368 94.7042 335.257 93.9748C338.161 93.23 340.894 93.6179 343.503 95.1231C346.391 96.7836 348.146 99.1889 348.783 102.308H348.798Z" fill="white"/>
<path fill-rule="evenodd" clip-rule="evenodd" d="M357.665 104.744C356.081 106.358 354.249 107.242 352.168 107.382C350.77 107.46 349.683 107.258 348.875 106.808C348.083 106.342 347.369 105.489 346.732 104.247C345.77 102.339 345.614 100.306 346.22 98.1333C346.934 95.6659 348.596 94.6262 351.205 95.0141C352.494 95.2314 353.721 95.6969 354.885 96.4262C356.096 97.078 357.121 97.9005 357.945 98.9092C359.575 100.973 359.435 102.882 357.665 104.744Z" fill="black"/>
<path fill-rule="evenodd" clip-rule="evenodd" d="M329.496 74.8871C330.21 73.6612 331.235 72.8543 332.555 72.4974C333.875 72.1405 335.148 72.3267 336.391 73.0405C337.586 73.7233 338.378 74.7475 338.782 76.0976C339.139 77.4166 338.953 78.6891 338.239 79.9305C337.555 81.1099 336.53 81.9169 335.195 82.3048C333.828 82.6307 332.539 82.46 331.359 81.7617C330.117 81.0479 329.325 80.0392 328.968 78.7201C328.642 77.3546 328.828 76.082 329.511 74.8871H329.496Z" fill="black"/>
<path d="M348.752 189.473C374.111 188.324 388.212 176.701 405.62 167.809C429.628 155.535 438.464 181.931 421.739 195.664C395.572 217.141 361.284 220.959 358.365 223.876C356.781 225.459 352.076 232.349 346.749 247.836" fill="#FAAA30"/>
<path d="M348.752 189.473C374.111 188.324 388.212 176.701 405.62 167.809C429.628 155.535 438.464 181.931 421.739 195.664C395.572 217.141 361.284 220.959 358.365 223.876C356.781 225.459 352.076 232.349 346.749 247.836" stroke="#DB8819" stroke-width="4.18987" stroke-linecap="round" stroke-linejoin="round"/>
<path d="M257.674 204.991C244.474 196.875 244.474 190.885 234.38 189.829C223.028 188.635 214.984 200.366 218.82 211.555C222.702 222.867 235.607 237.765 258.574 251.188C281.542 264.611 305.053 271.951 325.878 275.675C349.932 279.989 374.297 279.275 379.966 265.076C384.842 252.879 375.586 244.872 362.837 245.043C356.936 245.12 352.339 244.95 348.007 244.267" stroke="#DB8819" stroke-width="4.18987" stroke-linecap="round" stroke-linejoin="round"/>
<path d="M241.214 138.247C226.213 134.476 226.585 116.413 226.585 116.413C226.585 116.413 226.943 134.476 211.957 138.247C226.958 142.018 226.585 160.081 226.585 160.081C226.585 160.081 226.213 142.018 241.214 138.247Z" fill="#FFE100" stroke="#F6AC19" stroke-width="3.72433" stroke-linecap="round" stroke-linejoin="round"/>
<path d="M424.876 41.8339C409.875 38.063 410.248 20 410.248 20C410.248 20 410.605 38.063 395.619 41.8339C410.62 45.6048 410.248 63.6678 410.248 63.6678C410.248 63.6678 409.89 45.6048 424.876 41.8339Z" fill="#FFE100" stroke="#F6AC19" stroke-width="3.72433" stroke-linecap="round" stroke-linejoin="round"/>
<path d="M429.395 233.87C417.779 230.952 418.059 216.94 418.059 216.94C418.059 216.94 418.338 230.937 406.723 233.87C418.354 236.787 418.059 250.8 418.059 250.8C418.059 250.8 417.779 236.803 429.395 233.87Z" fill="#FFE100" stroke="#F6AC19" stroke-width="3.72433" stroke-linecap="round" stroke-linejoin="round"/>
<path d="M219.022 171.89C208.401 169.221 208.665 156.434 208.665 156.434C208.665 156.434 208.929 169.221 198.307 171.89C208.929 174.559 208.665 187.346 208.665 187.346C208.665 187.346 208.401 174.559 219.022 171.89Z" fill="#FFE100" stroke="#F6AC19" stroke-width="3.72433" stroke-linecap="round" stroke-linejoin="round"/>
<path d="M284.245 235.468C273.049 229.742 269.384 220.974 268.188 213.882C266.915 206.372 269.166 196.409 277.241 186.462C284.214 177.865 294.323 176.018 294.323 176.018L298.392 189.302L311.934 185.019L317.198 198.349C317.198 198.349 321.608 197.169 329.078 194.237C329.078 194.237 333.177 202.896 330.289 213.572C326.95 225.924 320.179 233.575 313.347 236.942C306.887 240.123 297.631 242.296 286.435 236.57L284.261 235.468H284.245Z" fill="white"/>
<path d="M90.2554 263.549C96.4204 263.735 97.7559 257.466 95.2402 253.866C91.8083 248.946 83.8884 250.622 81.1863 254.843C77.6302 260.399 79.913 269.585 89.4789 271.277C97.1969 272.643 102.632 270.439 106.67 266.42L100.427 255.355" fill="#A37944"/>
<path d="M90.2554 263.549C96.4204 263.735 97.7559 257.466 95.2402 253.866C91.8083 248.946 83.8884 250.622 81.1863 254.843C77.6302 260.399 79.913 269.585 89.4789 271.277C97.1969 272.643 102.632 270.439 106.67 266.42L100.427 255.355" stroke="#835D33" stroke-width="4.18987" stroke-linecap="round" stroke-linejoin="round"/>
<path d="M152.03 209.748L103.144 213.659C92.6622 205.233 80.7979 194.199 72.4743 189.544C61.2623 183.29 46.5252 194.525 54.4451 208.46C59.3523 217.088 75.4093 225.422 82.2576 236.082C89.2923 247.054 92.5069 263.099 101.157 268.437C111.313 274.707 137.774 278.26 149.281 272.689C152.372 271.2 154.483 268.174 155.338 264.775L156.735 224.692" fill="#FFD677"/>
<path d="M150.042 208.228C157.946 213.581 170.245 230.76 169.95 243.826C169.671 256.116 155.772 253.758 153.288 245.657" fill="#FFD677"/>
<path d="M150.042 208.228C157.946 213.581 170.245 230.76 169.95 243.826C169.671 256.116 155.772 253.758 153.288 245.657" stroke="#DEA83D" stroke-width="4.18987" stroke-linecap="round" stroke-linejoin="round"/>
<path d="M178.895 247.085C175.339 240.8 163.63 239.078 159.717 236.284C158.956 235.741 158.133 234.376 157.139 232.653C138.271 229.208 99.5881 237.945 87.4443 246.107C91.4974 255.17 94.8983 264.589 101.141 268.438C111.297 274.707 137.759 278.261 149.266 272.69C152.263 271.246 154.344 268.36 155.244 265.086C159.717 266.607 165.028 267.026 169.873 266.219C179.796 264.558 183.01 254.378 178.895 247.1" fill="#A37944"/>
<path d="M173.057 180.512C174.159 167.617 171.504 156.351 164.95 146.559C159.298 138.086 152.931 133.275 141.967 129.628C132.65 126.54 118.208 125.408 109.279 126.54C106.794 124.151 101.98 123.22 98.5635 124.74C94.852 126.385 92.0102 129.753 90.4884 134.563C80.5498 140.926 73.4064 150.19 70.3316 162.558C67.8004 172.722 68.1731 181.49 71.1857 188.907C73.8101 195.332 80.0218 196.527 86.4198 200.918C91.4512 204.379 103.114 213.643 103.114 213.643C106.126 214.574 109.325 215.412 112.695 216.126C144.25 222.876 170.525 209.841 173.041 180.497" fill="#FFD677"/>
<path d="M173.057 180.512C174.159 167.617 171.504 156.351 164.95 146.559C159.298 138.086 152.931 133.275 141.967 129.628C132.65 126.54 118.208 125.408 109.279 126.54C106.794 124.151 101.98 123.22 98.5635 124.74C94.852 126.385 92.0102 129.753 90.4884 134.563C80.5498 140.926 73.4064 150.19 70.3316 162.558C67.8004 172.722 68.1731 181.49 71.1857 188.907C73.8101 195.332 80.0218 196.527 86.4198 200.918C91.4512 204.379 103.114 213.643 103.114 213.643C106.126 214.574 109.325 215.412 112.695 216.126C144.25 222.876 170.525 209.841 173.041 180.497L173.057 180.512Z" stroke="#DEA83D" stroke-width="4.18987" stroke-linecap="round" stroke-linejoin="round"/>
<path d="M145.213 141.189C145.275 143.222 146.191 146.528 148.847 148.219C151.362 149.833 155.447 148.917 157.357 149.647" fill="#FFD677"/>
<path d="M145.213 141.189C145.275 143.222 146.191 146.528 148.847 148.219C151.362 149.833 155.447 148.917 157.357 149.647" stroke="#DEA83D" stroke-width="4.18987" stroke-linecap="round" stroke-linejoin="round"/>
<path d="M119.171 198.265C119.777 198.497 120.708 198.746 121.687 198.854C122.587 198.963 123.457 198.978 124.14 198.87" stroke="#DEA83D" stroke-width="4.18987" stroke-linecap="round" stroke-linejoin="round"/>
<path d="M119.045 178.541C119.045 178.541 118.191 188.473 123.688 188.566C128.487 188.659 129.776 179.721 129.776 179.721" fill="#B53F3C"/>
<path d="M144.84 174.537L134.622 176.415" stroke="black" stroke-width="4.18987" stroke-linecap="round" stroke-linejoin="round"/>
<path d="M142.184 183.523L135.833 178.697" stroke="black" stroke-width="4.18987" stroke-linecap="round" stroke-linejoin="round"/>
<path d="M105.737 170.658L114.76 173.886" stroke="black" stroke-width="4.18987" stroke-linecap="round" stroke-linejoin="round"/>
<path d="M106.949 180.714L114.667 177.936" stroke="black" stroke-width="4.18987" stroke-linecap="round" stroke-linejoin="round"/>
<path d="M125.118 167.679C116.64 167.167 111.717 170.581 112.152 176.121C112.555 181.195 119.916 183.275 124.684 179.659C128.286 185.416 137.309 184.764 138.629 178.185C139.747 172.598 134.001 168.207 125.118 167.663" fill="white"/>
<path d="M125.118 167.679C116.64 167.167 111.717 170.581 112.152 176.121C112.555 181.195 119.916 183.275 124.684 179.659C128.286 185.416 137.309 184.764 138.629 178.185C139.747 172.598 134.001 168.207 125.118 167.663V167.679Z" stroke="black" stroke-width="4.18987" stroke-linecap="round" stroke-linejoin="round"/>
<path d="M113.688 160.153C113.487 162.418 111.483 164.094 109.216 163.892C106.949 163.691 105.272 161.689 105.474 159.423C105.675 157.158 107.679 155.482 109.946 155.683C112.213 155.885 113.89 157.887 113.688 160.153Z" fill="black"/>
<path d="M145.445 162.977C145.243 165.243 143.24 166.919 140.973 166.717C138.706 166.515 137.028 164.513 137.23 162.248C137.432 159.982 139.435 158.306 141.703 158.508C143.97 158.71 145.647 160.711 145.445 162.977Z" fill="black"/>
<path d="M152.029 224.692C155.741 229.208 157.93 234.996 159.716 236.284C163.63 239.093 175.338 240.815 178.895 247.084C183.01 254.362 179.795 264.542 169.872 266.203C165.027 267.009 159.716 266.59 155.244 265.07" stroke="#835D33" stroke-width="4.18987" stroke-linecap="round" stroke-linejoin="round"/>
<path d="M103.144 213.643C92.6622 205.217 80.7979 194.184 72.4743 189.528C61.2623 183.275 46.5252 194.51 54.4451 208.445C59.3523 217.073 75.4248 225.406 82.2576 236.067" fill="#FFD677"/>
<path d="M103.144 213.643C92.6622 205.217 80.7979 194.184 72.4743 189.528C61.2623 183.275 46.5252 194.51 54.4451 208.445C59.3523 217.073 75.4248 225.406 82.2576 236.067" stroke="#DEA83D" stroke-width="4.18987" stroke-linecap="round" stroke-linejoin="round"/>
<path d="M82.2422 236.082C89.2769 247.054 92.4914 263.099 101.141 268.437C111.297 274.707 137.759 278.26 149.266 272.689C159.142 267.91 159.127 247.488 139.374 249.071" stroke="#835D33" stroke-width="4.18987" stroke-linecap="round" stroke-linejoin="round"/>
<path d="M69.7719 198.001C71.1696 199.538 70.9832 201.803 68.452 203.836C66.0605 205.76 63.6069 205.528 62.4577 203.79C61.2464 201.943 61.7589 199.553 63.7777 197.955C65.7965 196.356 68.1414 196.217 69.7719 198.001Z" fill="#E6756A"/>
<path d="M67.1636 193.035C67.7537 193.687 67.8934 194.618 67.0393 195.285C66.3405 195.829 65.5019 195.844 64.8808 195.223C64.213 194.572 64.2131 193.439 64.9119 192.911C65.7038 192.306 66.5734 192.384 67.1636 193.035Z" fill="#E6756A"/>
<path d="M63.0166 196.729C62.6128 197.504 61.7743 197.861 60.858 197.396C60.0661 196.992 59.8021 196.154 60.1593 195.347C60.532 194.494 61.5879 194.106 62.3489 194.571C63.1874 195.084 63.4359 195.937 63.0166 196.729Z" fill="#E6756A"/>
<path d="M60.6875 200.779C60.2837 201.555 59.4451 201.912 58.5289 201.446C57.7369 201.043 57.473 200.205 57.8302 199.398C58.2029 198.544 59.352 198.218 60.0198 198.622C60.8739 199.134 61.1068 199.987 60.6875 200.779Z" fill="#E6756A"/>
</g>
<path d="M60.2567 90.0935H54.2031V39.3135L60.2567 38V90.0935ZM76.4179 53.2248L81.157 56.6471L69.5128 71.2244L82.9898 87.3927L78.3246 91L62.4226 71.5574L76.4364 53.2248H76.4179Z" fill="white"/>
<path d="M88.3574 80.4374C88.3574 76.7931 89.5792 74.0367 92.0043 72.1313C94.4294 70.2259 97.9838 69.264 102.612 69.264H109.591V66.9701C109.591 61.4018 107.129 58.627 102.223 58.627C100.65 58.627 98.9834 58.849 97.2618 59.293C95.5216 59.7369 93.9481 60.2734 92.4856 60.9394L90.7084 56.6661C92.5041 55.6671 94.4479 54.8717 96.5213 54.3352C98.5947 53.7802 100.631 53.5212 102.593 53.5212C111.09 53.5212 115.348 58.0535 115.348 67.1181V90.1125H110.887L110.165 86.1722C108.369 87.6151 106.444 88.7435 104.408 89.5205C102.371 90.316 100.427 90.7045 98.5947 90.7045C95.392 90.7045 92.8929 89.798 91.0787 87.9851C89.2645 86.1722 88.3389 83.6563 88.3389 80.4559M99.7054 85.8207C100.538 85.8207 101.39 85.7097 102.297 85.4877C103.186 85.2657 104.093 84.9882 104.981 84.6368C105.87 84.2853 106.722 83.8598 107.499 83.3603C108.295 82.8608 108.98 82.3244 109.591 81.7509V73.3338H103.297C100.113 73.3338 97.7801 73.8888 96.3177 74.9802C94.8552 76.0717 94.1332 77.8106 94.1332 80.1785C94.1332 83.9523 95.9844 85.8207 99.7054 85.8207Z" fill="white"/>
<path d="M132.197 90.0935H126.144V39.3135L132.197 38V90.0935ZM148.358 53.2248L153.098 56.6471L141.472 71.2244L154.949 87.3927L150.284 91L134.382 71.5574L148.377 53.2248H148.358Z" fill="white"/>
<path d="M160.296 80.4374C160.296 76.7931 161.518 74.0367 163.943 72.1313C166.386 70.2259 169.922 69.264 174.569 69.264H181.53V66.9701C181.53 61.4018 179.067 58.627 174.162 58.627C172.588 58.627 170.922 58.849 169.2 59.293C167.46 59.7369 165.887 60.2734 164.443 60.9394L162.665 56.6661C164.461 55.6671 166.405 54.8717 168.478 54.3352C170.552 53.7802 172.588 53.5212 174.569 53.5212C183.066 53.5212 187.324 58.0535 187.324 67.1181V90.1125H182.844L182.122 86.1722C180.326 87.6151 178.419 88.7435 176.365 89.5205C174.328 90.316 172.384 90.7045 170.552 90.7045C167.349 90.7045 164.85 89.798 163.017 87.9851C161.203 86.1722 160.296 83.6563 160.296 80.4559M171.644 85.8207C172.477 85.8207 173.329 85.7097 174.236 85.4877C175.124 85.2657 176.031 84.9882 176.92 84.6368C177.809 84.2853 178.66 83.8598 179.438 83.3603C180.215 82.8608 180.919 82.3244 181.53 81.7509V73.3338H175.254C172.07 73.3338 169.737 73.8888 168.275 74.9802C166.812 76.0717 166.09 77.8106 166.09 80.1785C166.09 83.9523 167.942 85.8207 171.662 85.8207" fill="white"/>
<path d="M211.649 53.5583C216.647 53.5583 220.572 55.1863 223.423 58.4236C226.274 61.661 227.699 66.3042 227.699 72.3535C227.699 78.4027 226.292 82.8795 223.46 86.0798C220.627 89.2802 216.703 90.8711 211.667 90.8711C206.632 90.8711 202.744 89.2802 199.894 86.0798C197.043 82.8795 195.617 78.3102 195.617 72.3535C195.617 66.3967 197.043 61.661 199.931 58.4236C202.8 55.1863 206.706 53.5583 211.667 53.5583M211.649 58.4236C208.502 58.4236 206.077 59.6076 204.392 61.9755C202.707 64.3434 201.856 67.8027 201.856 72.3535C201.856 76.9042 202.707 80.2711 204.392 82.5649C206.077 84.8588 208.502 86.0058 211.649 86.0058C214.796 86.0058 217.295 84.8588 218.98 82.5649C220.664 80.2711 221.516 76.8672 221.516 72.3535C221.516 67.8397 220.664 64.3434 218.98 61.9755C217.295 59.6076 214.851 58.4236 211.649 58.4236Z" fill="white"/>
</svg>
