<svg width="670" height="119" viewBox="0 0 670 119" fill="none" xmlns="http://www.w3.org/2000/svg">
<g clip-path="url(#clip0_1467_27178)">
<path d="M75.9725 25.5662C77.5087 27.5272 78.2769 29.7683 78.2769 32.2896C78.2769 35.9314 77.0065 38.8065 74.4509 40.9296C71.9102 43.0528 68.3501 44.1291 63.8003 44.1291H43.4888V0.619141H63.106C67.5376 0.619141 71.0091 1.63649 73.5055 3.65643C76.0168 5.67638 77.2576 8.43354 77.2576 11.8984C77.2576 14.4639 76.5781 16.5871 75.2339 18.2826C73.8896 19.9782 72.1022 21.1577 69.8568 21.8212C72.3829 22.352 74.4066 23.6053 75.9429 25.5662H75.9725ZM54.1099 18.2236H61.0675C62.8106 18.2236 64.1401 17.8403 65.0707 17.0736C66.0013 16.3069 66.474 15.1864 66.474 13.6972C66.474 12.208 66.0013 11.0727 65.0707 10.2913C64.1401 9.50986 62.8106 9.11177 61.0675 9.11177H54.1099V18.2236ZM66.0752 34.3685C67.0501 33.5576 67.5376 32.3928 67.5376 30.8594C67.5376 29.326 67.0354 28.1317 66.0161 27.2618C64.9968 26.3919 63.6083 25.9643 61.8209 25.9643H54.1246V35.5775H61.9538C63.7264 35.5775 65.115 35.1794 66.09 34.3685H66.0752Z" fill="#fff"/>
<path d="M93.9204 9.11177V17.914H108.146V26.097H93.9204V35.6365H110.007V44.1291H83.2993V0.619141H110.007V9.11177H93.9204Z" fill="#fff"/>
<path d="M126.39 0.619141V44.1291H115.769V0.619141H126.39Z" fill="#fff"/>
<path d="M171.976 44.1291H161.355L143.599 17.2948V44.1291H132.978V0.619141H143.599L161.355 27.5862V0.619141H171.976V44.1291Z" fill="#fff"/>
<path d="M207.488 14.3755C206.705 12.9305 205.568 11.8247 204.105 11.058C202.628 10.2913 200.9 9.90798 198.92 9.90798C195.478 9.90798 192.731 11.0285 190.663 13.2844C188.595 15.5402 187.561 18.548 187.561 22.3078C187.561 26.3182 188.654 29.444 190.825 31.6998C192.997 33.9557 195.995 35.0762 199.792 35.0762C202.406 35.0762 204.607 34.4128 206.41 33.0858C208.212 31.7588 209.527 29.8568 210.354 27.3798H196.882V19.5654H219.985V29.4145C219.202 32.0537 217.858 34.516 215.982 36.7866C214.091 39.0572 211.713 40.9002 208.803 42.3009C205.907 43.7016 202.628 44.4093 198.994 44.4093C194.681 44.4093 190.855 43.4657 187.472 41.5931C184.089 39.7206 181.474 37.0962 179.584 33.7493C177.693 30.4023 176.762 26.5836 176.762 22.2783C176.762 17.973 177.708 14.1543 179.584 10.7779C181.46 7.41622 184.089 4.79176 187.442 2.90451C190.796 1.032 194.622 0.0883789 198.935 0.0883789C204.15 0.0883789 208.552 1.34163 212.126 3.86288C215.701 6.38413 218.08 9.87849 219.232 14.3312H207.503L207.488 14.3755Z" fill="#fff"/>
<path d="M263.932 36.4474H247.668L245.053 44.1291H233.944L249.721 0.619141H262.011L277.788 44.1291H266.546L263.932 36.4474ZM261.199 28.2644L255.792 12.3407L250.445 28.2644H261.184H261.199Z" fill="#fff"/>
<path d="M292.073 35.9461H305.988V44.1291H281.466V0.619141H292.087V35.9461H292.073Z" fill="#fff"/>
<path d="M320.568 35.9461H334.483V44.1291H309.961V0.619141H320.583V35.9461H320.568Z" fill="#fff"/>
<path d="M357.704 43.0086C355.178 41.9765 353.155 40.4431 351.648 38.4232C350.141 36.4032 349.344 33.9557 349.255 31.1101H360.555C360.718 32.7172 361.279 33.9557 362.24 34.7961C363.185 35.6366 364.426 36.0641 365.962 36.0641C367.498 36.0641 368.784 35.7103 369.685 34.9731C370.6 34.2506 371.044 33.248 371.044 31.9653C371.044 30.8889 370.674 30.0043 369.951 29.2966C369.227 28.5888 368.34 28.0138 367.277 27.5568C366.228 27.0997 364.721 26.5836 362.771 26.0086C359.95 25.1387 357.66 24.2688 355.873 23.3989C354.085 22.529 352.564 21.2463 351.279 19.5507C349.993 17.8551 349.358 15.6435 349.358 12.9158C349.358 8.86118 350.835 5.69119 353.76 3.40584C356.7 1.10576 360.526 -0.029541 365.253 -0.029541C369.98 -0.029541 373.924 1.1205 376.864 3.40584C379.803 5.70593 381.369 8.89067 381.591 12.9748H370.098C370.01 11.5741 369.493 10.4683 368.547 9.65736C367.602 8.84643 366.376 8.44834 364.884 8.44834C363.599 8.44834 362.564 8.78746 361.782 9.46569C360.999 10.1439 360.6 11.1318 360.6 12.4145C360.6 13.8152 361.265 14.921 362.594 15.7025C363.924 16.4839 365.992 17.3391 368.798 18.2385C371.62 19.1968 373.895 20.0962 375.667 20.9661C377.425 21.836 378.947 23.0893 380.232 24.7406C381.517 26.392 382.152 28.5151 382.152 31.1248C382.152 33.7346 381.517 35.8577 380.261 37.8777C378.991 39.8976 377.174 41.5195 374.766 42.7137C372.358 43.908 369.522 44.5125 366.257 44.5125C362.993 44.5125 360.216 43.9965 357.69 42.9644L357.704 43.0086Z" fill="#fff"/>
<path d="M398.18 9.11177V17.914H412.405V26.097H398.18V35.6365H414.266V44.1291H387.559V0.619141H414.266V9.11177H398.18Z" fill="#fff"/>
<path d="M447.179 36.4474H430.915L428.3 44.1291H417.191L432.953 0.619141H445.243L461.02 44.1291H449.778L447.164 36.4474H447.179ZM444.446 28.2644L439.039 12.3407L433.692 28.2644H444.431H444.446Z" fill="#fff"/>
<path d="M471.892 43.0086C469.366 41.9765 467.343 40.4431 465.836 38.4232C464.329 36.4032 463.532 33.9557 463.443 31.1101H474.743C474.906 32.7172 475.467 33.9557 476.413 34.7961C477.358 35.6366 478.614 36.0641 480.135 36.0641C481.657 36.0641 482.957 35.7103 483.858 34.9731C484.774 34.2506 485.217 33.248 485.217 31.9653C485.217 30.8889 484.848 30.0043 484.124 29.2966C483.4 28.5888 482.514 28.0138 481.45 27.5568C480.401 27.0997 478.894 26.5836 476.944 26.0086C474.123 25.1387 471.833 24.2688 470.046 23.3989C468.259 22.529 466.737 21.2463 465.452 19.5507C464.167 17.8551 463.531 15.6435 463.531 12.9158C463.531 8.86118 464.994 5.69119 467.934 3.40584C470.873 1.10576 474.699 -0.029541 479.426 -0.029541C484.153 -0.029541 488.097 1.1205 491.037 3.40584C493.977 5.70593 495.542 8.89067 495.749 12.9748H484.257C484.168 11.5741 483.651 10.4683 482.706 9.65736C481.745 8.84643 480.534 8.44834 479.042 8.44834C477.757 8.44834 476.723 8.78746 475.94 9.46569C475.157 10.1439 474.758 11.1318 474.758 12.4145C474.758 13.8152 475.423 14.921 476.752 15.7025C478.082 16.4839 480.15 17.3391 482.957 18.2385C485.778 19.1968 488.053 20.0962 489.826 20.9661C491.584 21.836 493.105 23.0893 494.39 24.7406C495.675 26.392 496.311 28.5151 496.311 31.1248C496.311 33.7346 495.675 35.8577 494.42 37.8777C493.149 39.8976 491.318 41.5195 488.925 42.7137C486.532 43.908 483.695 44.5125 480.416 44.5125C477.137 44.5125 474.374 43.9965 471.848 42.9644L471.892 43.0086Z" fill="#fff"/>
<path d="M511.097 41.7112C507.685 39.8092 504.967 37.1552 502.958 33.7493C500.949 30.3435 499.944 26.51 499.944 22.2489C499.944 17.9879 500.949 14.1691 502.958 10.778C504.967 7.38682 507.685 4.74761 511.097 2.84562C514.51 0.943625 518.276 0 522.368 0C526.46 0 530.227 0.958369 533.639 2.84562C537.052 4.74761 539.74 7.38682 541.705 10.778C543.67 14.1691 544.659 17.9879 544.659 22.2489C544.659 26.51 543.67 30.3435 541.675 33.7493C539.681 37.1552 536.993 39.8092 533.61 41.7112C530.212 43.6132 526.475 44.5568 522.368 44.5568C518.262 44.5568 514.51 43.6132 511.097 41.7112ZM530.729 31.4198C532.827 29.1049 533.861 26.0529 533.861 22.2489C533.861 18.4449 532.812 15.3339 530.729 13.0486C528.646 10.7632 525.854 9.61318 522.383 9.61318C518.912 9.61318 516.061 10.7485 513.963 13.0191C511.865 15.2897 510.831 18.3712 510.831 22.2489C510.831 26.1266 511.88 29.1639 513.963 31.4493C516.061 33.7346 518.853 34.8846 522.383 34.8846C525.914 34.8846 528.646 33.7199 530.729 31.4198Z" fill="#fff"/>
<path d="M588.443 44.1291H577.822L560.066 17.2948V44.1291H549.445V0.619141H560.066L577.822 27.5862V0.619141H588.443V44.1291Z" fill="#fff"/>
<path d="M602.226 43.0086C599.7 41.9765 597.676 40.4431 596.169 38.4232C594.663 36.4032 593.865 33.9557 593.776 31.1101H605.077C605.239 32.7172 605.801 33.9557 606.746 34.7961C607.692 35.6366 608.947 36.0641 610.469 36.0641C611.99 36.0641 613.29 35.7103 614.191 34.9731C615.107 34.2506 615.55 33.248 615.55 31.9653C615.55 30.8889 615.181 30.0043 614.457 29.2966C613.733 28.5888 612.847 28.0138 611.783 27.5568C610.735 27.0997 609.228 26.5836 607.278 26.0086C604.457 25.1387 602.167 24.2688 600.379 23.3989C598.592 22.529 597.071 21.2463 595.785 19.5507C594.5 17.8551 593.865 15.6435 593.865 12.9158C593.865 8.86118 595.327 5.69119 598.267 3.40584C601.207 1.10576 605.033 -0.029541 609.76 -0.029541C614.487 -0.029541 618.431 1.1205 621.371 3.40584C624.31 5.70593 625.876 8.89067 626.083 12.9748H614.59C614.502 11.5741 613.985 10.4683 613.039 9.65736C612.079 8.84643 610.868 8.44834 609.376 8.44834C608.09 8.44834 607.056 8.78746 606.274 9.46569C605.491 10.1439 605.092 11.1318 605.092 12.4145C605.092 13.8152 605.756 14.921 607.086 15.7025C608.415 16.4839 610.484 17.3391 613.29 18.2385C616.112 19.1968 618.387 20.0962 620.159 20.9661C621.917 21.836 623.439 23.0893 624.724 24.7406C626.009 26.392 626.644 28.5151 626.644 31.1248C626.644 33.7346 626.009 35.8577 624.753 37.8777C623.483 39.8976 621.651 41.5195 619.258 42.7137C616.865 43.908 614.029 44.5125 610.749 44.5125C607.47 44.5125 604.708 43.9965 602.182 42.9644L602.226 43.0086Z" fill="#fff"/>
<path d="M62.2789 74.9888L50.9192 118.499H38.0675L31.1099 89.8656L23.9011 118.499H11.0495L0 74.9888H11.3597L17.6378 106.659L25.3931 74.9888H37.063L44.5081 106.659L50.8453 74.9888H62.2641H62.2789Z" fill="#fff"/>
<path d="M77.125 74.9888V118.499H66.5039V74.9888H77.125Z" fill="#fff"/>
<path d="M115.059 74.9888V83.4814H103.508V118.499H92.8867V83.4814H81.335V74.9888H115.059Z" fill="#fff"/>
<path d="M157.041 74.9888V118.499H146.42V100.585H129.905V118.499H119.284V74.9888H129.905V92.033H146.42V74.9888H157.041Z" fill="#fff"/>
<path d="M191.682 110.139C193.868 110.139 195.434 109.166 196.335 107.219C197.251 105.273 197.694 102.118 197.694 97.7389C196.778 99.0217 195.537 100.01 193.971 100.717C192.391 101.425 190.633 101.764 188.698 101.764C186.054 101.764 183.69 101.219 181.622 100.127C179.554 99.0364 177.929 97.3998 176.747 95.2324C175.565 93.065 174.975 90.4258 174.975 87.3295C174.975 84.2333 175.61 81.6088 176.865 79.3382C178.121 77.0676 179.923 75.3131 182.272 74.0746C184.606 72.8361 187.368 72.2168 190.559 72.2168C196.689 72.2168 200.973 74.1188 203.411 77.9228C205.848 81.7268 207.074 87.3295 207.074 94.7164C207.074 100.083 206.587 104.521 205.612 108.016C204.637 111.51 202.997 114.164 200.707 115.977C198.403 117.791 195.271 118.705 191.298 118.705C188.151 118.705 185.478 118.086 183.262 116.847C181.046 115.609 179.347 113.972 178.165 111.952C176.984 109.932 176.319 107.691 176.142 105.258H185.95C186.571 108.517 188.476 110.153 191.667 110.153L191.682 110.139ZM195.286 91.8265C196.32 90.7797 196.837 89.3348 196.837 87.5212C196.837 85.5308 196.305 84.0121 195.227 82.9358C194.149 81.8595 192.701 81.3287 190.884 81.3287C189.067 81.3287 187.619 81.8742 186.571 82.9653C185.522 84.0563 184.99 85.5602 184.99 87.4622C184.99 89.2463 185.522 90.6765 186.571 91.7675C187.619 92.8586 189.141 93.4041 191.135 93.4041C192.878 93.4041 194.267 92.8733 195.301 91.8265H195.286Z" fill="#fff"/>
<path d="M219.291 116.833C216.573 115.388 214.446 113.323 212.895 110.64C211.343 107.957 210.561 104.816 210.561 101.218C210.561 97.6209 211.343 94.5394 212.924 91.8264C214.49 89.1283 216.647 87.0493 219.379 85.6044C222.112 84.1595 225.17 83.437 228.568 83.437C231.965 83.437 235.023 84.1595 237.756 85.6044C240.489 87.0493 242.645 89.1283 244.211 91.8264C245.777 94.5394 246.575 97.6651 246.575 101.218C246.575 104.772 245.777 107.898 244.182 110.61C242.586 113.323 240.415 115.388 237.667 116.833C234.92 118.277 231.847 119 228.449 119C225.052 119 222.009 118.277 219.291 116.833ZM233.634 107.588C235.067 106.099 235.776 103.976 235.776 101.204C235.776 98.4318 235.082 96.3086 233.694 94.8195C232.305 93.3303 230.591 92.5931 228.568 92.5931C226.544 92.5931 224.786 93.3303 223.412 94.79C222.053 96.2497 221.359 98.4023 221.359 101.204C221.359 104.005 222.038 106.099 223.383 107.588C224.727 109.077 226.411 109.814 228.449 109.814C230.488 109.814 232.202 109.077 233.634 107.588Z" fill="#fff"/>
<path d="M257.727 116.833C255.009 115.388 252.882 113.323 251.331 110.64C249.78 107.957 248.997 104.816 248.997 101.218C248.997 97.6209 249.78 94.5394 251.361 91.8264C252.926 89.1283 255.083 87.0493 257.816 85.6044C260.549 84.1595 263.607 83.437 267.004 83.437C270.402 83.437 273.46 84.1595 276.192 85.6044C278.925 87.0493 281.082 89.1283 282.648 91.8264C284.214 94.5394 285.011 97.6651 285.011 101.218C285.011 104.772 284.214 107.898 282.618 110.61C281.023 113.323 278.851 115.388 276.104 116.833C273.356 118.277 270.284 119 266.886 119C263.488 119 260.445 118.277 257.727 116.833ZM272.071 107.588C273.504 106.099 274.213 103.976 274.213 101.204C274.213 98.4318 273.519 96.3086 272.13 94.8195C270.741 93.3303 269.028 92.5931 267.004 92.5931C264.98 92.5931 263.223 93.3303 261.849 94.79C260.49 96.2497 259.795 98.4023 259.795 101.204C259.795 104.005 260.475 106.099 261.819 107.588C263.163 109.077 264.847 109.814 266.886 109.814C268.925 109.814 270.638 109.077 272.071 107.588Z" fill="#fff"/>
<path d="M304.821 85.1918C306.682 84.1007 308.75 83.5552 311.025 83.5552V94.7755H308.1C305.456 94.7755 303.462 95.3505 302.132 96.4858C300.803 97.6211 300.138 99.6116 300.138 102.472V118.528H289.517V83.9385H300.138V89.7035C301.379 87.8015 302.93 86.3123 304.791 85.2065L304.821 85.1918Z" fill="#fff"/>
<path d="M369.493 87.4475C372.034 90.0572 373.304 93.6695 373.304 98.2992V118.499H362.742V99.7146C362.742 97.4882 362.151 95.7632 360.969 94.5394C359.788 93.3157 358.163 92.7111 356.095 92.7111C354.026 92.7111 352.402 93.3157 351.22 94.5394C350.038 95.7632 349.447 97.4882 349.447 99.7146V118.499H338.885V99.7146C338.885 97.4882 338.294 95.7632 337.113 94.5394C335.931 93.3157 334.306 92.7111 332.238 92.7111C330.17 92.7111 328.545 93.3157 327.363 94.5394C326.181 95.7632 325.59 97.4882 325.59 99.7146V118.499H314.969V83.9089H325.59V88.2437C326.669 86.7987 328.072 85.6487 329.815 84.8083C331.558 83.9679 333.523 83.5403 335.709 83.5403C338.309 83.5403 340.643 84.1006 342.696 85.2064C344.75 86.3269 346.345 87.9193 347.512 89.9835C348.709 88.0815 350.348 86.5333 352.416 85.3391C354.484 84.1448 356.745 83.5403 359.182 83.5403C363.481 83.5403 366.908 84.8378 369.463 87.4475H369.493Z" fill="#fff"/>
<path d="M398.963 109.519V118.499H393.556C389.701 118.499 386.702 117.555 384.56 115.683C382.403 113.795 381.325 110.728 381.325 106.482V92.7259H377.1V83.9236H381.325V75.49H391.946V83.9236H398.904V92.7259H391.946V106.615C391.946 107.647 392.197 108.399 392.685 108.841C393.187 109.298 394.014 109.519 395.166 109.519H398.948H398.963Z" fill="#fff"/>
<path d="M434.608 87.477C437.001 90.1015 438.212 93.699 438.212 98.2992V118.499H427.65V99.7146C427.65 97.3998 427.045 95.601 425.848 94.3183C424.652 93.0355 423.027 92.4015 421.003 92.4015C418.979 92.4015 417.354 93.0503 416.158 94.3183C414.961 95.601 414.355 97.3998 414.355 99.7146V118.499H403.734V72.6296H414.355V88.5533C415.434 87.0199 416.896 85.8109 418.758 84.8968C420.619 83.9826 422.716 83.5403 425.036 83.5403C429.009 83.5403 432.2 84.8525 434.593 87.477H434.608Z" fill="#fff"/>
<path d="M451.094 116.833C448.376 115.388 446.248 113.323 444.697 110.64C443.146 107.957 442.363 104.816 442.363 101.218C442.363 97.6209 443.146 94.5394 444.727 91.8264C446.293 89.1283 448.449 87.0493 451.182 85.6044C453.915 84.1595 456.973 83.437 460.37 83.437C463.768 83.437 466.826 84.1595 469.559 85.6044C472.291 87.0493 474.448 89.1283 476.014 91.8264C477.58 94.5394 478.377 97.6651 478.377 101.218C478.377 104.772 477.58 107.898 475.984 110.61C474.389 113.323 472.218 115.388 469.47 116.833C466.722 118.277 463.65 119 460.252 119C456.855 119 453.797 118.277 451.094 116.833ZM465.437 107.588C466.87 106.099 467.579 103.976 467.579 101.204C467.579 98.4318 466.885 96.3086 465.496 94.8195C464.108 93.3303 462.394 92.5931 460.37 92.5931C458.347 92.5931 456.589 93.3303 455.215 94.79C453.856 96.2497 453.162 98.4023 453.162 101.204C453.162 104.005 453.841 106.099 455.185 107.588C456.53 109.077 458.214 109.814 460.252 109.814C462.291 109.814 464.004 109.077 465.437 107.588Z" fill="#fff"/>
<path d="M513.741 87.477C516.164 90.1014 517.375 93.699 517.375 98.2992V118.499H506.813V99.7146C506.813 97.3998 506.208 95.601 505.011 94.3183C503.815 93.0355 502.19 92.4015 500.166 92.4015C498.142 92.4015 496.517 93.0503 495.321 94.3183C494.124 95.601 493.519 97.3998 493.519 99.7146V118.499H482.897V83.9089H493.519V88.4943C494.597 86.9609 496.045 85.7519 497.862 84.8673C499.678 83.9826 501.732 83.5403 504.007 83.5403C508.069 83.5403 511.304 84.8525 513.727 87.477H513.741Z" fill="#fff"/>
<path d="M534.083 74.9888V101.027C534.083 103.622 534.718 105.627 536.003 107.043C537.288 108.443 539.164 109.151 541.661 109.151C544.157 109.151 546.048 108.443 547.377 107.043C548.707 105.642 549.357 103.637 549.357 101.027V74.9888H559.978V100.953C559.978 104.831 559.151 108.119 557.496 110.802C555.842 113.486 553.611 115.506 550.819 116.877C548.027 118.248 544.91 118.926 541.469 118.926C538.027 118.926 534.954 118.248 532.251 116.906C529.533 115.565 527.391 113.545 525.825 110.832C524.244 108.134 523.461 104.831 523.461 100.953V74.9888H534.083Z" fill="#fff"/>
<path d="M605.298 118.499H594.677L576.921 91.6644V118.499H566.3V74.9888H576.921L594.677 101.956V74.9888H605.298V118.499Z" fill="#fff"/>
<path d="M622.508 74.9888V118.499H611.887V74.9888H622.508Z" fill="#fff"/>
<path d="M670 74.9888L654.534 118.499H641.239L625.772 74.9888H637.073L647.871 107.839L658.744 74.9888H669.985H670Z" fill="#fff"/>
</g>
<defs>
<clipPath id="clip0_1467_27178">
<rect width="670" height="119" fill="white"/>
</clipPath>
</defs>
</svg>
