<svg width="41" height="40" viewBox="0 0 41 40" fill="none" xmlns="http://www.w3.org/2000/svg">
<g id="SunIcon">
<path id="Vector" d="M11.7665 8.06675L8.7665 5.08341L6.4165 7.43342L9.39984 10.4167L11.7665 8.06675ZM7.1665 17.5001H2.1665V20.8334H7.1665V17.5001ZM22.1665 0.916748H18.8332V5.83341H22.1665V0.916748ZM34.5832 7.43342L32.2332 5.08341L29.2498 8.06675L31.5998 10.4167L34.5832 7.43342ZM29.2332 30.2667L32.2165 33.2667L34.5665 30.9167L31.5665 27.9334L29.2332 30.2667ZM33.8332 17.5001V20.8334H38.8332V17.5001H33.8332ZM20.4998 9.16675C14.9832 9.16675 10.4998 13.6501 10.4998 19.1667C10.4998 24.6834 14.9832 29.1668 20.4998 29.1668C26.0165 29.1668 30.4998 24.6834 30.4998 19.1667C30.4998 13.6501 26.0165 9.16675 20.4998 9.16675ZM18.8332 37.4168H22.1665V32.5001H18.8332V37.4168ZM6.4165 30.9001L8.7665 33.2501L11.7498 30.2501L9.39984 27.9001L6.4165 30.9001Z" fill="#FFC107"/>
</g>
</svg>
